Amiri-Regular.sfdir
StartChar: uni06F5
Encoding: 1781 1781 286
Width: 585
Flags: HW
LayerCount: 2
Back
Fore
SplineSet
235 526 m 0
 333 434 396 359 425 301 c 0
 464 223 481 164 476 125 c 0
 463 15 430 -45 376 -54 c 0
 336 -61 308 -51 292 -25 c 1
 261 -61 227 -78 188 -75 c 0
 120 -69 91 -14 102 91 c 0
 110 167 152 255 227 358 c 1
 220 363 212 368 204 372 c 0
 197 376 194 384 196 399 c 2
 213 520 l 2
 215 536 223 538 235 526 c 0
251 342 m 1
 210 286 183 238 168 200 c 0
 143 136 141 92 161 69 c 0
 201 24 253 32 317 94 c 0
 323 100 328 103 333 101 c 1
 337 99 340 95 341 89 c 1
 338 84 337 78 338 71 c 1
 350 63 364 60 381 62 c 0
 404 65 421 80 431 107 c 0
 435 117 433 127 427 139 c 0
 385 222 327 290 251 342 c 1
EndSplineSet
Validated: 33
EndChar
StartChar: uni06F6
Encoding: 1782 1782 287
Width: 585
Flags: HW
LayerCount: 2
Back
Fore
SplineSet
331 285 m 0
 347 280 361 283 373 292 c 0
 420 328 458 352 488 363 c 0
 508 370 516 365 510 348 c 2
 484 265 l 2
 477 244 465 230 448 223 c 0
 386 197 325 156 264 102 c 0
 206 51 154 -9 110 -75 c 0
 99 -91 87 -98 77 -94 c 0
 69 -91 70 -81 78 -61 c 0
 119 39 181 127 266 202 c 1
 178 234 126 271 108 314 c 0
 103 327 102 341 106 354 c 0
 118 392 138 425 164 456 c 0
 225 528 280 563 330 563 c 0
 354 563 376 552 398 529 c 0
 424 501 442 475 451 453 c 0
 454 444 453 439 448 436 c 0
 442 433 436 434 429 441 c 0
 407 464 373 476 326 477 c 0
 263 478 209 453 164 403 c 0
 159 398 159 393 164 387 c 0
 201 340 257 306 331 285 c 0
EndSplineSet
EndChar
StartChar: uni1200
Encoding: 4608 4608 6323
Width: 533
Flags: HW
AnchorPoint: "Ethiopic Mark" 287 606 basechar 0
LayerCount: 2
Fore
SplineSet
505 467 m 0
 505 432.333333333 503 397.833333333 499 363.5 c 128
 495 329.166666667 488.333333333 295.666666667 479 263 c 0
 466.333333333 217 447.333333333 174 422 134 c 128
 396.666666667 94 364.833333333 61.6666666667 326.5 37 c 128
 288.166666667 12.3333333333 243 0 191 0 c 0
 149 0 114.5 13 87.5 39 c 128
 60.5 65 47 99 47 141 c 0
 47 151.666666667 48.8333333333 168 52.5 190 c 128
 56.1666666667 212 60.6666666667 236.5 66 263.5 c 128
 71.3333333333 290.5 76.5 317.333333333 81.5 344 c 128
 86.5 370.666666667 90.8333333333 394.333333333 94.5 415 c 128
 98.1666666667 435.666666667 100 450 100 458 c 0
 100 463.333333333 98.5 470.166666667 95.5 478.5 c 128
 92.5 486.833333333 87.3333333333 491.666666667 80 493 c 1
 80 505 l 1
 91.3333333333 507.666666667 105.833333333 511.166666667 123.5 515.5 c 128
 141.166666667 519.833333333 158.166666667 523.666666667 174.5 527 c 128
 190.833333333 530.333333333 202.666666667 532 210 532 c 0
 223.333333333 532 231.5 527.333333333 234.5 518 c 128
 237.5 508.666666667 239 499 239 489 c 0
 239 482.333333333 237 468.5 233 447.5 c 128
 229 426.5 224 401.666666667 218 373 c 128
 212 344.333333333 206 314.833333333 200 284.5 c 128
 194 254.166666667 189 226.333333333 185 201 c 128
 181 175.666666667 179 155.666666667 179 141 c 0
 179 127 180 112.833333333 182 98.5 c 128
 184 84.1666666667 188.833333333 71.8333333333 196.5 61.5 c 128
 204.166666667 51.1666666667 216.666666667 46 234 46 c 0
 254.666666667 46 270.833333333 52.3333333333 282.5 65 c 128
 294.166666667 77.6666666667 303.333333333 94.5 310 115.5 c 128
 316.666666667 136.5 323 159.333333333 329 184 c 0
 333 201.333333333 337.5 222.666666667 342.5 248 c 128
 347.5 273.333333333 352.333333333 299.666666667 357 327 c 128
 361.666666667 354.333333333 365.5 379.666666667 368.5 403 c 128
 371.5 426.333333333 373 445 373 459 c 0
 373 476.333333333 371 493.166666667 367 509.5 c 128
 363 525.833333333 356 539 346 549 c 1
 346 565 l 1
 358 567 372.166666667 569.666666667 388.5 573 c 128
 404.833333333 576.333333333 420.666666667 579.333333333 436 582 c 128
 451.333333333 584.666666667 463 586 471 586 c 0
 482.333333333 586 490.333333333 579.833333333 495 567.5 c 128
 499.666666667 555.166666667 502.5 540 503.5 522 c 128
 504.5 504 505 485.666666667 505 467 c 0
EndSplineSet
EndChar
StartChar: uni1201
Encoding: 4609 4609 6324
Width: 779
Flags: HW
AnchorPoint: "Ethiopic Mark" 298 604 basechar 0
LayerCount: 2
Fore
SplineSet
754 271 m 1
 744.666666667 263.666666667 732.833333333 258.833333333 718.5 256.5 c 128
 704.166666667 254.166666667 691.333333333 253 680 253 c 0
 646.666666667 253 622.166666667 260.5 606.5 275.5 c 128
 590.833333333 290.5 582.666666667 315 582 349 c 1
 499 334 l 1
 495.666666667 314 490 290.333333333 482 263 c 128
 474 235.666666667 464.5 209.166666667 453.5 183.5 c 128
 442.5 157.833333333 430.333333333 136.666666667 417 120 c 0
 389.666666667 85.3333333333 356.333333333 56.6666666667 317 34 c 128
 277.666666667 11.3333333333 235.666666667 0 191 0 c 0
 165 0 141.166666667 4.5 119.5 13.5 c 128
 97.8333333333 22.5 80.3333333333 36.3333333333 67 55 c 128
 53.6666666667 73.6666666667 47 96.6666666667 47 124 c 0
 47 132.666666667 48.8333333333 148.666666667 52.5 172 c 128
 56.1666666667 195.333333333 60.6666666667 221.833333333 66 251.5 c 128
 71.3333333333 281.166666667 76.6666666667 310.666666667 82 340 c 128
 87.3333333333 369.333333333 91.8333333333 395.166666667 95.5 417.5 c 128
 99.1666666667 439.833333333 101 454.333333333 101 461 c 0
 101 470.333333333 99.6666666667 477.5 97 482.5 c 128
 94.3333333333 487.5 89 491 81 493 c 1
 81 505 l 1
 92.3333333333 507 106.333333333 509.833333333 123 513.5 c 128
 139.666666667 517.166666667 156.333333333 520.333333333 173 523 c 128
 189.666666667 525.666666667 202.333333333 527 211 527 c 0
 224.333333333 527 232.5 523 235.5 515 c 128
 238.5 507 240 497.333333333 240 486 c 0
 240 479.333333333 238 465.166666667 234 443.5 c 128
 230 421.833333333 225 396.5 219 367.5 c 128
 213 338.5 206.833333333 308.666666667 200.5 278 c 128
 194.166666667 247.333333333 189 219.333333333 185 194 c 128
 181 168.666666667 179 149.333333333 179 136 c 256
 179 122.666666667 180 108.666666667 182 94 c 128
 184 79.3333333333 188.833333333 66.8333333333 196.5 56.5 c 128
 204.166666667 46.1666666667 216.666666667 41 234 41 c 0
 250.666666667 41 265.666666667 49.1666666667 279 65.5 c 128
 292.333333333 81.8333333333 304.166666667 103.5 314.5 130.5 c 128
 324.833333333 157.5 333.666666667 187 341 219 c 128
 348.333333333 251 354.333333333 282.5 359 313.5 c 128
 363.666666667 344.5 367.166666667 372.5 369.5 397.5 c 128
 371.833333333 422.5 373 441.666666667 373 455 c 0
 373 473 371 491.666666667 367 511 c 128
 363 530.333333333 356.666666667 541.333333333 348 544 c 1
 348 561 l 1
 358.666666667 563 372.333333333 565.666666667 389 569 c 128
 405.666666667 572.333333333 421.833333333 575.333333333 437.5 578 c 128
 453.166666667 580.666666667 465 582 473 582 c 0
 481.666666667 582 488.5 577.333333333 493.5 568 c 128
 498.5 558.666666667 502.166666667 547.5 504.5 534.5 c 128
 506.833333333 521.5 508.333333333 509 509 497 c 128
 509.666666667 485 510 476.333333333 510 471 c 0
 510 455 509.5 439 508.5 423 c 128
 507.5 407 506.333333333 391 505 375 c 1
 730 417 l 1
 728 404.333333333 726.333333333 391.5 725 378.5 c 128
 723.666666667 365.5 723 352.666666667 723 340 c 0
 723 326 724.666666667 312.666666667 728 300 c 128
 731.333333333 287.333333333 740 277.666666667 754 271 c 1
EndSplineSet
EndChar
StartChar: uni1202
Encoding: 4610 4610 6325
Width: 606
Flags: HW
AnchorPoint: "Ethiopic Mark" 282 675 basechar 0
LayerCount: 2
Fore
SplineSet
567 -23 m 1
 557 -34.3333333333 541.5 -42.1666666667 520.5 -46.5 c 128
 499.5 -50.8333333333 482 -53 468 -53 c 0
 443.333333333 -53 422.5 -47.6666666667 405.5 -37 c 128
 388.5 -26.3333333333 380 -7.33333333333 380 20 c 1
 231 3 l 2
 225.666666667 3 220.333333333 2.5 215 1.5 c 128
 209.666666667 0.5 204.666666667 0 200 0 c 0
 180 0 162.833333333 4.66666666667 148.5 14 c 128
 134.166666667 23.3333333333 127 39 127 61 c 0
 127 67.6666666667 128.333333333 75.6666666667 131 85 c 128
 133.666666667 94.3333333333 136.333333333 102 139 108 c 2
 257 386 l 1
 141 357 l 2
 135.666666667 355.666666667 130.5 354.5 125.5 353.5 c 128
 120.5 352.5 115.333333333 352 110 352 c 0
 96 352 84.1666666667 356.666666667 74.5 366 c 128
 64.8333333333 375.333333333 60 387 60 401 c 0
 60 433 60 433 60 464.5 c 128
 60 496 60 496 60 527 c 0
 60 535 58.6666666667 542.833333333 56 550.5 c 128
 53.3333333333 558.166666667 48 563.666666667 40 567 c 1
 40 584 l 1
 48.6666666667 586.666666667 62 590.666666667 80 596 c 128
 98 601.333333333 115.833333333 606.166666667 133.5 610.5 c 128
 151.166666667 614.833333333 163.333333333 617 170 617 c 0
 184 617 193.666666667 612.833333333 199 604.5 c 128
 204.333333333 596.166666667 207 585.333333333 207 572 c 0
 207 559.333333333 206.5 538 205.5 508 c 128
 204.5 478 204 446.333333333 204 413 c 1
 274 428 l 1
 296 475.333333333 311.5 510.166666667 320.5 532.5 c 128
 329.5 554.833333333 334 571.333333333 334 582 c 0
 334 587.333333333 333 592.5 331 597.5 c 128
 329 602.5 325.333333333 606 320 608 c 1
 320 620 l 1
 327 622 327 622 344.5 627 c 128
 362 632 362 632 383 638 c 128
 397 642 409.833333333 645.333333333 421.5 648 c 128
 433.166666667 650.666666667 441.666666667 652 447 652 c 0
 461.666666667 652 472.5 647.5 479.5 638.5 c 128
 486.5 629.5 490 618 490 604 c 0
 490 594.666666667 487.666666667 583.5 483 570.5 c 128
 478.333333333 557.5 474 547 470 539 c 2
 284 108 l 2
 282.666666667 104 281.333333333 99.8333333333 280 95.5 c 128
 278.666666667 91.1666666667 278 86.6666666667 278 82 c 0
 278 76 280 68.6666666667 284 60 c 128
 288 51.3333333333 293.666666667 47 301 47 c 0
 309 47 321.333333333 48 338 50 c 128
 354.666666667 52 370 53.6666666667 384 55 c 1
 399.333333333 79.6666666667 416 95.5 434 102.5 c 128
 452 109.5 475.333333333 113 504 113 c 0
 518 113 532.333333333 111.666666667 547 109 c 1
 542.333333333 101.666666667 539 91.6666666667 537 79 c 128
 535 66.3333333333 534 55.6666666667 534 47 c 0
 534 35 536.5 21.8333333333 541.5 7.5 c 128
 546.5 -6.83333333333 555 -17 567 -23 c 1
EndSplineSet
EndChar
StartChar: uni1204
Encoding: 4612 4612 6327
Width: 565
Flags: HW
AnchorPoint: "Ethiopic Mark" 256 686 basechar 0
LayerCount: 2
Fore
SplineSet
531 177 m 0
 531 154.333333333 524.666666667 136.166666667 512 122.5 c 128
 499.333333333 108.833333333 483.333333333 97.3333333333 464 88 c 0
 443.333333333 77.3333333333 421.666666667 69.6666666667 399 65 c 128
 376.333333333 60.3333333333 354 54.3333333333 332 47 c 0
 318 42.3333333333 301.833333333 36.3333333333 283.5 29 c 128
 265.166666667 21.6666666667 246.833333333 15 228.5 9 c 128
 210.166666667 3 193.666666667 0 179 0 c 0
 159 0 141.833333333 4.66666666667 127.5 14 c 128
 113.166666667 23.3333333333 106 39 106 61 c 0
 106 79.6666666667 110 97.6666666667 118 115 c 2
 242 372 l 1
 129 342 l 2
 124.333333333 340.666666667 119.333333333 339.5 114 338.5 c 128
 108.666666667 337.5 103.333333333 337 98 337 c 0
 82 337 70.5 341.5 63.5 350.5 c 128
 56.5 359.5 52.6666666667 371.333333333 52 386 c 2
 47 521 l 2
 47 529.666666667 45.8333333333 537.666666667 43.5 545 c 128
 41.1666666667 552.333333333 35.6666666667 557.666666667 27 561 c 1
 27 578 l 1
 36.3333333333 580.666666667 49.8333333333 584.5 67.5 589.5 c 128
 85.1666666667 594.5 102.666666667 599 120 603 c 128
 137.333333333 607 149.666666667 609 157 609 c 0
 179.666666667 609 191 596.666666667 191 572 c 0
 191 529 191 529 191 485 c 128
 191 441 191 441 191 397 c 1
 257 413 l 1
 306 521 l 2
 309.333333333 527.666666667 312.666666667 536.333333333 316 547 c 128
 319.333333333 557.666666667 321 567 321 575 c 0
 321 580.333333333 320 585.5 318 590.5 c 128
 316 595.5 312.333333333 599.333333333 307 602 c 1
 307 612 l 1
 315 614 327.833333333 617.833333333 345.5 623.5 c 128
 363.166666667 629.166666667 380.5 634.333333333 397.5 639 c 128
 414.5 643.666666667 426.666666667 646 434 646 c 0
 448.666666667 646 459.5 641.5 466.5 632.5 c 128
 473.5 623.5 477 612 477 598 c 0
 477 587.333333333 474.833333333 575.833333333 470.5 563.5 c 128
 466.166666667 551.166666667 461.666666667 540.333333333 457 531 c 2
 307 234 l 1
 328.333333333 239.333333333 350.333333333 244.5 373 249.5 c 128
 395.666666667 254.5 418 257 440 257 c 0
 467.333333333 257 489.333333333 250.833333333 506 238.5 c 128
 522.666666667 226.166666667 531 205.666666667 531 177 c 0
393 163 m 0
 393 177 390.666666667 187.333333333 386 194 c 128
 381.333333333 200.666666667 371.333333333 204 356 204 c 0
 345.333333333 204 333.166666667 201.833333333 319.5 197.5 c 128
 305.833333333 193.166666667 294 189 284 185 c 1
 276.666666667 169.666666667 269.166666667 154 261.5 138 c 128
 253.833333333 122 250 109.333333333 250 100 c 0
 250 90 253.333333333 83 260 79 c 128
 266.666666667 75 274.333333333 73 283 73 c 0
 299.666666667 73 316.5 76.6666666667 333.5 84 c 128
 350.5 91.3333333333 364.666666667 101.666666667 376 115 c 128
 387.333333333 128.333333333 393 144.333333333 393 163 c 0
EndSplineSet
EndChar
StartChar: uni1207
Encoding: 4615 4615 6330
Width: 883
Flags: HW
AnchorPoint: "Ethiopic Mark" 448 659 basechar 0
LayerCount: 2
Fore
SplineSet
883 526 m 0
 883 502 877 481.666666667 865 465 c 128
 853 448.333333333 837.333333333 434.833333333 818 424.5 c 128
 798.666666667 414.166666667 777.833333333 406.5 755.5 401.5 c 128
 733.166666667 396.5 711.666666667 394 691 394 c 0
 685 394 679 394.166666667 673 394.5 c 128
 667 394.833333333 661 395.333333333 655 396 c 1
 640 235 l 2
 636 187.666666667 622.5 146.333333333 599.5 111 c 128
 576.5 75.6666666667 546.5 48.3333333333 509.5 29 c 128
 472.5 9.66666666667 430 0 382 0 c 0
 347.333333333 0 319.5 7.66666666667 298.5 23 c 128
 277.5 38.3333333333 262.333333333 58.8333333333 253 84.5 c 128
 243.666666667 110.166666667 239 138.666666667 239 170 c 0
 239 178.666666667 239.833333333 192.166666667 241.5 210.5 c 128
 243.166666667 228.833333333 245.166666667 248.833333333 247.5 270.5 c 128
 249.833333333 292.166666667 252 311.666666667 254 329 c 1
 199 320 l 1
 197 281.333333333 185.333333333 247.833333333 164 219.5 c 128
 142.666666667 191.166666667 111 177 69 177 c 0
 62.3333333333 177 55 177.666666667 47 179 c 128
 39 180.333333333 32.3333333333 183 27 187 c 1
 37.6666666667 195 44.6666666667 206.5 48 221.5 c 128
 51.3333333333 236.5 53 250 53 262 c 0
 53 273.333333333 51.6666666667 285.666666667 49 299 c 128
 46.3333333333 312.333333333 42.3333333333 324 37 334 c 1
 258 365 l 1
 259.333333333 378.333333333 260.833333333 392 262.5 406 c 128
 264.166666667 420 265 433.666666667 265 447 c 0
 265 457 262.833333333 466.833333333 258.5 476.5 c 128
 254.166666667 486.166666667 247 492.333333333 237 495 c 1
 237 507 l 1
 243.666666667 509 253.166666667 511.666666667 265.5 515 c 128
 277.833333333 518.333333333 290.833333333 521.833333333 304.5 525.5 c 128
 318.166666667 529.166666667 330.666666667 532.166666667 342 534.5 c 128
 353.333333333 536.833333333 361.666666667 538 367 538 c 0
 380.333333333 538 388.666666667 533.166666667 392 523.5 c 128
 395.333333333 513.833333333 397 503.666666667 397 493 c 0
 397 485 396 469 394 445 c 128
 392 421 389.5 392.666666667 386.5 360 c 128
 383.5 327.333333333 380.5 294.5 377.5 261.5 c 128
 374.5 228.5 372 198.833333333 370 172.5 c 128
 368 146.166666667 367 127.666666667 367 117 c 0
 367 96.3333333333 371.666666667 78.3333333333 381 63 c 128
 390.333333333 47.6666666667 406.333333333 40 429 40 c 0
 447.666666667 40 462 47 472 61 c 128
 482 75 489.333333333 91.1666666667 494 109.5 c 128
 498.666666667 127.833333333 501.666666667 144 503 158 c 0
 505 176 507.166666667 198 509.5 224 c 128
 511.833333333 250 514.333333333 276.833333333 517 304.5 c 128
 519.666666667 332.166666667 522 358.5 524 383.5 c 128
 526 408.5 527.666666667 429.666666667 529 447 c 128
 530.333333333 464.333333333 531 475 531 479 c 0
 531 485.666666667 530 494.166666667 528 504.5 c 128
 526 514.833333333 522.833333333 524.166666667 518.5 532.5 c 128
 514.166666667 540.833333333 507.666666667 546.333333333 499 549 c 1
 499 565 l 1
 541 574.333333333 585.166666667 583.833333333 631.5 593.5 c 128
 677.833333333 603.166666667 718.333333333 611.666666667 753 619 c 0
 760.333333333 620.333333333 768.333333333 621.833333333 777 623.5 c 128
 785.666666667 625.166666667 793 626 799 626 c 0
 829 626 850.5 616.333333333 863.5 597 c 128
 876.5 577.666666667 883 554 883 526 c 0
744 517 m 0
 744 530.333333333 740.833333333 542 734.5 552 c 128
 728.166666667 562 717.666666667 567 703 567 c 0
 690.333333333 567 681.333333333 562.833333333 676 554.5 c 128
 670.666666667 546.166666667 667.5 536.5 666.5 525.5 c 128
 665.5 514.5 664.333333333 504 663 494 c 2
 657 426 l 1
 684.333333333 426 705.666666667 434.5 721 451.5 c 128
 736.333333333 468.5 744 490.333333333 744 517 c 0
EndSplineSet
EndChar
StartChar: uni1208
Encoding: 4616 4616 6331
Width: 565
Flags: HW
AnchorPoint: "Ethiopic Mark" 264 682 basechar 0
LayerCount: 2
Fore
SplineSet
525 20 m 1
 421 3 l 2
 415.666666667 2.33333333333 411.666666667 2 409 2 c 0
 385 2 368.833333333 14 360.5 38 c 128
 352.166666667 62 346.666666667 90.3333333333 344 123 c 0
 342 151 340.5 179.333333333 339.5 208 c 128
 338.5 236.666666667 336.333333333 265 333 293 c 0
 330.333333333 314.333333333 326.166666667 336.5 320.5 359.5 c 128
 314.833333333 382.5 305.333333333 403 292 421 c 1
 259.333333333 395 234.833333333 366.333333333 218.5 335 c 128
 202.166666667 303.666666667 191.5 269.833333333 186.5 233.5 c 128
 181.5 197.166666667 179 159 179 119 c 0
 179 109 179.333333333 98.3333333333 180 87 c 128
 180.666666667 75.6666666667 183.333333333 65.3333333333 188 56 c 128
 192.666666667 46.6666666667 201 40 213 36 c 1
 213 21 l 1
 112 2 l 2
 106.666666667 1.33333333333 101 0.666666666667 95 0 c 0
 74.3333333333 0 61.1666666667 7.66666666667 55.5 23 c 128
 49.8333333333 38.3333333333 47 54.6666666667 47 72 c 0
 47 133.333333333 51.1666666667 189.833333333 59.5 241.5 c 128
 67.8333333333 293.166666667 84.5 341.666666667 109.5 387 c 128
 134.5 432.333333333 171.666666667 475.333333333 221 516 c 1
 180 591 l 1
 303 633 l 1
 349 529 l 1
 379 513.666666667 402 491.5 418 462.5 c 128
 434 433.5 445.666666667 401.333333333 453 366 c 128
 460.333333333 330.666666667 465.166666667 294.833333333 467.5 258.5 c 128
 469.833333333 222.166666667 472.333333333 188.166666667 475 156.5 c 128
 477.666666667 124.833333333 482.5 98.3333333333 489.5 77 c 128
 496.5 55.6666666667 508.333333333 42.6666666667 525 38 c 1
 525 20 l 1
EndSplineSet
EndChar
StartChar: uni1209
Encoding: 4617 4617 6332
Width: 772
Flags: HW
AnchorPoint: "Ethiopic Mark" 282 651 basechar 0
LayerCount: 2
Fore
SplineSet
748 297 m 1
 736 285 723.166666667 275.833333333 709.5 269.5 c 128
 695.833333333 263.166666667 680.333333333 260 663 260 c 0
 628.333333333 260 604 268.333333333 590 285 c 128
 576 301.666666667 567.333333333 326 564 358 c 1
 465 325 l 1
 467.666666667 307.666666667 469.666666667 290.333333333 471 273 c 128
 473 247 473 247 475 221 c 0
 475.666666667 210.333333333 476.5 195.666666667 477.5 177 c 128
 478.5 158.333333333 480.666666667 139 484 119 c 128
 487.333333333 99 492.666666667 81.3333333333 500 66 c 128
 507.333333333 50.6666666667 517.333333333 41.3333333333 530 38 c 1
 530 20 l 1
 426 3 l 2
 420.666666667 2.33333333333 416.666666667 2 414 2 c 0
 388 2 370.5 17.8333333333 361.5 49.5 c 128
 352.5 81.1666666667 347 123.666666667 345 177 c 0
 345 195 344.333333333 213 343 231 c 128
 341.666666667 249 340 267 338 285 c 0
 336 307.666666667 332 331.333333333 326 356 c 128
 320 380.666666667 310.333333333 402.333333333 297 421 c 1
 264.333333333 395 239.833333333 366.333333333 223.5 335 c 128
 207.166666667 303.666666667 196.5 269.833333333 191.5 233.5 c 128
 186.5 197.166666667 184 159 184 119 c 0
 184 109 184.333333333 98.3333333333 185 87 c 128
 185.666666667 75.6666666667 188.333333333 65.3333333333 193 56 c 128
 197.666666667 46.6666666667 206 40 218 36 c 1
 218 21 l 1
 117 2 l 2
 109 1 109 1 101 0 c 0
 79.6666666667 0 66.1666666667 7.66666666667 60.5 23 c 128
 54.8333333333 38.3333333333 52 54.6666666667 52 72 c 0
 52 133.333333333 56.3333333333 189.833333333 65 241.5 c 128
 73.6666666667 293.166666667 90.3333333333 341.666666667 115 387 c 128
 139.666666667 432.333333333 176.666666667 475.333333333 226 516 c 1
 185 591 l 1
 308 633 l 1
 354 529 l 1
 386 513 409.666666667 489.666666667 425 459 c 128
 440.333333333 428.333333333 451.666666667 396.333333333 459 363 c 1
 706 440 l 1
 702.666666667 434.666666667 700.333333333 427 699 417 c 128
 697.666666667 407 697 399.333333333 697 394 c 0
 697 352.666666667 714 320.333333333 748 297 c 1
EndSplineSet
EndChar
StartChar: uni120C
Encoding: 4620 4620 6335
Width: 720
Flags: HW
AnchorPoint: "Ethiopic Mark" 264 655 basechar 0
LayerCount: 2
Fore
SplineSet
679 163 m 0
 679 133.666666667 673.5 111.833333333 662.5 97.5 c 128
 651.5 83.1666666667 637 73.1666666667 619 67.5 c 128
 601 61.8333333333 581.5 57.3333333333 560.5 54 c 128
 539.5 50.6666666667 519.333333333 45.3333333333 500 38 c 0
 484 32 467.5 24.1666666667 450.5 14.5 c 128
 433.5 4.83333333333 416.333333333 0 399 0 c 0
 375.666666667 0 359 7 349 21 c 128
 339 35 332.833333333 53.5 330.5 76.5 c 128
 328.166666667 99.5 327 123.666666667 327 149 c 2
 327 203 l 2
 327 239.666666667 324.833333333 277.666666667 320.5 317 c 128
 316.166666667 356.333333333 303.333333333 392 282 424 c 1
 256.666666667 404 236.666666667 377.333333333 222 344 c 128
 207.333333333 310.666666667 196.666666667 275.833333333 190 239.5 c 128
 183.333333333 203.166666667 180 169.333333333 180 138 c 0
 180 121.333333333 182 106.166666667 186 92.5 c 128
 190 78.8333333333 201 69 219 63 c 1
 219 48 l 1
 191 36 164.833333333 25 140.5 15 c 128
 116.166666667 5 99.6666666667 0 91 -0 c 0
 77 0 67 5.5 61 16.5 c 128
 55 27.5 51.1666666667 40 49.5 54 c 128
 47.8333333333 68 47 80 47 90 c 0
 47 116.666666667 48.6666666667 146.333333333 52 179 c 128
 55.3333333333 211.666666667 61 245 69 279 c 128
 77 313 87.6666666667 345.333333333 101 376 c 128
 114.333333333 406.666666667 131.166666667 434 151.5 458 c 128
 171.833333333 482 196 499.666666667 224 511 c 1
 176 587 l 1
 294 633 l 1
 349 529 l 1
 372.333333333 515 391.333333333 496.333333333 406 473 c 128
 420.666666667 449.666666667 432 424.166666667 440 396.5 c 128
 448 368.833333333 453.666666667 340.833333333 457 312.5 c 128
 460.333333333 284.166666667 462.666666667 257.666666667 464 233 c 1
 485.333333333 238.333333333 507.166666667 246.333333333 529.5 257 c 128
 551.833333333 267.666666667 573.666666667 273 595 273 c 0
 613.666666667 273 629.333333333 267.166666667 642 255.5 c 128
 654.666666667 243.833333333 664 229.5 670 212.5 c 128
 676 195.5 679 179 679 163 c 0
549 136 m 0
 549 156 545.666666667 172 539 184 c 128
 532.333333333 196 517.666666667 202 495 202 c 0
 484.333333333 202 474.666666667 200.333333333 466 197 c 1
 466.666666667 180.333333333 466.666666667 163.666666667 466 147 c 128
 465.333333333 130.333333333 465 113.333333333 465 96 c 0
 465 88.6666666667 468.833333333 82.8333333333 476.5 78.5 c 128
 484.166666667 74.1666666667 491.333333333 72 498 72 c 0
 514.666666667 72 527.333333333 79 536 93 c 128
 544.666666667 107 549 121.333333333 549 136 c 0
EndSplineSet
EndChar
StartChar: uni120D
Encoding: 4621 4621 6336
Width: 740
Flags: HW
AnchorPoint: "Ethiopic Mark" 290 640 basechar 0
LayerCount: 2
Fore
SplineSet
696 35 m 1
 683.333333333 31 668.333333333 26.1666666667 651 20.5 c 128
 633.666666667 14.8333333333 617.666666667 9.83333333333 603 5.5 c 128
 588.333333333 1.16666666667 578.666666667 -1 574 -1 c 0
 556.666666667 -1 542 7.5 530 24.5 c 128
 518 41.5 507.5 64 498.5 92 c 128
 489.5 120 480.666666667 150.5 472 183.5 c 128
 463.333333333 216.5 453.666666667 249.166666667 443 281.5 c 128
 432.333333333 313.833333333 418.833333333 342.833333333 402.5 368.5 c 128
 386.166666667 394.166666667 366.333333333 413.333333333 343 426 c 1
 301 407.333333333 267.166666667 378.166666667 241.5 338.5 c 128
 215.833333333 298.833333333 199.666666667 256.666666667 193 212 c 1
 225 226 251.666666667 236.333333333 273 243 c 128
 294.333333333 249.666666667 315.333333333 253 336 253 c 0
 358.666666667 253 373.833333333 245.333333333 381.5 230 c 128
 389.166666667 214.666666667 393 197.333333333 393 178 c 0
 393 159.333333333 387.666666667 141.666666667 377 125 c 128
 366.333333333 108.333333333 353 95.3333333333 337 86 c 0
 327.666666667 80.6666666667 315.333333333 76.6666666667 300 74 c 128
 284.666666667 71.3333333333 269.5 69 254.5 67 c 128
 239.5 65 227.666666667 62 219 58 c 0
 210.333333333 54 199.333333333 47.8333333333 186 39.5 c 128
 172.666666667 31.1666666667 158.5 23.6666666667 143.5 17 c 128
 128.5 10.3333333333 114 7 100 7 c 0
 78.6666666667 7 64.5 12.8333333333 57.5 24.5 c 128
 50.5 36.1666666667 47 52 47 72 c 0
 47 165.333333333 65.3333333333 247.333333333 102 318 c 128
 138.666666667 388.666666667 192.666666667 453.333333333 264 512 c 1
 210 573 l 1
 319 633 l 1
 394 536 l 1
 432 518 463 493.666666667 487 463 c 128
 511 432.333333333 530.666666667 398.666666667 546 362 c 128
 561.333333333 325.333333333 574.166666667 288.833333333 584.5 252.5 c 128
 594.833333333 216.166666667 604.5 182.666666667 613.5 152 c 128
 622.5 121.333333333 633.5 97 646.5 79 c 128
 659.5 61 676 52 696 52 c 1
 696 35 l 1
267 146 m 0
 267 176.666666667 252.333333333 192 223 192 c 0
 217.666666667 192 211.5 191.666666667 204.5 191 c 128
 197.5 190.333333333 191.666666667 189 187 187 c 1
 185 176.333333333 183.333333333 165.666666667 182 155 c 128
 180.666666667 144.333333333 180 133.666666667 180 123 c 0
 180 113 183 104.333333333 189 97 c 128
 195 89.6666666667 203.333333333 86 214 86 c 0
 228 86 240.333333333 92.6666666667 251 106 c 128
 261.666666667 119.333333333 267 132.666666667 267 146 c 0
EndSplineSet
EndChar
StartChar: uni120E
Encoding: 4622 4622 6337
Width: 859
Flags: HW
AnchorPoint: "Ethiopic Mark" 271 648 basechar 0
LayerCount: 2
Fore
SplineSet
834 373 m 0
 834 351.666666667 828.5 334.333333333 817.5 321 c 128
 806.5 307.666666667 791.333333333 297.333333333 772 290 c 0
 759.333333333 285.333333333 745.833333333 282.666666667 731.5 282 c 128
 717.166666667 281.333333333 703.666666667 279.666666667 691 277 c 0
 677.666666667 274.333333333 664.166666667 271 650.5 267 c 128
 636.833333333 263 623 261 609 261 c 0
 573.666666667 261 548.833333333 271.166666667 534.5 291.5 c 128
 520.166666667 311.833333333 513 338.333333333 513 371 c 0
 513 375 513.166666667 379 513.5 383 c 128
 513.833333333 387 514 391 514 395 c 1
 450 378 l 1
 454.666666667 359.333333333 458.333333333 340.5 461 321.5 c 128
 463.666666667 302.5 465.666666667 283.333333333 467 264 c 0
 468.333333333 250 469.5 236.166666667 470.5 222.5 c 128
 471.5 208.833333333 472.666666667 195.333333333 474 182 c 0
 474.666666667 172.666666667 475.666666667 160.666666667 477 146 c 128
 478.333333333 131.333333333 480.5 116.333333333 483.5 101 c 128
 486.5 85.6666666667 491.333333333 72.1666666667 498 60.5 c 128
 504.666666667 48.8333333333 513.666666667 41.3333333333 525 38 c 1
 525 20 l 1
 421 3 l 2
 415.666666667 2.33333333333 411.666666667 2 409 2 c 0
 389.666666667 2 375.333333333 10.5 366 27.5 c 128
 356.666666667 44.5 350.333333333 66.3333333333 347 93 c 128
 343.666666667 119.666666667 341.333333333 147.666666667 340 177 c 0
 339.333333333 195 338.5 213 337.5 231 c 128
 336.5 249 335 267 333 285 c 0
 331 307.666666667 327 331.333333333 321 356 c 128
 315 380.666666667 305.333333333 402.333333333 292 421 c 1
 259.333333333 395 234.833333333 366.333333333 218.5 335 c 128
 202.166666667 303.666666667 191.5 269.833333333 186.5 233.5 c 128
 181.5 197.166666667 179 159 179 119 c 0
 179 109 179.333333333 98.3333333333 180 87 c 128
 180.666666667 75.6666666667 183.333333333 65.3333333333 188 56 c 128
 192.666666667 46.6666666667 201 40 213 36 c 1
 213 21 l 1
 112 2 l 2
 106.666666667 1.33333333333 101 0.666666666667 95 0 c 0
 74.3333333333 0 61.1666666667 7.66666666667 55.5 23 c 128
 49.8333333333 38.3333333333 47 54.6666666667 47 72 c 0
 47 133.333333333 51.1666666667 189.833333333 59.5 241.5 c 128
 67.8333333333 293.166666667 84.5 341.666666667 109.5 387 c 128
 134.5 432.333333333 171.666666667 475.333333333 221 516 c 1
 180 591 l 1
 303 633 l 1
 349 529 l 1
 373 516.333333333 392.333333333 499.833333333 407 479.5 c 128
 421.666666667 459.166666667 433 436.333333333 441 411 c 1
 453.666666667 414.333333333 466.333333333 417.5 479 420.5 c 128
 491.666666667 423.5 504 426.666666667 516 430 c 0
 526.666666667 432.666666667 537 436 547 440 c 128
 557 444 567.333333333 447 578 449 c 0
 592 451.666666667 605.833333333 453.666666667 619.5 455 c 128
 633.166666667 456.333333333 646.666666667 458.333333333 660 461 c 256
 673.333333333 463.666666667 686.333333333 467 699 471 c 128
 711.666666667 475 725 477 739 477 c 0
 771 477 794.833333333 467.166666667 810.5 447.5 c 128
 826.166666667 427.833333333 834 403 834 373 c 0
701 333 m 0
 701 341 700 352.5 698 367.5 c 128
 696 382.5 692.166666667 396.166666667 686.5 408.5 c 128
 680.833333333 420.833333333 672 427 660 427 c 0
 653.333333333 427 648.333333333 424.333333333 645 419 c 128
 641.666666667 413.666666667 640 408 640 402 c 0
 640 394.666666667 641 383.5 643 368.5 c 128
 645 353.5 649 339.833333333 655 327.5 c 128
 661 315.166666667 669 309 679 309 c 0
 686.333333333 309 691.833333333 311.333333333 695.5 316 c 128
 699.166666667 320.666666667 701 326.333333333 701 333 c 0
EndSplineSet
EndChar
StartChar: uni120F
Encoding: 4623 4623 6338
Width: 706
Flags: HW
AnchorPoint: "Ethiopic Mark" 239 690 basechar 0
LayerCount: 2
Fore
SplineSet
670 -37 m 1
 664.666666667 -42.3333333333 656.833333333 -46 646.5 -48 c 128
 636.166666667 -50 627.666666667 -51 621 -51 c 0
 589 -51 562 -42.5 540 -25.5 c 128
 518 -8.5 506.333333333 17 505 51 c 1
 251 35 l 1
 251.666666667 30.3333333333 252 25.6666666667 252 21 c 0
 252 -0.333333333333 245.333333333 -18.5 232 -33.5 c 128
 218.666666667 -48.5 202.166666667 -60 182.5 -68 c 128
 162.833333333 -76 143.666666667 -80 125 -80 c 0
 118.333333333 -80 111.666666667 -79.8333333333 105 -79.5 c 128
 98.3333333333 -79.1666666667 91.6666666667 -78.6666666667 85 -78 c 1
 93.6666666667 -64.6666666667 99.6666666667 -47 103 -25 c 128
 106.333333333 -3 108 15.6666666667 108 31 c 0
 108 41 106 51.3333333333 102 62 c 1
 316 75 l 1
 310 87 306 101.833333333 304 119.5 c 128
 302 137.166666667 300.833333333 155 300.5 173 c 128
 300.166666667 191 300 206.666666667 300 220 c 0
 300 246 299.666666667 275.333333333 299 308 c 128
 298.333333333 340.666666667 295.166666667 372.833333333 289.5 404.5 c 128
 283.833333333 436.166666667 273 462.666666667 257 484 c 1
 227 456.666666667 206.166666667 426.666666667 194.5 394 c 128
 182.833333333 361.333333333 177 325 177 285 c 0
 177 279.666666667 177.666666667 273.166666667 179 265.5 c 128
 180.333333333 257.833333333 183 252.333333333 187 249 c 1
 187 236 l 1
 174.333333333 234 158 231 138 227 c 128
 118 223 102 221 90 221 c 0
 70 221 57.8333333333 228.5 53.5 243.5 c 128
 49.1666666667 258.5 47 274 47 290 c 0
 47 352.666666667 59.1666666667 407.166666667 83.5 453.5 c 128
 107.833333333 499.833333333 148 539 204 571 c 1
 163 640 l 1
 283 681 l 1
 336 574 l 1
 362.666666667 555.333333333 382.833333333 531.333333333 396.5 502 c 128
 410.166666667 472.666666667 419.5 440.666666667 424.5 406 c 128
 429.5 371.333333333 432.333333333 336.5 433 301.5 c 128
 433.666666667 266.5 434.166666667 233.833333333 434.5 203.5 c 128
 434.833333333 173.166666667 436.833333333 147.333333333 440.5 126 c 128
 444.166666667 104.666666667 452 90.3333333333 464 83 c 1
 657 95 l 1
 653 80.3333333333 651 64 651 46 c 0
 651 39.3333333333 651.5 30.5 652.5 19.5 c 128
 653.5 8.5 655.5 -2.33333333333 658.5 -13 c 128
 661.5 -23.6666666667 665.333333333 -31.6666666667 670 -37 c 1
EndSplineSet
EndChar
StartChar: uni1211
Encoding: 4625 4625 6340
Width: 973
Flags: HW
AnchorPoint: "Ethiopic Mark" 444 622 basechar 0
LayerCount: 2
Fore
SplineSet
949 145 m 1
 937 133 923 124.833333333 907 120.5 c 128
 891 116.166666667 875 114 859 114 c 0
 832.333333333 114 811.666666667 120 797 132 c 128
 782.333333333 144 775 163.666666667 775 191 c 0
 775 200.333333333 775.666666667 209 777 217 c 1
 720 205 l 1
 730 78 l 2
 730.666666667 66 732.833333333 55.8333333333 736.5 47.5 c 128
 740.166666667 39.1666666667 747.666666667 32 759 26 c 1
 759 14 l 1
 747 12 732.666666667 10 716 8 c 128
 699.333333333 6 683.833333333 4.16666666667 669.5 2.5 c 128
 655.166666667 0.833333333333 645 0 639 0 c 0
 623.666666667 0 611.833333333 3.5 603.5 10.5 c 128
 595.166666667 17.5 590.666666667 29 590 45 c 2
 579 239 l 2
 577.666666667 267.666666667 567.833333333 288.166666667 549.5 300.5 c 128
 531.166666667 312.833333333 508.666666667 319 482 319 c 1
 453 111 l 2
 451 97.6666666667 450 84.3333333333 450 71 c 0
 450 59.6666666667 453.166666667 49.6666666667 459.5 41 c 128
 465.833333333 32.3333333333 475 27.6666666667 487 27 c 1
 487 11 l 1
 473 9.66666666667 457.5 8.16666666667 440.5 6.5 c 128
 423.5 4.83333333333 407.666666667 3.33333333333 393 2 c 128
 378.333333333 0.666666666667 367 0 359 0 c 0
 347 0 335.166666667 2 323.5 6 c 128
 311.833333333 10 306 19.3333333333 306 34 c 0
 306 40.6666666667 307 52.3333333333 309 69 c 128
 311 85.6666666667 312.333333333 98.3333333333 313 107 c 2
 342 295 l 1
 314 293.666666667 290.833333333 286.666666667 272.5 274 c 128
 254.166666667 261.333333333 239.666666667 244.833333333 229 224.5 c 128
 218.333333333 204.166666667 210.833333333 182 206.5 158 c 128
 202.166666667 134 200 110.333333333 200 87 c 0
 200 72.3333333333 201.166666667 59.6666666667 203.5 49 c 128
 205.833333333 38.3333333333 211.333333333 32.3333333333 220 31 c 1
 220 15 l 1
 122 2 l 2
 111 1 111 1 100 0 c 0
 80.6666666667 0 67 5 59 15 c 128
 51 25 47 39.3333333333 47 58 c 0
 47 120.666666667 59.6666666667 172.333333333 85 213 c 128
 110.333333333 253.666666667 145.5 284 190.5 304 c 128
 235.5 324 288 334 348 334 c 1
 356 389.333333333 362.333333333 434.5 367 469.5 c 128
 371.666666667 504.5 374 526 374 534 c 0
 374 553.333333333 365 565.666666667 347 571 c 1
 347 588 l 1
 455 604 l 2
 465.666666667 605.333333333 476.333333333 606 487 606 c 0
 496.333333333 606 503.833333333 604.333333333 509.5 601 c 128
 515.166666667 597.666666667 518 591 518 581 c 0
 518 575.666666667 516.833333333 564.833333333 514.5 548.5 c 128
 512.166666667 532.166666667 510.333333333 518.333333333 509 507 c 2
 487 353 l 1
 509 356.333333333 532.833333333 360.5 558.5 365.5 c 128
 584.166666667 370.5 605.666666667 373 623 373 c 0
 649 373 668.333333333 366.5 681 353.5 c 128
 693.666666667 340.5 702.5 324 707.5 304 c 128
 712.5 284 716 263.666666667 718 243 c 1
 924 288 l 1
 920 281.333333333 917 273 915 263 c 128
 913 253 912 244.333333333 912 237 c 0
 912 217 913.666666667 199.833333333 917 185.5 c 128
 920.333333333 171.166666667 931 157.666666667 949 145 c 1
EndSplineSet
EndChar
StartChar: uni1214
Encoding: 4628 4628 6343
Width: 959
Flags: HW
AnchorPoint: "Ethiopic Mark" 438 629 basechar 0
LayerCount: 2
Fore
SplineSet
920 109 m 0
 920 86.3333333333 913.5 68 900.5 54 c 128
 887.5 40 871.333333333 29.6666666667 852 23 c 128
 832.666666667 16.3333333333 813.333333333 13 794 13 c 2
 742 13 l 2
 725.333333333 13 708.666666667 10.8333333333 692 6.5 c 128
 675.333333333 2.16666666667 658.333333333 0 641 0 c 0
 625.666666667 0 613.5 3.5 604.5 10.5 c 128
 595.5 17.5 590.666666667 29 590 45 c 2
 579 239 l 2
 577.666666667 267.666666667 567.833333333 288.166666667 549.5 300.5 c 128
 531.166666667 312.833333333 508.666666667 319 482 319 c 1
 453 111 l 2
 451 97.6666666667 450 84.3333333333 450 71 c 0
 450 59 453.166666667 48.8333333333 459.5 40.5 c 128
 465.833333333 32.1666666667 475 27.6666666667 487 27 c 1
 487 11 l 1
 466.333333333 9 443.166666667 6.66666666667 417.5 4 c 128
 391.833333333 1.33333333333 372.333333333 0 359 0 c 0
 347 0 335.166666667 2 323.5 6 c 128
 311.833333333 10 306 19.3333333333 306 34 c 0
 306 40.6666666667 306.833333333 50.6666666667 308.5 64 c 0
 309.5 77.3333333333 310.666666667 88.3333333333 312 97 c 2
 342 295 l 1
 314 293.666666667 290.833333333 286.666666667 272.5 274 c 128
 254.166666667 261.333333333 239.666666667 244.833333333 229 224.5 c 128
 218.333333333 204.166666667 210.833333333 182 206.5 158 c 128
 202.166666667 134 200 110.333333333 200 87 c 0
 200 51 206.666666667 32.3333333333 220 31 c 1
 220 15 l 1
 122 2 l 2
 111 1 111 1 100 0 c 0
 80.6666666667 0 67 5 59 15 c 128
 51 25 47 39.3333333333 47 58 c 0
 47 120.666666667 59.6666666667 172.333333333 85 213 c 128
 110.333333333 253.666666667 145.5 284 190.5 304 c 128
 235.5 324 288 334 348 334 c 1
 350 350 352.5 368.333333333 355.5 389 c 128
 360 420 360 420 364.5 451 c 128
 367.5 471.666666667 369.833333333 489.5 371.5 504.5 c 128
 373.166666667 519.5 374 529.333333333 374 534 c 0
 374 553.333333333 365 565.666666667 347 571 c 1
 347 588 l 1
 450 603 l 2
 453.333333333 603.666666667 458.833333333 604.333333333 466.5 605 c 128
 474.166666667 605.666666667 479.333333333 606 482 606 c 0
 506 606 518 597.666666667 518 581 c 0
 518 575 517 564 515 548 c 128
 513 532 511 518.333333333 509 507 c 2
 487 353 l 1
 509 357 533.333333333 361.333333333 560 366 c 128
 586.666666667 370.666666667 607.666666667 373 623 373 c 0
 644.333333333 373 661.333333333 367.833333333 674 357.5 c 128
 686.666666667 347.166666667 696.166666667 333.666666667 702.5 317 c 128
 708.833333333 300.333333333 713 282.666666667 715 264 c 2
 722 186 l 1
 740 186.666666667 757.833333333 189.166666667 775.5 193.5 c 128
 793.166666667 197.833333333 811.333333333 200 830 200 c 0
 890 200 920 169.666666667 920 109 c 0
787 99 m 0
 787 111.666666667 784 124 778 136 c 128
 772 148 761.666666667 154 747 154 c 0
 741 154 741 154 735.5 154 c 128
 731.833333333 154 728 153.666666667 724 153 c 1
 724.666666667 140.333333333 725.5 127.833333333 726.5 115.5 c 128
 727.5 103.166666667 728 90.6666666667 728 78 c 0
 728 70 729.333333333 62.6666666667 732 56 c 128
 734.666666667 49.3333333333 741 46 751 46 c 0
 763.666666667 46 772.833333333 52.3333333333 778.5 65 c 128
 784.166666667 77.6666666667 787 89 787 99 c 0
EndSplineSet
EndChar
StartChar: uni1216
Encoding: 4630 4630 6345
Width: 792
Flags: HW
AnchorPoint: "Ethiopic Mark" 449 627 basechar 0
LayerCount: 2
Fore
SplineSet
752 133 m 1
 740 131.666666667 725.666666667 130 709 128 c 128
 692.333333333 126 676.666666667 124.166666667 662 122.5 c 128
 647.333333333 120.833333333 636.666666667 120 630 120 c 0
 614.666666667 120 603 123.333333333 595 130 c 128
 587 136.666666667 582.666666667 148 582 164 c 0
 582 176.666666667 581.666666667 189.166666667 581 201.5 c 128
 580.333333333 213.833333333 579.666666667 226.333333333 579 239 c 0
 577.666666667 271 568.166666667 291.5 550.5 300.5 c 128
 532.833333333 309.5 509.666666667 314 481 314 c 1
 479 294.666666667 476 273.166666667 472 249.5 c 128
 468 225.833333333 466 204 466 184 c 0
 466 173.333333333 468.666666667 163.333333333 474 154 c 128
 479.333333333 144.666666667 488 139.333333333 500 138 c 1
 500 122 l 1
 409 115 l 2
 403 115 397.166666667 114.666666667 391.5 114 c 128
 385.833333333 113.333333333 380.333333333 113 375 113 c 0
 363 113 351.166666667 115 339.5 119 c 128
 327.833333333 123 322 132.333333333 322 147 c 0
 322 156.333333333 322.833333333 165.5 324.5 174.5 c 128
 326.166666667 183.5 327.666666667 192.666666667 329 202 c 2
 342 295 l 1
 314 293.666666667 290.833333333 286.666666667 272.5 274 c 128
 254.166666667 261.333333333 239.666666667 244.833333333 229 224.5 c 128
 218.333333333 204.166666667 210.833333333 182 206.5 158 c 128
 202.166666667 134 200 110.333333333 200 87 c 0
 200 73 201.166666667 60.5 203.5 49.5 c 128
 205.833333333 38.5 211.333333333 32.3333333333 220 31 c 1
 220 15 l 1
 122 2 l 2
 111 1 111 1 100 0 c 0
 80.6666666667 0 67 5 59 15 c 128
 51 25 47 39.3333333333 47 58 c 0
 47 120.666666667 59.6666666667 172.333333333 85 213 c 128
 110.333333333 253.666666667 145.5 284 190.5 304 c 128
 235.5 324 288 334 348 334 c 1
 350 350 352.5 368.333333333 355.5 389 c 128
 358.5 409.666666667 361.5 430.166666667 364.5 450.5 c 128
 367.5 470.833333333 369.833333333 488.666666667 371.5 504 c 128
 373.166666667 519.333333333 374 529.333333333 374 534 c 0
 374 553.333333333 365 565.666666667 347 571 c 1
 347 588 l 1
 457 603 l 2
 461.666666667 603.666666667 466.5 604.333333333 471.5 605 c 128
 476.5 605.666666667 481.666666667 606 487 606 c 0
 496.333333333 606 503.833333333 604.333333333 509.5 601 c 128
 515.166666667 597.666666667 518 591 518 581 c 0
 518 575.666666667 516.833333333 564.833333333 514.5 548.5 c 128
 512.166666667 532.166666667 510.333333333 518.333333333 509 507 c 2
 487 353 l 1
 527.666666667 360.333333333 557.166666667 365.5 575.5 368.5 c 128
 593.833333333 371.5 609.666666667 373 623 373 c 0
 649.666666667 373 669.666666667 364.5 683 347.5 c 128
 696.333333333 330.5 705.333333333 308.5 710 281.5 c 128
 714.666666667 254.5 717.666666667 226.333333333 719 197 c 0
 719.666666667 173 730.666666667 155.666666667 752 145 c 1
 752 133 l 1
EndSplineSet
EndChar
StartChar: uni1221
Encoding: 4641 4641 6356
Width: 1000
Flags: HW
AnchorPoint: "Ethiopic Mark" 417 576 basechar 0
LayerCount: 2
Fore
SplineSet
974 310 m 1
 959.333333333 302 944.666666667 296.166666667 930 292.5 c 128
 915.333333333 288.833333333 899.333333333 287 882 287 c 0
 856 287 835.5 291.5 820.5 300.5 c 128
 805.5 309.5 793.333333333 327 784 353 c 1
 721 353 l 1
 715 341 707.666666667 330.166666667 699 320.5 c 128
 690.333333333 310.833333333 680.666666667 302 670 294 c 0
 660 286.666666667 648.833333333 281 636.5 277 c 128
 624.166666667 273 611.666666667 270 599 268 c 0
 595 268 590.833333333 267.833333333 586.5 267.5 c 128
 582.166666667 267.166666667 578 266 574 264 c 0
 570 262.666666667 566 260.5 562 257.5 c 128
 558 254.5 553.666666667 252 549 250 c 0
 527.666666667 239.333333333 506 234 484 234 c 0
 477.333333333 234 470 235.5 462 238.5 c 128
 454 241.5 447.666666667 245.666666667 443 251 c 1
 427 220.333333333 407.333333333 194.166666667 384 172.5 c 128
 360.666666667 150.833333333 330 140 292 140 c 0
 286.666666667 140 281.666666667 140.166666667 277 140.5 c 128
 272.333333333 140.833333333 267.333333333 141 262 141 c 0
 254.666666667 141 248.333333333 140.333333333 243 139 c 0
 237.666666667 138.333333333 232.166666667 136.5 226.5 133.5 c 128
 220.833333333 130.5 215.333333333 128.333333333 210 127 c 0
 185.333333333 118.333333333 159.333333333 114 132 114 c 0
 104 114 82.8333333333 121.666666667 68.5 137 c 128
 54.1666666667 152.333333333 47 173.666666667 47 201 c 0
 47 209 47.6666666667 217 49 225 c 128
 50.3333333333 233 52 240.666666667 54 248 c 2
 87 370 l 2
 89 377.333333333 91 385.666666667 93 395 c 128
 95 404.333333333 96 412 96 418 c 0
 96 424.666666667 94.8333333333 430.666666667 92.5 436 c 128
 90.1666666667 441.333333333 86 445.333333333 80 448 c 1
 80 470 l 1
 170 495 l 2
 175.333333333 496.333333333 181 497.333333333 187 498 c 128
 193 498.666666667 199 499 205 499 c 0
 217.666666667 499 226.5 496.5 231.5 491.5 c 128
 236.5 486.5 239 478 239 466 c 0
 239 456 238 445.833333333 236 435.5 c 128
 234 425.166666667 231.666666667 415.333333333 229 406 c 2
 193 259 l 2
 189.666666667 245 188 232 188 220 c 0
 188 203.333333333 192.333333333 192.333333333 201 187 c 128
 209.666666667 181.666666667 221.666666667 179 237 179 c 0
 255 179 269.5 184.166666667 280.5 194.5 c 128
 291.5 204.833333333 299 218.666666667 303 236 c 2
 344 392 l 2
 346 399.333333333 348 407.666666667 350 417 c 128
 352 426.333333333 353 433.666666667 353 439 c 0
 353 459 344.333333333 473.333333333 327 482 c 1
 327 498 l 1
 420 521 l 2
 424 521.666666667 428.166666667 522.666666667 432.5 524 c 128
 436.833333333 525.333333333 441.333333333 526 446 526 c 0
 462 526 473.833333333 520.833333333 481.5 510.5 c 128
 489.166666667 500.166666667 493 487.333333333 493 472 c 0
 493 456 490.833333333 436.666666667 486.5 414 c 128
 482.166666667 391.333333333 478.333333333 371.333333333 475 354 c 1
 479.666666667 335.333333333 486.833333333 320.5 496.5 309.5 c 128
 506.166666667 298.5 521.333333333 293 542 293 c 0
 561.333333333 293 575.833333333 300.833333333 585.5 316.5 c 128
 595.166666667 332.166666667 600 348.333333333 600 365 c 2
 600 454 l 2
 600 463.333333333 598 471.833333333 594 479.5 c 128
 590 487.166666667 583 492 573 494 c 1
 573 510 l 1
 664 535 l 2
 672.666666667 537.666666667 681.333333333 539 690 539 c 0
 704 539 714.666666667 532.5 722 519.5 c 128
 729.333333333 506.5 734.166666667 491.833333333 736.5 475.5 c 128
 738.833333333 459.166666667 740 446 740 436 c 0
 740 428 739.666666667 419.666666667 739 411 c 128
 738.333333333 402.333333333 736.666666667 394 734 386 c 1
 785 386 l 1
 794.333333333 408.666666667 809.833333333 424.333333333 831.5 433 c 128
 853.166666667 441.666666667 875.333333333 446 898 446 c 0
 906.666666667 446 916.666666667 445.166666667 928 443.5 c 128
 939.333333333 441.833333333 948.666666667 438.666666667 956 434 c 1
 952 426.666666667 947.666666667 417.833333333 943 407.5 c 128
 938.333333333 397.166666667 936 387.666666667 936 379 c 0
 936 366.333333333 939.833333333 353.5 947.5 340.5 c 128
 955.166666667 327.5 964 317.333333333 974 310 c 1
EndSplineSet
EndChar
StartChar: uni1225
Encoding: 4645 4645 6360
Width: 959
Flags: HW
AnchorPoint: "Ethiopic Mark" 621 632 basechar 0
LayerCount: 2
Fore
SplineSet
933 508 m 0
 933 482 927 457 915 433 c 0
 895.666666667 395.666666667 867.333333333 368.5 830 351.5 c 128
 792.666666667 334.5 753.666666667 326 713 326 c 0
 697.666666667 326 681.5 327.166666667 664.5 329.5 c 128
 647.5 331.833333333 633.666666667 339.666666667 623 353 c 1
 618.333333333 347 611.333333333 340 602 332 c 128
 592.666666667 324 582.833333333 316.5 572.5 309.5 c 128
 562.166666667 302.5 553.333333333 297.666666667 546 295 c 0
 536.666666667 291.666666667 527.166666667 289.5 517.5 288.5 c 128
 507.833333333 287.5 498.333333333 286 489 284 c 0
 477 281.333333333 464.833333333 278.833333333 452.5 276.5 c 128
 440.166666667 274.166666667 427.666666667 273 415 273 c 0
 403 273 390.333333333 274.833333333 377 278.5 c 128
 363.666666667 282.166666667 352 286.666666667 342 292 c 1
 208 84 l 2
 206 80 203.5 74.8333333333 200.5 68.5 c 128
 197.5 62.1666666667 196 56.6666666667 196 52 c 0
 196 44.6666666667 198.333333333 39 203 35 c 128
 207.666666667 31 213 28.3333333333 219 27 c 1
 219 11 l 1
 198.333333333 9 175.333333333 6.66666666667 150 4 c 128
 124.666666667 1.33333333333 105.333333333 0 92 0 c 0
 76.6666666667 0 65.3333333333 2.66666666667 58 8 c 128
 50.6666666667 13.3333333333 47 24.3333333333 47 41 c 0
 47 49.6666666667 48.6666666667 58.1666666667 52 66.5 c 128
 55.3333333333 74.8333333333 59.3333333333 82.6666666667 64 90 c 2
 290 433 l 2
 293.333333333 438.333333333 296.833333333 444.5 300.5 451.5 c 128
 304.166666667 458.5 306 465.666666667 306 473 c 0
 306 484.333333333 301.666666667 494 293 502 c 1
 293 515 l 1
 385 535 l 2
 389.666666667 535.666666667 395.333333333 536.666666667 402 538 c 128
 408.666666667 539.333333333 414.333333333 540 419 540 c 0
 427 540 432.833333333 536.833333333 436.5 530.5 c 128
 440.166666667 524.166666667 442.666666667 516.833333333 444 508.5 c 128
 445.333333333 500.166666667 446 493 446 487 c 0
 446 469 442.166666667 452.333333333 434.5 437 c 128
 426.833333333 421.666666667 414.333333333 401.666666667 397 377 c 1
 398.333333333 357 402.666666667 341.833333333 410 331.5 c 128
 417.333333333 321.166666667 431.666666667 316 453 316 c 0
 471 316 487.166666667 321.166666667 501.5 331.5 c 128
 515.833333333 341.833333333 528.333333333 355.166666667 539 371.5 c 128
 549.666666667 387.833333333 557.666666667 405.166666667 563 423.5 c 128
 568.333333333 441.833333333 571 458.666666667 571 474 c 0
 571 485.333333333 567.166666667 494.833333333 559.5 502.5 c 128
 551.833333333 510.166666667 543 515.333333333 533 518 c 1
 533 531 l 1
 549 533.666666667 567.666666667 536.833333333 589 540.5 c 128
 610.333333333 544.166666667 626.333333333 546 637 546 c 0
 648.333333333 546 660.166666667 542 672.5 534 c 128
 684.833333333 526 691.333333333 515.666666667 692 503 c 0
 692 495 690.166666667 483.5 686.5 468.5 c 128
 682.833333333 453.5 678 437.333333333 672 420 c 1
 678 403.333333333 685.5 390.166666667 694.5 380.5 c 128
 703.5 370.833333333 717.666666667 366 737 366 c 0
 756.333333333 366 771.666666667 372 783 384 c 128
 794.333333333 396 802.333333333 410.666666667 807 428 c 128
 811.666666667 445.333333333 814 462 814 478 c 0
 814 494.666666667 811.166666667 508 805.5 518 c 128
 799.833333333 528 789 535.666666667 773 541 c 1
 773 554 l 1
 866 571 l 2
 876.666666667 572.333333333 886 573 894 573 c 0
 906 573 914.666666667 569.5 920 562.5 c 128
 925.333333333 555.5 928.833333333 547 930.5 537 c 128
 932.166666667 527 933 517.333333333 933 508 c 0
EndSplineSet
EndChar
StartChar: uni1229
Encoding: 4649 4649 6364
Width: 686
Flags: HW
AnchorPoint: "Ethiopic Mark" 331 617 basechar 0
LayerCount: 2
Fore
SplineSet
648 170 m 1
 642.666666667 165.333333333 634 161.5 622 158.5 c 128
 610 155.5 597.166666667 153.5 583.5 152.5 c 128
 569.833333333 151.5 558.666666667 151 550 151 c 0
 521.333333333 151 497.333333333 159.666666667 478 177 c 128
 458.666666667 194.333333333 449 218 449 248 c 0
 449 251 449 251 449 254.5 c 128
 449 258 449 258 449 261 c 1
 437.666666667 259 426.5 257 415.5 255 c 128
 404.5 253 393.333333333 251.333333333 382 250 c 1
 361 111 l 2
 360.333333333 105.666666667 359.666666667 100.166666667 359 94.5 c 128
 358.333333333 88.8333333333 358 83.3333333333 358 78 c 0
 358 66 359.833333333 55.8333333333 363.5 47.5 c 128
 367.166666667 39.1666666667 374.666666667 32.3333333333 386 27 c 1
 386 11 l 1
 291 -8 l 2
 285.666666667 -9.33333333333 280.166666667 -10.3333333333 274.5 -11 c 128
 268.833333333 -11.6666666667 263 -12 257 -12 c 0
 241 -12 230.666666667 -6.66666666667 226 4 c 128
 221.333333333 14.6666666667 219 26.6666666667 219 40 c 0
 219 45.3333333333 219.333333333 50.8333333333 220 56.5 c 128
 220.666666667 62.1666666667 221.333333333 67.6666666667 222 73 c 2
 246 231 l 1
 231.333333333 230.333333333 216.666666667 229.5 202 228.5 c 128
 187.333333333 227.5 172.666666667 227 158 227 c 0
 134.666666667 227 114.666666667 228.833333333 98 232.5 c 128
 81.3333333333 236.166666667 68.5 244.166666667 59.5 256.5 c 128
 50.5 268.833333333 46 288 46 314 c 0
 46 342.666666667 53 366 67 384 c 128
 81 402 98.1666666667 416.666666667 118.5 428 c 128
 138.833333333 439.333333333 159.333333333 449.666666667 180 459 c 128
 200.666666667 468.333333333 218 478.666666667 232 490 c 128
 246 501.333333333 253 516 253 534 c 0
 253 541.333333333 251.333333333 549.5 248 558.5 c 128
 244.666666667 567.5 239.333333333 574 232 578 c 1
 244 580.666666667 259.5 584.333333333 278.5 589 c 128
 297.5 593.666666667 315.833333333 597.666666667 333.5 601 c 128
 351.166666667 604.333333333 363.666666667 606 371 606 c 0
 383 606 390.666666667 602 394 594 c 128
 397.333333333 586 399 577 399 567 c 0
 399 547 392 529 378 513 c 128
 364 497 346.666666667 481.833333333 326 467.5 c 128
 305.333333333 453.166666667 284.833333333 438.666666667 264.5 424 c 128
 244.166666667 409.333333333 227 393.666666667 213 377 c 128
 199 360.333333333 192 341.333333333 192 320 c 0
 192 299.333333333 197.166666667 285.166666667 207.5 277.5 c 128
 217.833333333 269.833333333 232.666666667 266 252 266 c 0
 260.666666667 266 269.333333333 266.5 278 267.5 c 128
 286.666666667 268.5 295 269.666666667 303 271 c 2
 609 317 l 1
 607 304.333333333 605.833333333 291.666666667 605.5 279 c 128
 605.166666667 266.333333333 605 253.666666667 605 241 c 0
 605 227 608.833333333 213.166666667 616.5 199.5 c 128
 624.166666667 185.833333333 634.666666667 176 648 170 c 1
EndSplineSet
EndChar
StartChar: uni122A
Encoding: 4650 4650 6365
Width: 573
Flags: HW
AnchorPoint: "Ethiopic Mark" 425 617 basechar 0
LayerCount: 2
Fore
SplineSet
533 189 m 0
 533 151.666666667 523.666666667 124.666666667 505 108 c 128
 486.333333333 91.3333333333 461 77 429 65 c 0
 414.333333333 59.6666666667 399.5 54.6666666667 384.5 50 c 128
 369.5 45.3333333333 354.666666667 40.6666666667 340 36 c 0
 316.666666667 28.6666666667 289.666666667 20.8333333333 259 12.5 c 128
 228.333333333 4.16666666667 201 0 177 0 c 0
 140.333333333 0 109.333333333 10.5 84 31.5 c 128
 58.6666666667 52.5 46 82 46 120 c 0
 46 150.666666667 53.5 179.666666667 68.5 207 c 128
 83.5 234.333333333 102.833333333 260.166666667 126.5 284.5 c 128
 150.166666667 308.833333333 175.166666667 332.166666667 201.5 354.5 c 128
 227.833333333 376.833333333 252.833333333 398.166666667 276.5 418.5 c 128
 300.166666667 438.833333333 319.5 458.666666667 334.5 478 c 128
 349.5 497.333333333 357 516 357 534 c 0
 357 541.333333333 354.333333333 548.166666667 349 554.5 c 128
 343.666666667 560.833333333 337.333333333 564.666666667 330 566 c 1
 330 581 l 1
 433 602 l 2
 439.666666667 603.333333333 445.833333333 604.333333333 451.5 605 c 128
 457.166666667 605.666666667 463.333333333 606 470 606 c 0
 480.666666667 606 488.333333333 601.666666667 493 593 c 128
 497.666666667 584.333333333 500 575.333333333 500 566 c 0
 500 538 492.833333333 512.166666667 478.5 488.5 c 128
 464.166666667 464.833333333 445.5 442.166666667 422.5 420.5 c 128
 399.5 398.833333333 375.166666667 377.5 349.5 356.5 c 128
 323.833333333 335.5 299.666666667 313.333333333 277 290 c 128
 254.333333333 266.666666667 235.666666667 241.666666667 221 215 c 128
 206.333333333 188.333333333 199 158.333333333 199 125 c 0
 199 98.3333333333 206.166666667 80.6666666667 220.5 72 c 128
 234.833333333 63.3333333333 254 59 278 59 c 0
 309.333333333 59 336 69.3333333333 358 90 c 128
 380 110.666666667 391 137 391 169 c 0
 391 176.333333333 389.166666667 183.166666667 385.5 189.5 c 128
 381.833333333 195.833333333 375.666666667 199.333333333 367 200 c 1
 367 213 l 1
 390.333333333 223.666666667 413 233 435 241 c 128
 457 249 473 253 483 253 c 0
 503 253 516.333333333 246.666666667 523 234 c 128
 529.666666667 221.333333333 533 206.333333333 533 189 c 0
EndSplineSet
EndChar
StartChar: uni122D
Encoding: 4653 4653 6368
Width: 585
Flags: HW
AnchorPoint: "Ethiopic Mark" 350 605 basechar 0
LayerCount: 2
Fore
SplineSet
559 467 m 1
 548.333333333 461 535.666666667 456.5 521 453.5 c 128
 506.333333333 450.5 493 449 481 449 c 0
 460.333333333 449 441 451 423 455 c 128
 405 459 390.5 467.333333333 379.5 480 c 128
 368.5 492.666666667 363 511.333333333 363 536 c 0
 363 541.333333333 363.333333333 545.333333333 364 548 c 1
 326 548 295.666666667 539.666666667 273 523 c 128
 250.333333333 506.333333333 233.333333333 484 222 456 c 128
 210.666666667 428 202.333333333 397.333333333 197 364 c 0
 193 336 190.166666667 308 188.5 280 c 128
 186.833333333 252 186 224 186 196 c 0
 186 185.333333333 186.333333333 170.833333333 187 152.5 c 128
 187.666666667 134.166666667 190.166666667 116.833333333 194.5 100.5 c 128
 198.833333333 84.1666666667 207 73 219 67 c 0
 225.666666667 63.6666666667 232.833333333 61.6666666667 240.5 61 c 128
 248.166666667 60.3333333333 255.666666667 60 263 60 c 0
 276.333333333 60 291.333333333 62 308 66 c 128
 324.666666667 70 338.666666667 76.3333333333 350 85 c 1
 352.666666667 105 361 119.833333333 375 129.5 c 128
 389 139.166666667 405.5 145.5 424.5 148.5 c 128
 443.5 151.5 461 153 477 153 c 0
 481 153 485.833333333 152.5 491.5 151.5 c 128
 497.166666667 150.5 502.333333333 149.333333333 507 148 c 1
 505 146.666666667 503.333333333 142.666666667 502 136 c 128
 500.666666667 129.333333333 499.833333333 122.833333333 499.5 116.5 c 128
 499.166666667 110.166666667 499 106.333333333 499 105 c 0
 499 93 501.333333333 79 506 63 c 128
 510.666666667 47 518.333333333 35 529 27 c 1
 521 15.6666666667 508 7.66666666667 490 3 c 128
 472 -1.66666666667 456.666666667 -4 444 -4 c 0
 426.666666667 -4 409.5 -0.5 392.5 6.5 c 128
 375.5 13.5 363.333333333 25.6666666667 356 43 c 1
 338 37.6666666667 316.166666667 31.6666666667 290.5 25 c 128
 264.833333333 18.3333333333 239.333333333 12.5 214 7.5 c 128
 188.666666667 2.5 167 0 149 0 c 0
 124.333333333 0 105 5.5 91 16.5 c 128
 77 27.5 66.8333333333 41.6666666667 60.5 59 c 128
 54.1666666667 76.3333333333 50.3333333333 95.3333333333 49 116 c 128
 47.6666666667 136.666666667 47 156.666666667 47 176 c 0
 47 198 47.3333333333 220.166666667 48 242.5 c 128
 48.6666666667 264.833333333 50 287.333333333 52 310 c 0
 54.6666666667 336 58.6666666667 361.666666667 64 387 c 128
 69.3333333333 412.333333333 78.3333333333 435.833333333 91 457.5 c 128
 103.666666667 479.166666667 121.333333333 497.333333333 144 512 c 0
 185.333333333 538.666666667 228.333333333 558.333333333 273 571 c 128
 317.666666667 583.666666667 361.333333333 591.666666667 404 595 c 128
 446.666666667 598.333333333 485 599.666666667 519 599 c 1
 520.333333333 572.333333333 523.666666667 549.166666667 529 529.5 c 128
 534.333333333 509.833333333 544.333333333 489 559 467 c 1
EndSplineSet
EndChar
StartChar: uni122E
Encoding: 4654 4654 6369
Width: 680
Flags: HW
AnchorPoint: "Ethiopic Mark" 381 621 basechar 0
LayerCount: 2
Fore
SplineSet
652 514 m 0
 652 486 643.833333333 462.333333333 627.5 443 c 128
 611.166666667 423.666666667 589.333333333 411.333333333 562 406 c 0
 550.666666667 404 539 403 527 403 c 128
 515 403 503 402 491 400 c 0
 475.666666667 398 462 394 450 388 c 0
 438.666666667 382 429.666666667 376.833333333 423 372.5 c 128
 416.333333333 368.166666667 405.666666667 366 391 366 c 0
 373.666666667 366 358.666666667 371.333333333 346 382 c 128
 333.333333333 392.666666667 323.5 406 316.5 422 c 128
 309.5 438 306 453.666666667 306 469 c 0
 306 476.333333333 306.166666667 483.666666667 306.5 491 c 128
 306.833333333 498.333333333 307 505.666666667 307 513 c 1
 305 513.666666667 302.333333333 514 299 514 c 0
 291 514 283.5 511.666666667 276.5 507 c 128
 269.5 502.333333333 263.333333333 497.333333333 258 492 c 0
 242.666666667 476 230.166666667 455.666666667 220.5 431 c 128
 210.833333333 406.333333333 203.5 379.833333333 198.5 351.5 c 128
 193.5 323.166666667 190.166666667 295.333333333 188.5 268 c 128
 186.833333333 240.666666667 186 216.666666667 186 196 c 0
 186 184 186.333333333 168.666666667 187 150 c 128
 187.666666667 131.333333333 190.5 113.333333333 195.5 96 c 128
 200.5 78.6666666667 209 66.6666666667 221 60 c 0
 227.666666667 56.6666666667 234.5 54.5 241.5 53.5 c 128
 248.5 52.5 255.666666667 52 263 52 c 0
 269 52 277.833333333 53.5 289.5 56.5 c 128
 301.166666667 59.5 313 62.6666666667 325 66 c 128
 337 69.3333333333 346 72 352 74 c 1
 358.666666667 97.3333333333 368 114.166666667 380 124.5 c 128
 392 134.833333333 406.833333333 141.166666667 424.5 143.5 c 128
 442.166666667 145.833333333 462 147 484 147 c 0
 488.666666667 147 493.833333333 146.666666667 499.5 146 c 128
 505.166666667 145.333333333 510 144 514 142 c 1
 511.333333333 140.666666667 509.5 136.833333333 508.5 130.5 c 128
 507.5 124.166666667 506.833333333 117.666666667 506.5 111 c 128
 506.166666667 104.333333333 506 100.333333333 506 99 c 0
 506 88.3333333333 508 75.1666666667 512 59.5 c 128
 516 43.8333333333 523 33 533 27 c 1
 524.333333333 15.6666666667 511.333333333 7.66666666667 494 3 c 128
 476.666666667 -1.66666666667 461.333333333 -4 448 -4 c 0
 430.666666667 -4 413.5 -0.5 396.5 6.5 c 128
 379.5 13.5 367.333333333 25.6666666667 360 43 c 1
 328.666666667 31 294 20.8333333333 256 12.5 c 128
 218 4.16666666667 182.333333333 0 149 0 c 0
 124.333333333 0 105.166666667 6.16666666667 91.5 18.5 c 128
 77.8333333333 30.8333333333 67.8333333333 46.8333333333 61.5 66.5 c 128
 55.1666666667 86.1666666667 51.1666666667 106.666666667 49.5 128 c 128
 47.8333333333 149.333333333 47 169 47 187 c 0
 47 219 48.1666666667 251.333333333 50.5 284 c 128
 52.8333333333 316.666666667 58.3333333333 348.333333333 67 379 c 0
 84.3333333333 443.666666667 113.666666667 488.166666667 155 512.5 c 128
 196.333333333 536.833333333 249 549 313 549 c 1
 329.666666667 568.333333333 350.833333333 582.333333333 376.5 591 c 128
 402.166666667 599.666666667 429 605.5 457 608.5 c 128
 485 611.5 510.333333333 613 533 613 c 0
 560.333333333 613 582.666666667 610.833333333 600 606.5 c 128
 617.333333333 602.166666667 630.333333333 592.833333333 639 578.5 c 128
 647.666666667 564.166666667 652 542.666666667 652 514 c 0
527 505 m 0
 527 514.333333333 526 524.333333333 524 535 c 128
 522 545.666666667 517.833333333 554.833333333 511.5 562.5 c 128
 505.166666667 570.166666667 496.333333333 574 485 574 c 0
 465 574 452.5 566.833333333 447.5 552.5 c 128
 442.5 538.166666667 440 523 440 507 c 0
 440 497 440.833333333 486.333333333 442.5 475 c 128
 444.166666667 463.666666667 448 453.833333333 454 445.5 c 128
 460 437.166666667 469.666666667 433 483 433 c 0
 497 433 507 436.666666667 513 444 c 128
 519 451.333333333 522.833333333 460.5 524.5 471.5 c 128
 526.166666667 482.5 527 493.666666667 527 505 c 0
EndSplineSet
EndChar
StartChar: uni122F
Encoding: 4655 4655 6370
Width: 758
Flags: HW
AnchorPoint: "Ethiopic Mark" 426 670 basechar 0
LayerCount: 2
Fore
SplineSet
719 646 m 1
 699 624.666666667 687.5 603 684.5 581 c 128
 681.5 559 680 534.333333333 680 507 c 1
 479 507 l 1
 476.333333333 482.333333333 467.166666667 459.166666667 451.5 437.5 c 128
 435.833333333 415.833333333 417 395 395 375 c 128
 373 355 350 335 326 315 c 128
 302 295 279.333333333 274.5 258 253.5 c 128
 236.666666667 232.5 219.333333333 210.333333333 206 187 c 128
 192.666666667 163.666666667 186 138.333333333 186 111 c 0
 186 89 191.333333333 73.8333333333 202 65.5 c 128
 212.666666667 57.1666666667 228.666666667 53 250 53 c 0
 256.666666667 53 263.5 53.3333333333 270.5 54 c 128
 277.5 54.6666666667 284.333333333 55.3333333333 291 56 c 1
 297 97.3333333333 308.833333333 130.166666667 326.5 154.5 c 128
 344.166666667 178.833333333 367.166666667 197.5 395.5 210.5 c 128
 423.833333333 223.5 457 233.333333333 495 240 c 0
 523 244.666666667 550.833333333 248 578.5 250 c 128
 606.166666667 252 633.666666667 254.333333333 661 257 c 2
 685 259 l 1
 685 236.333333333 685.5 212.333333333 686.5 187 c 128
 687.5 161.666666667 694 139 706 119 c 1
 700 117 692.833333333 115.5 684.5 114.5 c 128
 676.166666667 113.5 669 113 663 113 c 0
 633 113 607.333333333 120.5 586 135.5 c 128
 564.666666667 150.5 552.666666667 174 550 206 c 1
 548 206 545.666666667 206.166666667 543 206.5 c 128
 540.333333333 206.833333333 537.666666667 207 535 207 c 0
 512.333333333 207 494.166666667 202 480.5 192 c 128
 466.833333333 182 456.666666667 169 450 153 c 128
 443.333333333 137 439 119.666666667 437 101 c 128
 435 82.3333333333 434 64 434 46 c 1
 404 42 374.166666667 37.6666666667 344.5 33 c 128
 314.833333333 28.3333333333 285 23.3333333333 255 18 c 0
 236.333333333 14.6666666667 217.333333333 10.8333333333 198 6.5 c 128
 178.666666667 2.16666666667 159.333333333 0 140 0 c 0
 104.666666667 0 80.1666666667 10.1666666667 66.5 30.5 c 128
 52.8333333333 50.8333333333 46 77.3333333333 46 110 c 0
 46 143.333333333 53 173.166666667 67 199.5 c 128
 81 225.833333333 99.1666666667 249.833333333 121.5 271.5 c 128
 143.833333333 293.166666667 167.5 313.166666667 192.5 331.5 c 128
 217.5 349.833333333 241 367.5 263 384.5 c 128
 285 401.5 303.166666667 418.666666667 317.5 436 c 128
 331.833333333 453.333333333 339 471.666666667 339 491 c 2
 339 507 l 1
 152 507 l 1
 154 531.666666667 151.666666667 557 145 583 c 128
 138.333333333 609 124.666666667 630 104 646 c 1
 109.333333333 646.666666667 114.833333333 647 120.5 647 c 128
 129 647 129 647 137 647 c 0
 163.666666667 647 188.166666667 644.166666667 210.5 638.5 c 128
 232.833333333 632.833333333 251.333333333 622.333333333 266 607 c 128
 280.666666667 591.666666667 289.666666667 569.333333333 293 540 c 1
 534 540 l 1
 538 568 547.166666667 589.666666667 561.5 605 c 128
 575.833333333 620.333333333 593.833333333 631.166666667 615.5 637.5 c 128
 637.166666667 643.833333333 661 647 687 647 c 0
 697.666666667 647 708.333333333 646.666666667 719 646 c 1
EndSplineSet
EndChar
StartChar: uni1233
Encoding: 4659 4659 6374
Width: 553
Flags: HW
AnchorPoint: "Ethiopic Mark" 284 670 basechar 0
LayerCount: 2
Fore
SplineSet
512 17 m 1
 408 2 l 2
 399 1 399 1 390 0 c 0
 372 0 360.666666667 5.16666666667 356 15.5 c 128
 351.333333333 25.8333333333 349 38.6666666667 349 54 c 0
 349 96.6666666667 350.5 139.666666667 353.5 183 c 128
 356.5 226.333333333 358 269.333333333 358 312 c 0
 358 326.666666667 357.166666667 343.833333333 355.5 363.5 c 128
 353.833333333 383.166666667 350 402.5 344 421.5 c 128
 338 440.5 329.166666667 456.166666667 317.5 468.5 c 128
 305.833333333 480.833333333 289.666666667 487 269 487 c 0
 248.333333333 487 232 481 220 469 c 128
 208 457 199 441.833333333 193 423.5 c 128
 187 405.166666667 183.166666667 386.166666667 181.5 366.5 c 128
 179.833333333 346.833333333 179 329.333333333 179 314 c 0
 179 303 179 303 179 282.5 c 128
 179 268.833333333 179.833333333 255.5 181.5 242.5 c 128
 183.166666667 229.5 186.333333333 220 191 214 c 0
 193.666666667 210.666666667 197.166666667 208.166666667 201.5 206.5 c 128
 205.833333333 204.833333333 210.333333333 203 215 201 c 1
 215 188 l 1
 113 170 l 2
 109.666666667 170 106.333333333 169.666666667 103 169 c 128
 99.6666666667 168.333333333 96.3333333333 168 93 168 c 0
 80.3333333333 168 70.6666666667 172 64 180 c 128
 57.3333333333 188 52.8333333333 198.166666667 50.5 210.5 c 128
 48.1666666667 222.833333333 47 235.166666667 47 247.5 c 128
 47 266 47 266 47 279 c 0
 47 307.666666667 49 332.666666667 53 354 c 128
 57 375.333333333 67.6666666667 397.666666667 85 421 c 0
 101 443 120.166666667 461.333333333 142.5 476 c 128
 164.833333333 490.666666667 189 502 215 510 c 1
 215 605 l 2
 215 609.666666667 213.666666667 615.666666667 211 623 c 128
 208.333333333 630.333333333 203.666666667 633.666666667 197 633 c 1
 195 645 l 1
 308 664 l 2
 316 665 316 665 324 666 c 0
 335.333333333 666 342.666666667 663.333333333 346 658 c 128
 349.333333333 652.666666667 351 645 351 635 c 2
 351 525 l 1
 389.666666667 522.333333333 418.666666667 512.666666667 438 496 c 128
 457.333333333 479.333333333 470.166666667 457.666666667 476.5 431 c 128
 482.833333333 404.333333333 486 374 486 340 c 0
 486 299.333333333 484.833333333 258.5 482.5 217.5 c 128
 480.166666667 176.5 479 135.666666667 479 95 c 0
 479 79.6666666667 480.166666667 67 482.5 57 c 128
 484.833333333 47 494.666666667 39 512 33 c 1
 512 17 l 1
EndSplineSet
EndChar
StartChar: uni1234
Encoding: 4660 4660 6375
Width: 700
Flags: HW
AnchorPoint: "Ethiopic Mark" 286 666 basechar 0
LayerCount: 2
Fore
SplineSet
659 123 m 0
 659 103 651.833333333 84.5 637.5 67.5 c 128
 623.166666667 50.5 605.833333333 37.1666666667 585.5 27.5 c 128
 565.166666667 17.8333333333 545.666666667 13 527 13 c 2
 454 13 l 2
 446 13 437.833333333 12 429.5 10 c 128
 421.166666667 8 413 6.33333333333 405 5 c 0
 391 1.66666666667 375.666666667 0 359 0 c 0
 343 0 331.166666667 4.66666666667 323.5 14 c 128
 315.833333333 23.3333333333 312 35.6666666667 312 51 c 0
 312 67 313 83.5 315 100.5 c 128
 317 117.5 318.666666667 134 320 150 c 0
 322.666666667 177.333333333 325.666666667 207 329 239 c 128
 332.333333333 271 335.166666667 301.666666667 337.5 331 c 128
 339.833333333 360.333333333 341 383.666666667 341 401 c 0
 341 415 339.5 428.5 336.5 441.5 c 128
 333.5 454.5 327.666666667 465.333333333 319 474 c 128
 310.333333333 482.666666667 297.333333333 487 280 487 c 0
 270.666666667 487 261.5 485.833333333 252.5 483.5 c 128
 243.5 481.166666667 235.333333333 476.666666667 228 470 c 0
 215.333333333 458.666666667 205.5 441 198.5 417 c 128
 191.5 393 186.666666667 366.5 184 337.5 c 128
 181.333333333 308.5 179.833333333 281 179.5 255 c 128
 179.166666667 229 179 208.333333333 179 193 c 0
 179 154.333333333 180.166666667 122.166666667 182.5 96.5 c 128
 184.833333333 70.8333333333 189.333333333 53.6666666667 196 45 c 0
 201.333333333 38.3333333333 209.333333333 33.3333333333 220 30 c 1
 220 17 l 1
 119 2 l 2
 115.666666667 2 112.166666667 1.66666666667 108.5 1 c 128
 104.833333333 0.333333333333 101 0 97 -0 c 0
 87 0 78.6666666667 2.66666666667 72 8 c 0
 63.3333333333 16 56.8333333333 34.1666666667 52.5 62.5 c 128
 48.1666666667 90.8333333333 46.3333333333 122.666666667 47 158 c 0
 47 184.666666667 47.5 213.833333333 48.5 245.5 c 128
 49.5 277.166666667 52.8333333333 308.5 58.5 339.5 c 128
 64.1666666667 370.5 74.6666666667 397.666666667 90 421 c 0
 104.666666667 443.666666667 122.666666667 461.333333333 144 474 c 128
 165.333333333 486.666666667 188.666666667 497 214 505 c 1
 214 600 l 2
 214 604.666666667 212.666666667 610.666666667 210 618 c 128
 207.333333333 625.333333333 202.666666667 628.666666667 196 628 c 1
 194 640 l 1
 307 659 l 2
 315 660 315 660 323 661 c 0
 334.333333333 661 341.666666667 658.333333333 345 653 c 128
 348.333333333 647.666666667 350 640 350 630 c 2
 350 520 l 1
 380.666666667 520.666666667 404.5 514.666666667 421.5 502 c 128
 438.5 489.333333333 450.333333333 472 457 450 c 128
 463.666666667 428 467 403 467 375 c 0
 467 357.666666667 466.333333333 340.166666667 465 322.5 c 128
 463.666666667 304.833333333 462 287.333333333 460 270 c 0
 458.666666667 258 457.166666667 245.666666667 455.5 233 c 128
 453.833333333 220.333333333 453 208 453 196 c 1
 472.333333333 196 491.333333333 197.666666667 510 201 c 128
 528.666666667 204.333333333 547.333333333 206 566 206 c 0
 594.666666667 206 617.333333333 199.833333333 634 187.5 c 128
 650.666666667 175.166666667 659 153.666666667 659 123 c 0
527 101 m 0
 527 126.333333333 520.166666667 142.5 506.5 149.5 c 128
 492.833333333 156.5 474.333333333 160 451 160 c 1
 449.666666667 148 448.5 134.833333333 447.5 120.5 c 128
 446.5 106.166666667 446 95.3333333333 446 88 c 0
 446 66.6666666667 448.166666667 53.1666666667 452.5 47.5 c 128
 456.833333333 41.8333333333 464.666666667 39 476 39 c 0
 493.333333333 39 506.166666667 45.5 514.5 58.5 c 128
 522.833333333 71.5 527 85.6666666667 527 101 c 0
EndSplineSet
EndChar
StartChar: uni1236
Encoding: 4662 4662 6377
Width: 565
Flags: HW
AnchorPoint: "Ethiopic Mark" 290 672 basechar 0
LayerCount: 2
Fore
SplineSet
525 188 m 1
 419 168 l 2
 410.333333333 166.666666667 402.333333333 166 395 166 c 0
 379.666666667 166 370 170.666666667 366 180 c 128
 362 189.333333333 360 200.666666667 360 214 c 0
 360 232 360.5 249.833333333 361.5 267.5 c 128
 362.5 285.166666667 363 303 363 321 c 0
 363 336.333333333 362.166666667 353.333333333 360.5 372 c 128
 358.833333333 390.666666667 355.166666667 408.833333333 349.5 426.5 c 128
 343.833333333 444.166666667 335 458.666666667 323 470 c 128
 311 481.333333333 294.666666667 487 274 487 c 0
 264.666666667 487 255.833333333 485.833333333 247.5 483.5 c 128
 239.166666667 481.166666667 231.666666667 476.666666667 225 470 c 0
 213 458.666666667 203.666666667 440.833333333 197 416.5 c 128
 190.333333333 392.166666667 185.833333333 365.5 183.5 336.5 c 128
 181.166666667 307.5 179.833333333 280 179.5 254 c 128
 179.166666667 228 179 207.666666667 179 193 c 0
 179 156.333333333 179.5 127.833333333 180.5 107.5 c 128
 181.5 87.1666666667 183 72.6666666667 185 64 c 128
 187 55.3333333333 189 49 191 45 c 0
 196.333333333 37.6666666667 203.666666667 32.6666666667 213 30 c 1
 213 17 l 1
 112 2 l 2
 108.666666667 2 105.166666667 1.66666666667 101.5 1 c 128
 97.8333333333 0.333333333333 94 0 90 -0 c 0
 80.6666666667 0 73 2.66666666667 67 8 c 0
 61 14 56.1666666667 28 52.5 50 c 128
 48.8333333333 72 47 108 47 158 c 0
 47 184.666666667 47.3333333333 213.833333333 48 245.5 c 128
 48.6666666667 277.166666667 52 308.5 58 339.5 c 128
 64 370.5 74.6666666667 397.666666667 90 421 c 0
 104.666666667 443 123.833333333 461.333333333 147.5 476 c 128
 171.166666667 490.666666667 195.333333333 502 220 510 c 1
 220 605 l 2
 220 610.333333333 218.666666667 616.166666667 216 622.5 c 128
 213.333333333 628.833333333 208.666666667 632.333333333 202 633 c 1
 200 645 l 1
 313 664 l 2
 321 665 321 665 329 666 c 0
 346.333333333 666 354.666666667 658.333333333 354 643 c 0
 354 614 354 614 354 584 c 128
 354 554 354 554 354 525 c 1
 390.666666667 522.333333333 418.833333333 513.666666667 438.5 499 c 128
 458.166666667 484.333333333 471.833333333 464.666666667 479.5 440 c 128
 487.166666667 415.333333333 491 386.333333333 491 353 c 0
 491 337.666666667 490.833333333 322.166666667 490.5 306.5 c 128
 490.166666667 290.833333333 490 275.333333333 490 260 c 0
 490 245.333333333 492 233.5 496 224.5 c 128
 500 215.5 509.666666667 208.666666667 525 204 c 1
 525 188 l 1
EndSplineSet
EndChar
StartChar: uni1238
Encoding: 4664 4664 6379
Width: 640
Flags: HW
AnchorPoint: "Ethiopic Mark" 305 723 basechar 0
LayerCount: 2
Fore
SplineSet
625 622 m 1
 610.333333333 614 594.833333333 607 578.5 601 c 128
 562.166666667 595 545.333333333 592 528 592 c 0
 512.666666667 592 496.666666667 596.666666667 480 606 c 128
 463.333333333 615.333333333 452.333333333 627.666666667 447 643 c 1
 373 634 l 1
 373 512 l 1
 411.666666667 502.666666667 437 487.166666667 449 465.5 c 128
 461 443.833333333 467 414.666666667 467 378 c 0
 467 332 465.666666667 285.833333333 463 239.5 c 128
 460.333333333 193.166666667 459 147 459 101 c 0
 459 89 460.166666667 76.6666666667 462.5 64 c 128
 464.833333333 51.3333333333 473 43 487 39 c 1
 487 23 l 1
 393 8 l 2
 391 8 388.833333333 7.83333333333 386.5 7.5 c 128
 384.166666667 7.16666666667 381.666666667 7 379 7 c 0
 357.666666667 7 344.166666667 14.5 338.5 29.5 c 128
 332.833333333 44.5 330 60.6666666667 330 78 c 0
 330 138.666666667 331.666666667 199.5 335 260.5 c 128
 338.333333333 321.5 340 382.333333333 340 443 c 0
 340 455 337.5 465.166666667 332.5 473.5 c 128
 327.5 481.833333333 318.333333333 486 305 486 c 0
 238.333333333 486 205 392.333333333 205 205 c 0
 205 163 205.333333333 130.333333333 206 107 c 128
 206.666666667 83.6666666667 207.5 67 208.5 57 c 128
 209.5 47 210.666666667 40.6666666667 212 38 c 0
 214 34 217.333333333 31 222 29 c 1
 222 16 l 1
 214 14.6666666667 203.833333333 12.6666666667 191.5 10 c 128
 179.166666667 7.33333333333 167.166666667 5 155.5 3 c 128
 143.833333333 1 135 0 129 0 c 0
 107.666666667 0 93.5 11.6666666667 86.5 35 c 128
 79.5 58.3333333333 75.3333333333 93.3333333333 74 140 c 0
 74 158 73.8333333333 176 73.5 194 c 128
 73.1666666667 212 73 230 73 248 c 0
 73 272 74 293.333333333 76 312 c 128
 78 330.666666667 82.5 348.5 89.5 365.5 c 128
 96.5 382.5 107 400.666666667 121 420 c 0
 137 442 155.666666667 460 177 474 c 128
 198.333333333 488 222 499 248 507 c 1
 248 619 l 1
 238.666666667 618.333333333 229.5 617.5 220.5 616.5 c 128
 211.5 615.5 202.333333333 614.333333333 193 613 c 1
 189.666666667 592.333333333 180.666666667 576.166666667 166 564.5 c 128
 151.333333333 552.833333333 134.333333333 544.833333333 115 540.5 c 128
 95.6666666667 536.166666667 77 534 59 534 c 0
 53 534 45 534.5 35 535.5 c 128
 25 536.5 17 538.333333333 11 541 c 1
 31 559 41 581.666666667 41 609 c 0
 41 624.333333333 38.6666666667 636.666666667 34 646 c 128
 29.3333333333 655.333333333 21.6666666667 665.333333333 11 676 c 1
 22.3333333333 684 37.1666666667 689.666666667 55.5 693 c 128
 73.8333333333 696.333333333 89.6666666667 698 103 698 c 0
 121 698 137.5 693.666666667 152.5 685 c 128
 167.5 676.333333333 179.333333333 664 188 648 c 1
 230 653.333333333 272 658.5 314 663.5 c 128
 356 668.5 398 673.333333333 440 678 c 1
 444 700 453.5 716.833333333 468.5 728.5 c 128
 483.5 740.166666667 501 748 521 752 c 128
 541 756 560.333333333 758 579 758 c 0
 588.333333333 758 597.666666667 755.666666667 607 751 c 1
 603.666666667 742.333333333 600 732.333333333 596 721 c 128
 592 709.666666667 590 699 590 689 c 0
 590 673.666666667 593.166666667 661.333333333 599.5 652 c 128
 605.833333333 642.666666667 614.333333333 632.666666667 625 622 c 1
EndSplineSet
EndChar
StartChar: uni1239
Encoding: 4665 4665 6380
Width: 766
Flags: HW
AnchorPoint: "Ethiopic Mark" 334 736 basechar 0
LayerCount: 2
Fore
SplineSet
741 283 m 1
 737 277.666666667 729.333333333 273.166666667 718 269.5 c 128
 706.666666667 265.833333333 695 263.166666667 683 261.5 c 128
 671 259.833333333 661.666666667 259 655 259 c 0
 635 259 614.833333333 263.333333333 594.5 272 c 128
 574.166666667 280.666666667 562 296.333333333 558 319 c 1
 488 314 l 1
 486.666666667 296 485 275.833333333 483 253.5 c 128
 481 231.166666667 479.166666667 209 477.5 187 c 128
 475.833333333 165 474.5 145.666666667 473.5 129 c 128
 472.5 112.333333333 472 100.666666667 472 94 c 0
 472 80.6666666667 473.166666667 69.8333333333 475.5 61.5 c 128
 477.833333333 53.1666666667 486 47 500 43 c 1
 500 27 l 1
 486 26.3333333333 470 25.1666666667 452 23.5 c 128
 434 21.8333333333 417.5 20.6666666667 402.5 20 c 128
 387.5 19.3333333333 376.333333333 19 369 19 c 0
 353 19 343.166666667 22.3333333333 339.5 29 c 128
 335.833333333 35.6666666667 334 46.3333333333 334 61 c 0
 334 75 334.833333333 94.5 336.5 119.5 c 128
 338.166666667 144.5 340.5 172.166666667 343.5 202.5 c 128
 346.5 232.833333333 349.166666667 262.833333333 351.5 292.5 c 128
 353.833333333 322.166666667 356 349.333333333 358 374 c 128
 360 398.666666667 361 417.333333333 361 430 c 0
 361 438.666666667 359.833333333 448.5 357.5 459.5 c 128
 355.166666667 470.5 350.833333333 480 344.5 488 c 128
 338.166666667 496 329.666666667 500 319 500 c 0
 296.333333333 500 277.333333333 489.833333333 262 469.5 c 128
 246.666666667 449.166666667 234.333333333 421.833333333 225 387.5 c 128
 215.666666667 353.166666667 209.166666667 314.666666667 205.5 272 c 128
 201.833333333 229.333333333 200 185 200 139 c 0
 200 112.333333333 201.333333333 92.3333333333 204 79 c 128
 206.666666667 65.6666666667 210.666666667 55.8333333333 216 49.5 c 128
 221.333333333 43.1666666667 228.333333333 37 237 31 c 1
 237 18 l 1
 226.333333333 16 213.166666667 13.5 197.5 10.5 c 128
 181.833333333 7.5 167.333333333 5 154 3 c 128
 140.666666667 1 131.666666667 0 127 0 c 0
 121 0 115.166666667 0.666666666667 109.5 2 c 128
 103.833333333 3.33333333333 98.6666666667 6.66666666667 94 12 c 0
 90 16 86 22.3333333333 82 31 c 128
 78 39.6666666667 74.6666666667 54.3333333333 72 75 c 128
 69.3333333333 95.6666666667 68 125.666666667 68 165 c 0
 68 208.333333333 72.1666666667 253.5 80.5 300.5 c 128
 88.8333333333 347.5 106.333333333 389 133 425 c 0
 147.666666667 445 167.333333333 465.166666667 192 485.5 c 128
 216.666666667 505.833333333 240.666666667 519.333333333 264 526 c 1
 269 640 l 1
 258.333333333 639.333333333 247.833333333 638.333333333 237.5 637 c 128
 227.166666667 635.666666667 216.666666667 634.333333333 206 633 c 1
 200 613 189.333333333 597.166666667 174 585.5 c 128
 158.666666667 573.833333333 141.166666667 565.666666667 121.5 561 c 128
 101.833333333 556.333333333 82.6666666667 554 64 554 c 0
 56 554 47.6666666667 554.166666667 39 554.5 c 128
 30.3333333333 554.833333333 21.6666666667 555.666666667 13 557 c 1
 23 566.333333333 30.3333333333 577.166666667 35 589.5 c 128
 39.6666666667 601.833333333 42 614.666666667 42 628 c 0
 42 643.333333333 40.5 655.666666667 37.5 665 c 128
 34.5 674.333333333 27.3333333333 684.666666667 16 696 c 1
 27.3333333333 703.333333333 42.1666666667 708.833333333 60.5 712.5 c 128
 78.8333333333 716.166666667 94.6666666667 718 108 718 c 0
 131.333333333 718 150.333333333 715.166666667 165 709.5 c 128
 179.666666667 703.833333333 192.666666667 690.333333333 204 669 c 1
 246.666666667 674.333333333 289.333333333 679.5 332 684.5 c 128
 374.666666667 689.5 417 694.333333333 459 699 c 1
 466.333333333 716.333333333 477.333333333 729.333333333 492 738 c 128
 506.666666667 746.666666667 522.666666667 752.5 540 755.5 c 128
 557.333333333 758.5 574.333333333 760 591 760 c 0
 598.333333333 760 605.666666667 759.333333333 613 758 c 128
 624 756 624 756 635 754 c 1
 631 746.666666667 628.333333333 738.833333333 627 730.5 c 128
 625.666666667 722.166666667 625 714 625 706 c 0
 625 691.333333333 625.833333333 679 627.5 669 c 128
 629.166666667 659 635.666666667 648.333333333 647 637 c 1
 633 631 617.166666667 625.5 599.5 620.5 c 128
 581.833333333 615.5 565.333333333 613 550 613 c 0
 529.333333333 613 511.666666667 616.166666667 497 622.5 c 128
 482.333333333 628.833333333 470.666666667 642.333333333 462 663 c 1
 452.666666667 661.666666667 443.333333333 660.5 434 659.5 c 128
 424.666666667 658.5 415.333333333 657.333333333 406 656 c 1
 399 534 l 1
 432.333333333 524 456.333333333 507.833333333 471 485.5 c 128
 485.666666667 463.166666667 493 435 493 401 c 0
 493 392.333333333 492.666666667 383.666666667 492 375 c 128
 491 362 491 362 490 349 c 1
 554 354 l 1
 566.666666667 378 585.166666667 393 609.5 399 c 128
 633.833333333 405 658 408 682 408 c 0
 688.666666667 408 696.166666667 407.333333333 704.5 406 c 128
 712.833333333 404.666666667 720 402.666666667 726 400 c 1
 721.333333333 391.333333333 717.166666667 383.166666667 713.5 375.5 c 128
 709.833333333 367.833333333 708 359 708 349 c 0
 708 333 710.5 320.666666667 715.5 312 c 128
 720.5 303.333333333 729 293.666666667 741 283 c 1
EndSplineSet
EndChar
StartChar: uni123E
Encoding: 4670 4670 6385
Width: 660
Flags: HW
AnchorPoint: "Ethiopic Mark" 336 742 basechar 0
LayerCount: 2
Fore
SplineSet
647 637 m 1
 633 631 617.166666667 625.5 599.5 620.5 c 128
 581.833333333 615.5 565.333333333 613 550 613 c 0
 529.333333333 613 511.666666667 616.166666667 497 622.5 c 128
 482.333333333 628.833333333 470.666666667 642.333333333 462 663 c 1
 452.666666667 661.666666667 443.333333333 660.5 434 659.5 c 128
 424.666666667 658.5 415.333333333 657.333333333 406 656 c 1
 399 534 l 1
 460.333333333 515.333333333 491 473.333333333 491 408 c 0
 491 384.666666667 488.833333333 361.5 484.5 338.5 c 128
 480.166666667 315.5 478 292.333333333 478 269 c 0
 478 256.333333333 479.166666667 245.666666667 481.5 237 c 128
 483.833333333 228.333333333 492 222 506 218 c 1
 506 202 l 1
 486 200.666666667 464 199 440 197 c 128
 416 195 397.666666667 194 385 194 c 0
 369 194 359.166666667 197.166666667 355.5 203.5 c 128
 351.833333333 209.833333333 350 220.666666667 350 236 c 0
 350 268 351.833333333 300.166666667 355.5 332.5 c 128
 359.166666667 364.833333333 361 397.333333333 361 430 c 0
 361 438 359.666666667 448 357 460 c 128
 354.333333333 472 349.833333333 482.666666667 343.5 492 c 128
 337.166666667 501.333333333 328.666666667 506 318 506 c 0
 296 506 277.5 496.166666667 262.5 476.5 c 128
 247.5 456.833333333 235.5 430 226.5 396 c 128
 217.5 362 210.833333333 322.833333333 206.5 278.5 c 128
 202.166666667 234.166666667 200 187.666666667 200 139 c 0
 200 112.333333333 201.333333333 92.1666666667 204 78.5 c 128
 206.666666667 64.8333333333 210.833333333 54.8333333333 216.5 48.5 c 128
 222.166666667 42.1666666667 229 36.3333333333 237 31 c 1
 237 18 l 1
 226.333333333 16 213.666666667 13.5 199 10.5 c 128
 184.333333333 7.5 170.5 5 157.5 3 c 128
 144.5 1 134.333333333 0 127 0 c 0
 121.666666667 0 116.333333333 0.666666666667 111 2 c 128
 105.666666667 3.33333333333 100.666666667 6 96 10 c 0
 92 13.3333333333 87.8333333333 19.5 83.5 28.5 c 128
 79.1666666667 37.5 75.5 52.6666666667 72.5 74 c 128
 69.5 95.3333333333 68 125.666666667 68 165 c 0
 68 208.333333333 72.1666666667 253.5 80.5 300.5 c 128
 88.8333333333 347.5 106.333333333 389 133 425 c 0
 147.666666667 445 167.333333333 465.166666667 192 485.5 c 128
 216.666666667 505.833333333 240.666666667 519.333333333 264 526 c 1
 270 640 l 1
 259.333333333 639.333333333 248.666666667 638.333333333 238 637 c 128
 222 635 222 635 206 633 c 1
 200 613 189.333333333 597.166666667 174 585.5 c 128
 158.666666667 573.833333333 141.166666667 565.666666667 121.5 561 c 128
 101.833333333 556.333333333 82.6666666667 554 64 554 c 0
 56 554 47.6666666667 554.166666667 39 554.5 c 128
 30.3333333333 554.833333333 21.6666666667 555.666666667 13 557 c 1
 23 566.333333333 30.3333333333 577.166666667 35 589.5 c 128
 39.6666666667 601.833333333 42 614.666666667 42 628 c 0
 42 643.333333333 40.5 655.666666667 37.5 665 c 128
 34.5 674.333333333 27.3333333333 684.666666667 16 696 c 1
 27.3333333333 703.333333333 42.1666666667 708.833333333 60.5 712.5 c 128
 78.8333333333 716.166666667 94.6666666667 718 108 718 c 0
 131.333333333 718 150.333333333 715.166666667 165 709.5 c 128
 179.666666667 703.833333333 192.666666667 690.333333333 204 669 c 1
 246.666666667 674.333333333 289.333333333 679.5 332 684.5 c 128
 374.666666667 689.5 417 694.333333333 459 699 c 1
 466.333333333 716.333333333 477.333333333 729.333333333 492 738 c 128
 506.666666667 746.666666667 522.666666667 752.5 540 755.5 c 128
 557.333333333 758.5 574.333333333 760 591 760 c 0
 598.333333333 760 605.666666667 759.333333333 613 758 c 128
 624 756 624 756 635 754 c 1
 631 746.666666667 628.333333333 738.833333333 627 730.5 c 128
 625.666666667 722.166666667 625 714 625 706 c 0
 625 691.333333333 625.833333333 679 627.5 669 c 128
 629.166666667 659 635.666666667 648.333333333 647 637 c 1
EndSplineSet
EndChar
StartChar: uni1241
Encoding: 4673 4673 6388
Width: 680
Flags: HW
AnchorPoint: "Ethiopic Mark" 367 674 basechar 0
LayerCount: 2
Fore
SplineSet
639 402 m 0
 639 354.666666667 617.833333333 319.5 575.5 296.5 c 128
 533.166666667 273.5 470.666666667 258 388 250 c 1
 375 170 l 1
 449 175 l 1
 462.333333333 195 481.166666667 209 505.5 217 c 128
 529.833333333 225 553.333333333 229 576 229 c 0
 582.666666667 229 590.166666667 228.666666667 598.5 228 c 128
 606.833333333 227.333333333 614 225.666666667 620 223 c 1
 614.666666667 216.333333333 610.666666667 208 608 198 c 128
 605.333333333 188 604 178.666666667 604 170 c 0
 604 154 605.833333333 141 609.5 131 c 128
 613.166666667 121 621.333333333 110.333333333 634 99 c 1
 630.666666667 93.6666666667 623.333333333 89.1666666667 612 85.5 c 128
 600.666666667 81.8333333333 589 79.1666666667 577 77.5 c 128
 565 75.8333333333 555.666666667 75 549 75 c 0
 535 75 520.666666667 77 506 81 c 128
 491.333333333 85 478.833333333 91.8333333333 468.5 101.5 c 128
 458.166666667 111.166666667 452 124 450 140 c 1
 368 133 l 1
 366.666666667 123 365.166666667 112.166666667 363.5 100.5 c 128
 361.833333333 88.8333333333 361 80 361 74 c 0
 361 63.3333333333 362.166666667 54.1666666667 364.5 46.5 c 128
 366.833333333 38.8333333333 374 33.3333333333 386 30 c 1
 386 15 l 1
 300 3 l 2
 294.666666667 2.33333333333 288.666666667 1.66666666667 282 1 c 128
 275.333333333 0.333333333333 269.333333333 0 264 0 c 0
 245.333333333 0 233.333333333 4 228 12 c 128
 222.666666667 20 220 33 220 51 c 0
 220 56.3333333333 220.666666667 63.3333333333 222 72 c 128
 223.333333333 80.6666666667 224.666666667 88.6666666667 226 96 c 2
 251 238 l 1
 234.333333333 236 216 234 196 232 c 128
 176 230 159.666666667 229 147 229 c 0
 127.666666667 229 109.666666667 231.333333333 93 236 c 128
 76.3333333333 240.666666667 63 249.166666667 53 261.5 c 128
 43 273.833333333 38 291.333333333 38 314 c 0
 38 348 46 375.666666667 62 397 c 128
 78 418.333333333 99 434.833333333 125 446.5 c 128
 151 458.166666667 178.833333333 466.5 208.5 471.5 c 128
 238.166666667 476.5 266.333333333 479.666666667 293 481 c 1
 296.333333333 498.333333333 299.5 517.833333333 302.5 539.5 c 128
 305.5 561.166666667 307 576.666666667 307 586 c 0
 307 598 304.5 608.333333333 299.5 617 c 128
 294.5 625.666666667 286 631.666666667 274 635 c 1
 274 646 l 1
 356 657 l 2
 362.666666667 657.666666667 369.833333333 658.333333333 377.5 659 c 128
 385.166666667 659.666666667 392.666666667 660 400 660 c 0
 417.333333333 660 429.333333333 655.833333333 436 647.5 c 128
 442.666666667 639.166666667 446 627 446 611 c 0
 446 599.666666667 444.666666667 583.5 442 562.5 c 128
 439.333333333 541.5 435.333333333 518.333333333 430 493 c 1
 464 497.666666667 497.333333333 500 530 500 c 0
 561.333333333 500 587.333333333 492.166666667 608 476.5 c 128
 628.666666667 460.833333333 639 436 639 402 c 0
286 442 m 1
 252 442 225.666666667 434.333333333 207 419 c 128
 188.333333333 403.666666667 179 378.333333333 179 343 c 0
 179 323.666666667 183 307.333333333 191 294 c 128
 199 280.666666667 213.666666667 274 235 274 c 0
 243 274 250.333333333 274.666666667 257 276 c 1
 286 442 l 1
494 387 m 0
 494 402.333333333 490.333333333 417.5 483 432.5 c 128
 475.666666667 447.5 462.666666667 455 444 455 c 2
 424 455 l 1
 395 287 l 1
 399.666666667 286.333333333 403 286 405 286 c 0
 422.333333333 286 437.666666667 291 451 301 c 128
 464.333333333 311 474.833333333 323.833333333 482.5 339.5 c 128
 490.166666667 355.166666667 494 371 494 387 c 0
EndSplineSet
EndChar
StartChar: uni1244
Encoding: 4676 4676 6391
Width: 666
Flags: HW
AnchorPoint: "Ethiopic Mark" 371 664 basechar 0
LayerCount: 2
Fore
SplineSet
638 402 m 0
 638 354 617.166666667 318.833333333 575.5 296.5 c 128
 533.833333333 274.166666667 471.666666667 258.666666667 389 250 c 1
 379 192 l 1
 389.666666667 192 400.166666667 192.166666667 410.5 192.5 c 128
 420.833333333 192.833333333 431 193.333333333 441 194 c 0
 451 194.666666667 460.666666667 195.666666667 470 197 c 128
 479.333333333 198.333333333 489 199 499 199 c 0
 524.333333333 199 544 193 558 181 c 128
 572 169 579 150 579 124 c 0
 579 96.6666666667 570.333333333 72.8333333333 553 52.5 c 128
 535.666666667 32.1666666667 513 21.3333333333 485 20 c 0
 471 19.3333333333 457.166666667 18.6666666667 443.5 18 c 128
 429.833333333 17.3333333333 416.333333333 16.6666666667 403 16 c 0
 390.333333333 16 377.666666667 15 365 13 c 128
 352.333333333 11 340 9 328 7 c 0
 318.666666667 5.66666666667 309.166666667 4.16666666667 299.5 2.5 c 128
 289.833333333 0.833333333333 280.333333333 0 271 0 c 0
 254.333333333 0 241.666666667 2.5 233 7.5 c 128
 224.333333333 12.5 220 25 220 45 c 0
 220 51.6666666667 221 60.3333333333 223 71 c 128
 225 81.6666666667 226.666666667 91.3333333333 228 100 c 2
 251 239 l 1
 234.333333333 237 215.166666667 234.833333333 193.5 232.5 c 128
 171.833333333 230.166666667 156 229 146 229 c 0
 126.666666667 229 108.666666667 231.333333333 92 236 c 128
 75.3333333333 240.666666667 62 249.166666667 52 261.5 c 128
 42 273.833333333 37 291.333333333 37 314 c 0
 37 348 45 375.666666667 61 397 c 128
 77 418.333333333 98 434.833333333 124 446.5 c 128
 150 458.166666667 177.833333333 466.5 207.5 471.5 c 128
 237.166666667 476.5 265.333333333 479.666666667 292 481 c 1
 294.666666667 498.333333333 297.666666667 517.333333333 301 538 c 128
 304.333333333 558.666666667 306 574.666666667 306 586 c 0
 306 598 303.5 608.333333333 298.5 617 c 128
 293.5 625.666666667 285 631.666666667 273 635 c 1
 273 646 l 1
 357 657 l 2
 363.666666667 657.666666667 370.5 658.333333333 377.5 659 c 128
 384.5 659.666666667 391.666666667 660 399 660 c 0
 416.333333333 660 428.333333333 655.833333333 435 647.5 c 128
 441.666666667 639.166666667 445 627 445 611 c 0
 445 599 443.166666667 581 439.5 557 c 128
 435.833333333 533 432.333333333 511.666666667 429 493 c 1
 463 497.666666667 496.333333333 500 529 500 c 0
 560.333333333 500 586.333333333 492.166666667 607 476.5 c 128
 627.666666667 460.833333333 638 436 638 402 c 0
285 442 m 1
 251 442 224.666666667 434.333333333 206 419 c 128
 187.333333333 403.666666667 178 378.333333333 178 343 c 0
 178 323 182 306.5 190 293.5 c 128
 198 280.5 213 274 235 274 c 0
 243.666666667 274 251.333333333 274.666666667 258 276 c 1
 285 442 l 1
493 387 m 0
 493 402.333333333 489.333333333 417.5 482 432.5 c 128
 474.666666667 447.5 461.666666667 455 443 455 c 2
 423 455 l 1
 395 287 l 1
 399 286.333333333 402 286 404 286 c 0
 421.333333333 286 436.666666667 291 450 301 c 128
 463.333333333 311 473.833333333 323.833333333 481.5 339.5 c 128
 489.166666667 355.166666667 493 371 493 387 c 0
446 107 m 0
 446 123 442.666666667 135.833333333 436 145.5 c 128
 429.333333333 155.166666667 417.333333333 160 400 160 c 0
 396 160 391.666666667 159.833333333 387 159.5 c 128
 382.333333333 159.166666667 377.666666667 159 373 159 c 1
 371.666666667 151 370 140.5 368 127.5 c 128
 366 114.5 364.166666667 102.166666667 362.5 90.5 c 128
 360.833333333 78.8333333333 360 70.6666666667 360 66 c 0
 360 54.6666666667 363.333333333 48.5 370 47.5 c 128
 376.666666667 46.5 384.666666667 46 394 46 c 0
 411.333333333 46 424.333333333 52.1666666667 433 64.5 c 128
 441.666666667 76.8333333333 446 91 446 107 c 0
EndSplineSet
EndChar
StartChar: uni1246
Encoding: 4678 4678 6393
Width: 652
Flags: HW
AnchorPoint: "Ethiopic Mark" 381 707 basechar 0
LayerCount: 2
Fore
SplineSet
626 332 m 0
 626 303.333333333 618.333333333 279.5 603 260.5 c 128
 587.666666667 241.5 567.833333333 226.666666667 543.5 216 c 128
 519.166666667 205.333333333 493.666666667 197.833333333 467 193.5 c 128
 440.333333333 189.166666667 415.666666667 186.333333333 393 185 c 1
 392.333333333 177 391.166666667 166.166666667 389.5 152.5 c 128
 387.833333333 138.833333333 386.5 125.666666667 385.5 113 c 128
 384.5 100.333333333 384 91.3333333333 384 86 c 0
 384 68 386 55.6666666667 390 49 c 128
 394 42.3333333333 401 38 411 36 c 1
 411 20 l 1
 286 0 l 2
 283 0 283 0 281 0 c 128
 279 0 279 0 276 0 c 0
 261.333333333 2 252.5 8.83333333333 249.5 20.5 c 128
 246.5 32.1666666667 245 44 245 56 c 0
 245 61.3333333333 245.5 68.3333333333 246.5 77 c 128
 247.5 85.6666666667 248.333333333 93.6666666667 249 101 c 2
 257 166 l 1
 237 162 216.5 158.333333333 195.5 155 c 128
 174.5 151.666666667 153.666666667 150 133 150 c 0
 71 150 40 180 40 240 c 0
 40 269.333333333 50.6666666667 294 72 314 c 128
 93.3333333333 334 121.666666667 350.5 157 363.5 c 128
 192.333333333 376.5 230.333333333 387.666666667 271 397 c 1
 265.666666667 409 258.5 422.666666667 249.5 438 c 128
 240.5 453.333333333 232.5 468.833333333 225.5 484.5 c 128
 218.5 500.166666667 215 514.333333333 215 527 c 0
 215 551 221.5 571.666666667 234.5 589 c 128
 247.5 606.333333333 264.166666667 620.666666667 284.5 632 c 128
 304.833333333 643.333333333 326.5 651.833333333 349.5 657.5 c 128
 372.5 663.166666667 394 666 414 666 c 0
 434 666 453.166666667 663.333333333 471.5 658 c 128
 489.833333333 652.666666667 504.666666667 643.5 516 630.5 c 128
 527.333333333 617.5 533 599.333333333 533 576 c 0
 533 552 527.166666667 531.5 515.5 514.5 c 128
 503.833333333 497.5 489 482.833333333 471 470.5 c 128
 453 458.166666667 434.666666667 446.666666667 416 436 c 1
 414 409 l 1
 431.333333333 412.333333333 448.666666667 415.333333333 466 418 c 128
 483.333333333 420.666666667 500.666666667 422 518 422 c 0
 546 422 571 414.666666667 593 400 c 128
 615 385.333333333 626 362.666666667 626 332 c 0
415 568 m 0
 415 576.666666667 414.333333333 586 413 596 c 128
 411.666666667 606 408.333333333 614.666666667 403 622 c 128
 397.666666667 629.333333333 389.333333333 633 378 633 c 0
 362 633 350.5 625.833333333 343.5 611.5 c 128
 336.5 597.166666667 333 583.333333333 333 570 c 0
 333 556 337.5 539.333333333 346.5 520 c 128
 355.5 500.666666667 365.333333333 482.666666667 376 466 c 1
 387.333333333 480.666666667 396.666666667 496.666666667 404 514 c 128
 411.333333333 531.333333333 415 549.333333333 415 568 c 0
488 308 m 0
 488 323.333333333 483.333333333 338.333333333 474 353 c 128
 464.666666667 367.666666667 451.333333333 375 434 375 c 0
 428 375 428 375 422.5 375 c 128
 418.833333333 375 415 374.333333333 411 373 c 1
 409.666666667 347.666666667 407.666666667 322.333333333 405 297 c 128
 401 259 401 259 397 221 c 1
 401.666666667 220.333333333 406.666666667 220 412 220 c 0
 440 220 459.666666667 228.166666667 471 244.5 c 128
 482.333333333 260.833333333 488 282 488 308 c 0
277 363 m 1
 247.666666667 355 224.166666667 344.666666667 206.5 332 c 128
 188.833333333 319.333333333 180 296.333333333 180 263 c 0
 180 240.333333333 186 225 198 217 c 128
 210 209 226.666666667 205 248 205 c 0
 251 205 251 205 254.5 205 c 128
 258 205 258 205 261 205 c 1
 263.666666667 231.666666667 266.5 258 269.5 284 c 128
 272.5 310 275 336.333333333 277 363 c 1
EndSplineSet
EndChar
StartChar: uni124B
Encoding: 4683 4683 6397
Width: 626
Flags: HW
AnchorPoint: "Ethiopic Mark" 354 745 basechar 0
LayerCount: 2
Fore
SplineSet
600 496 m 0
 600 483.333333333 598.166666667 471.166666667 594.5 459.5 c 128
 590.833333333 447.833333333 586 436.666666667 580 426 c 0
 561.333333333 393.333333333 534.833333333 368.5 500.5 351.5 c 128
 466.166666667 334.5 430.333333333 326 393 326 c 0
 389.666666667 326 386 326.166666667 382 326.5 c 128
 378 326.833333333 374.333333333 327 371 327 c 1
 354 207 l 1
 499 207 l 1
 499 98 l 2
 499 90 500.666666667 79.3333333333 504 66 c 128
 507.333333333 52.6666666667 512.666666667 43.3333333333 520 38 c 1
 520 21 l 1
 509.333333333 19 497 16.3333333333 483 13 c 128
 469 9.66666666667 455.5 6.83333333333 442.5 4.5 c 128
 429.5 2.16666666667 419.333333333 1 412 1 c 0
 382 1 366.666666667 16 366 46 c 0
 366 78 366 78 366 110 c 128
 366 142 366 142 366 174 c 1
 212 174 l 1
 213.333333333 151.333333333 207.5 131.5 194.5 114.5 c 128
 181.5 97.5 165.333333333 84.3333333333 146 75 c 128
 126.666666667 65.6666666667 108 61 90 61 c 0
 76.6666666667 61 64.6666666667 64 54 70 c 1
 60 77.3333333333 64.8333333333 88.1666666667 68.5 102.5 c 128
 72.1666666667 116.833333333 75 131.5 77 146.5 c 128
 79 161.5 80 173.666666667 80 183 c 0
 80 191 79.3333333333 199 78 207 c 1
 221 207 l 1
 238 327 l 1
 224.666666667 323.666666667 210.666666667 320.5 196 317.5 c 128
 181.333333333 314.5 167.333333333 313 154 313 c 0
 119.333333333 313 91.6666666667 323 71 343 c 128
 50.3333333333 363 40 390.666666667 40 426 c 0
 40 454 46.3333333333 478.5 59 499.5 c 128
 71.6666666667 520.5 88.5 538 109.5 552 c 128
 130.5 566 153.5 576.666666667 178.5 584 c 128
 203.5 591.333333333 228.333333333 595 253 595 c 0
 258 595 258 595 263 595 c 128
 266.333333333 595 269.666666667 594.666666667 273 594 c 1
 274.333333333 604 275.833333333 614.666666667 277.5 626 c 128
 279.166666667 637.333333333 280 646.666666667 280 654 c 0
 280 666 277.666666667 675.333333333 273 682 c 128
 268.333333333 688.666666667 259.666666667 692.666666667 247 694 c 1
 247 707 l 1
 345 723 l 2
 355.666666667 725 366.666666667 726 378 726 c 0
 394 726 403.833333333 720.333333333 407.5 709 c 128
 411.166666667 697.666666667 413 686 413 674 c 0
 413 664 412.5 652.333333333 411.5 639 c 128
 410.5 625.666666667 409 612.666666667 407 600 c 1
 421 605.333333333 435.333333333 609 450 611 c 128
 464.666666667 613 479 614 493 614 c 0
 514.333333333 614 533 608.5 549 597.5 c 128
 565 586.5 577.5 572 586.5 554 c 128
 595.5 536 600 516.666666667 600 496 c 0
460 492 m 256
 460 500.666666667 458.5 510.333333333 455.5 521 c 128
 452.5 531.666666667 447.833333333 540.666666667 441.5 548 c 128
 435.166666667 555.333333333 426.333333333 559 415 559 c 0
 412 559 412 559 408.5 559 c 128
 406.166666667 559 404 558.666666667 402 558 c 1
 376 368 l 1
 384 365.333333333 391.333333333 364 398 364 c 0
 410 364 420 368.833333333 428 378.5 c 128
 436 388.166666667 442.333333333 400.333333333 447 415 c 128
 451.666666667 429.666666667 455 444 457 458 c 128
 459 472 460 483.333333333 460 492 c 256
268 556 m 1
 264 556.666666667 259.333333333 557.333333333 254 558 c 0
 232.666666667 558 215.833333333 551 203.5 537 c 128
 191.166666667 523 182.333333333 506.166666667 177 486.5 c 128
 171.666666667 466.833333333 169 448.333333333 169 431 c 0
 169 414.333333333 172.166666667 399.166666667 178.5 385.5 c 128
 184.833333333 371.833333333 198 365 218 365 c 0
 222 365 226.166666667 365.333333333 230.5 366 c 128
 234.833333333 366.666666667 239 367.333333333 243 368 c 1
 268 556 l 1
EndSplineSet
EndChar
StartChar: uni1250
Encoding: 4688 4688 6400
Width: 679
Flags: HW
AnchorPoint: "Ethiopic Mark" 372 753 basechar 0
LayerCount: 2
Fore
SplineSet
671 656 m 1
 661 646 646.333333333 639 627 635 c 128
 607.666666667 631 591.333333333 629 578 629 c 0
 558 629 540 631.5 524 636.5 c 128
 508 641.5 494.666666667 653.333333333 484 672 c 1
 439 667 l 1
 443 658.333333333 445.833333333 649.166666667 447.5 639.5 c 128
 449.166666667 629.833333333 450 620.333333333 450 611 c 0
 450 595 448.666666667 578.666666667 446 562 c 128
 443.333333333 545.333333333 440.666666667 529 438 513 c 1
 455.333333333 515.666666667 472.833333333 517.666666667 490.5 519 c 128
 508.166666667 520.333333333 525.666666667 521 543 521 c 0
 571.666666667 521 596.166666667 512.333333333 616.5 495 c 128
 636.833333333 477.666666667 647 454 647 424 c 0
 647 395.333333333 636.333333333 370.833333333 615 350.5 c 128
 593.666666667 330.166666667 564.666666667 314.333333333 528 303 c 128
 491.333333333 291.666666667 450.333333333 284.333333333 405 281 c 1
 381 113 l 2
 380.333333333 107 379.5 100.5 378.5 93.5 c 128
 377.5 86.5 377 80 377 74 c 0
 377 62.6666666667 379.166666667 52.6666666667 383.5 44 c 128
 387.833333333 35.3333333333 395.666666667 29.3333333333 407 26 c 1
 407 12 l 1
 391.666666667 11.3333333333 376.166666667 10 360.5 8 c 128
 344.833333333 6 329.333333333 4 314 2 c 0
 308.666666667 1.33333333333 303.166666667 0.833333333333 297.5 0.5 c 128
 291.833333333 0.166666666667 286 0 280 -0 c 0
 262 0 250 2.83333333333 244 8.5 c 128
 238 14.1666666667 235 26.3333333333 235 45 c 0
 235 53.6666666667 235.833333333 63 237.5 73 c 128
 239.166666667 83 240.666666667 92.3333333333 242 101 c 2
 266 265 l 1
 250 262.333333333 233.166666667 259.666666667 215.5 257 c 128
 197.833333333 254.333333333 181 253 165 253 c 0
 144.333333333 253 125 256 107 262 c 128
 89 268 74.5 277.833333333 63.5 291.5 c 128
 52.5 305.166666667 47 323.666666667 47 347 c 0
 47 367 53.3333333333 385.666666667 66 403 c 0
 81.3333333333 425.666666667 102.5 443.5 129.5 456.5 c 128
 156.5 469.5 184.833333333 479 214.5 485 c 128
 244.166666667 491 271.666666667 494.666666667 297 496 c 1
 307 565 l 2
 307.666666667 572.333333333 308.666666667 580 310 588 c 128
 311.333333333 596 312 603.333333333 312 610 c 0
 312 617.333333333 311.166666667 625 309.5 633 c 128
 307.833333333 641 304 647.333333333 298 652 c 1
 239 646 l 1
 237.666666667 629.333333333 229.833333333 615.333333333 215.5 604 c 128
 201.166666667 592.666666667 186 586 170 584 c 0
 160 583.333333333 150 583 140 583 c 0
 137.333333333 583 131.166666667 583.333333333 121.5 584 c 128
 111.833333333 584.666666667 102.666666667 586.166666667 94 588.5 c 128
 85.3333333333 590.833333333 81 594 81 598 c 1
 84.3333333333 605.333333333 87.3333333333 613 90 621 c 128
 92.6666666667 629 94 637.333333333 94 646 c 0
 94 661.333333333 92 675.5 88 688.5 c 128
 84 701.5 76.6666666667 714 66 726 c 1
 81.3333333333 730 95.6666666667 733.666666667 109 737 c 128
 122.333333333 740.333333333 137 742 153 742 c 0
 174.333333333 742 193.833333333 737.833333333 211.5 729.5 c 128
 229.166666667 721.166666667 239.333333333 705 242 681 c 1
 479 707 l 1
 483 729.666666667 491.333333333 746.5 504 757.5 c 128
 516.666666667 768.5 532.333333333 776 551 780 c 128
 569.666666667 784 588.666666667 786 608 786 c 0
 616 786 624 785.333333333 632 784 c 128
 640 782.666666667 647.666666667 781 655 779 c 1
 654 777 l 2
 648.666666667 768.333333333 645 760.833333333 643 754.5 c 128
 641 748.166666667 640 739.666666667 640 729 c 0
 640 713.666666667 642 700 646 688 c 128
 650 676 658.333333333 665.333333333 671 656 c 1
507 410 m 0
 507 428 502.166666667 443.666666667 492.5 457 c 128
 482.833333333 470.333333333 468.333333333 477 449 477 c 0
 447.666666667 477 445 476.833333333 441 476.5 c 128
 437 476.166666667 434.333333333 475.666666667 433 475 c 1
 411 317 l 1
 440.333333333 317 463.666666667 325 481 341 c 128
 498.333333333 357 507 380 507 410 c 0
292 457 m 1
 259.333333333 457 234 449.166666667 216 433.5 c 128
 198 417.833333333 189 393 189 359 c 0
 189 339.666666667 193.5 324.833333333 202.5 314.5 c 128
 211.5 304.166666667 226 299 246 299 c 0
 253.333333333 299 261.666666667 299.666666667 271 301 c 1
 292 457 l 1
EndSplineSet
EndChar
StartChar: uni1251
Encoding: 4689 4689 6401
Width: 699
Flags: HW
AnchorPoint: "Ethiopic Mark" 363 767 basechar 0
LayerCount: 2
Fore
SplineSet
659 649 m 1
 643 640.333333333 630 634.333333333 620 631 c 128
 610 627.666666667 596 626 578 626 c 0
 559.333333333 626 540.333333333 630.5 521 639.5 c 128
 501.666666667 648.5 488.666666667 662.666666667 482 682 c 1
 414 674 l 1
 421.333333333 666 426.333333333 655.833333333 429 643.5 c 128
 431.666666667 631.166666667 433 620 433 610 c 0
 433 592 432.333333333 574 431 556 c 128
 429 529 429 529 427 502 c 1
 447.666666667 505.333333333 468.5 508.333333333 489.5 511 c 128
 510.5 513.666666667 531.333333333 515 552 515 c 0
 580.666666667 515 603.333333333 506.833333333 620 490.5 c 128
 636.666666667 474.166666667 645 451.666666667 645 423 c 256
 645 394.333333333 637 370.166666667 621 350.5 c 128
 605 330.833333333 584.666666667 315.166666667 560 303.5 c 128
 535.333333333 291.833333333 509.5 282.833333333 482.5 276.5 c 128
 455.5 270.166666667 430.666666667 265.666666667 408 263 c 1
 401 176 l 1
 472 181 l 1
 478.666666667 195.666666667 489.333333333 207.166666667 504 215.5 c 128
 518.666666667 223.833333333 534.666666667 229.833333333 552 233.5 c 128
 569.333333333 237.166666667 585 239 599 239 c 0
 603.666666667 239 610.166666667 238.666666667 618.5 238 c 128
 626.833333333 237.333333333 633 235.666666667 637 233 c 1
 632.333333333 228.333333333 629.333333333 220 628 208 c 128
 626.666666667 196 626 186.666666667 626 180 c 0
 626 164 628.166666667 150.833333333 632.5 140.5 c 128
 636.833333333 130.166666667 645 119.666666667 657 109 c 1
 653 103.666666667 645.5 99.1666666667 634.5 95.5 c 128
 623.5 91.8333333333 612 89.1666666667 600 87.5 c 128
 588 85.8333333333 578.666666667 85 572 85 c 0
 558.666666667 85 544.666666667 86.5 530 89.5 c 128
 515.333333333 92.5 502.666666667 98.3333333333 492 107 c 128
 481.333333333 115.666666667 475 128 473 144 c 1
 398 139 l 1
 397.333333333 129 396.5 118.166666667 395.5 106.5 c 128
 394.5 94.8333333333 394 86.3333333333 394 81 c 0
 394 69.6666666667 396.333333333 60.3333333333 401 53 c 128
 405.666666667 45.6666666667 413.666666667 40.3333333333 425 37 c 1
 425 22 l 1
 326 3 l 2
 320.666666667 2.33333333333 315.5 1.5 310.5 0.5 c 128
 305.5 -0.5 300.333333333 -1 295 -1 c 0
 277 -1 265.166666667 3 259.5 11 c 128
 253.833333333 19 251 32 251 50 c 0
 251 57.3333333333 251.166666667 64.8333333333 251.5 72.5 c 128
 251.833333333 80.1666666667 252.333333333 87.6666666667 253 95 c 2
 268 238 l 1
 252.666666667 234.666666667 234.666666667 230.833333333 214 226.5 c 128
 193.333333333 222.166666667 175.333333333 220 160 220 c 0
 127.333333333 220 100.333333333 226 79 238 c 128
 57.6666666667 250 47 274.333333333 47 311 c 0
 47 338.333333333 55.3333333333 361.833333333 72 381.5 c 128
 88.6666666667 401.166666667 109.833333333 417.333333333 135.5 430 c 128
 161.166666667 442.666666667 187.666666667 452.666666667 215 460 c 128
 242.333333333 467.333333333 266.666666667 472 288 474 c 1
 289.333333333 488 290.833333333 502.5 292.5 517.5 c 128
 294.166666667 532.5 295 547.333333333 295 562 c 0
 295 577.333333333 294.166666667 594.5 292.5 613.5 c 128
 290.833333333 632.5 282.666666667 647 268 657 c 1
 206 650 l 1
 206 648.666666667 206.333333333 646 207 642 c 0
 207 625.333333333 202.333333333 612 193 602 c 128
 183.666666667 592 171.833333333 584.333333333 157.5 579 c 128
 143.166666667 573.666666667 128.166666667 570 112.5 568 c 128
 96.8333333333 566 83 565 71 565 c 0
 65 565 57 565.5 47 566.5 c 128
 37 567.5 29 569.333333333 23 572 c 1
 30.3333333333 577.333333333 35.1666666667 587.666666667 37.5 603 c 128
 39.8333333333 618.333333333 41 630.333333333 41 639 c 0
 41 651 39.6666666667 664 37 678 c 128
 34.3333333333 692 29.6666666667 704 23 714 c 1
 36.3333333333 717.333333333 49.5 720.166666667 62.5 722.5 c 128
 75.5 724.833333333 88.6666666667 726 102 726 c 0
 118.666666667 726 137.166666667 723.666666667 157.5 719 c 128
 177.833333333 714.333333333 192.333333333 703.666666667 201 687 c 1
 475 717 l 1
 478.333333333 735 486.166666667 749.333333333 498.5 760 c 128
 510.833333333 770.666666667 525.5 778.333333333 542.5 783 c 128
 559.5 787.666666667 576 790 592 790 c 0
 599.333333333 790 607 789.5 615 788.5 c 128
 623 787.5 630.333333333 785.666666667 637 783 c 1
 629 764.333333333 625 745 625 725 c 0
 625 718.333333333 626.833333333 709.833333333 630.5 699.5 c 128
 634.166666667 689.166666667 638.666666667 679.166666667 644 669.5 c 128
 649.333333333 659.833333333 654.333333333 653 659 649 c 1
285 437 m 1
 223 432.333333333 192 398 192 334 c 0
 192 293.333333333 211.333333333 273 250 273 c 0
 257.333333333 273 264.333333333 273.666666667 271 275 c 1
 285 437 l 1
500 398 m 0
 500 414 495.666666667 429.333333333 487 444 c 128
 478.333333333 458.666666667 464.666666667 466 446 466 c 0
 438.666666667 466 431.333333333 465 424 463 c 1
 412 305 l 1
 428 305 l 2
 458 305 477.5 313.833333333 486.5 331.5 c 128
 495.5 349.166666667 500 371.333333333 500 398 c 0
EndSplineSet
EndChar
StartChar: uni1253
Encoding: 4691 4691 6403
Width: 792
Flags: HW
AnchorPoint: "Ethiopic Mark" 465 730 basechar 0
LayerCount: 2
Fore
SplineSet
767 399 m 0
 767 371 759.5 348.333333333 744.5 331 c 128
 729.5 313.666666667 710.5 300.166666667 687.5 290.5 c 128
 664.5 280.833333333 640.166666667 274.166666667 614.5 270.5 c 128
 588.833333333 266.833333333 565.333333333 264.333333333 544 263 c 1
 542.666666667 225.666666667 535 196.333333333 521 175 c 128
 507 153.666666667 487.666666667 137 463 125 c 128
 438.333333333 113 409.333333333 103 376 95 c 0
 350 89 323.666666667 83.6666666667 297 79 c 128
 270.333333333 74.3333333333 244 70 218 66 c 1
 217.333333333 44 212 23.1666666667 202 3.5 c 128
 192 -16.1666666667 178.166666667 -32 160.5 -44 c 128
 142.833333333 -56 122.333333333 -62 99 -62 c 0
 89.6666666667 -62 79.6666666667 -60.3333333333 69 -57 c 128
 58.3333333333 -53.6666666667 49 -49.6666666667 41 -45 c 1
 49.6666666667 -43.6666666667 56 -37.1666666667 60 -25.5 c 128
 64 -13.8333333333 66.8333333333 -1.5 68.5 11.5 c 128
 70.1666666667 24.5 71 34 71 40 c 0
 71 55.3333333333 68.6666666667 70 64 84 c 1
 105 88 105 88 146 92 c 128
 173.333333333 94.6666666667 200.333333333 98 227 102 c 0
 242.333333333 104.666666667 258 107.333333333 274 110 c 128
 290 112.666666667 305.333333333 116.666666667 320 122 c 0
 355.333333333 133.333333333 380.333333333 148.833333333 395 168.5 c 128
 409.666666667 188.166666667 417 216.666666667 417 254 c 2
 417 256 l 1
 397 253.333333333 376.5 250.833333333 355.5 248.5 c 128
 334.5 246.166666667 314 245 294 245 c 0
 265.333333333 245 239.666666667 252 217 266 c 128
 194.333333333 280 183 303 183 335 c 0
 183 363 191.333333333 385.333333333 208 402 c 128
 224.666666667 418.666666667 245.666666667 431.5 271 440.5 c 128
 296.333333333 449.5 322.333333333 456 349 460 c 128
 375.666666667 464 399 467 419 469 c 1
 419 543 l 2
 419 557 415.833333333 570.666666667 409.5 584 c 128
 403.166666667 597.333333333 394.666666667 608 384 616 c 1
 337 611 l 1
 335.666666667 597.666666667 328 585.833333333 314 575.5 c 128
 300 565.166666667 284.333333333 557 267 551 c 128
 249.666666667 545 235.333333333 542 224 542 c 0
 213 542 213 542 194 542 c 128
 181.333333333 542 171.666666667 544.666666667 165 550 c 1
 174.333333333 560.666666667 181 572 185 584 c 128
 189 596 191 609 191 623 c 0
 191 634.333333333 188.333333333 645.833333333 183 657.5 c 128
 177.666666667 669.166666667 171.333333333 679.333333333 164 688 c 1
 179.333333333 692 193.666666667 695.666666667 207 699 c 128
 220.333333333 702.333333333 235 704 251 704 c 0
 270.333333333 704 289.166666667 700.166666667 307.5 692.5 c 128
 325.833333333 684.833333333 336.333333333 669.666666667 339 647 c 1
 575 671 l 1
 579 693.666666667 587.5 710.666666667 600.5 722 c 128
 613.5 733.333333333 629.333333333 740.833333333 648 744.5 c 128
 666.666666667 748.166666667 685.666666667 750 705 750 c 0
 713 750 721 749.5 729 748.5 c 128
 737 747.5 744.666666667 746 752 744 c 1
 746 734.666666667 741 726.166666667 737 718.5 c 128
 733 710.833333333 731 701.333333333 731 690 c 0
 731 675.333333333 733.166666667 661.666666667 737.5 649 c 128
 741.833333333 636.333333333 750.333333333 625.666666667 763 617 c 1
 753 607 738.833333333 600.666666667 720.5 598 c 128
 702.166666667 595.333333333 686.666666667 594 674 594 c 0
 654 594 636.166666667 596.5 620.5 601.5 c 128
 604.833333333 606.5 591.666666667 618.333333333 581 637 c 1
 533 632 l 1
 539 620.666666667 542.666666667 603.166666667 544 579.5 c 128
 545.333333333 555.833333333 546 522.666666667 546 480 c 1
 564.666666667 484 583.833333333 486.833333333 603.5 488.5 c 128
 623.166666667 490.166666667 642.333333333 491 661 491 c 0
 689 491 713.666666667 483.333333333 735 468 c 128
 756.333333333 452.666666667 767 429.666666667 767 399 c 0
638 389 m 0
 638 405 632.333333333 419 621 431 c 128
 609.666666667 443 596 449 580 449 c 0
 571 449 571 449 562.5 449 c 128
 556.833333333 449 551 448.333333333 545 447 c 1
 545 301 l 1
 552 300 552 300 559 299 c 0
 586.333333333 299 606.333333333 307.666666667 619 325 c 128
 631.666666667 342.333333333 638 363.666666667 638 389 c 0
418 432 m 1
 389.333333333 431.333333333 365.166666667 425.166666667 345.5 413.5 c 128
 325.833333333 401.833333333 316 379.666666667 316 347 c 0
 316 305.666666667 335.666666667 285 375 285 c 0
 389 285 403.333333333 287 418 291 c 1
 418 432 l 1
EndSplineSet
EndChar
StartChar: uni1254
Encoding: 4692 4692 6404
Width: 679
Flags: HW
AnchorPoint: "Ethiopic Mark" 375 750 basechar 0
LayerCount: 2
Fore
SplineSet
664 644 m 1
 654 634 640 627.666666667 622 625 c 128
 604 622.333333333 588.333333333 621 575 621 c 0
 555 621 537.166666667 623.5 521.5 628.5 c 128
 505.833333333 633.5 492.666666667 645.333333333 482 664 c 1
 438 659 l 1
 440 654.333333333 441.666666667 649 443 643 c 128
 444.333333333 637 445 629 445 619 c 0
 445 601 443.333333333 582.5 440 563.5 c 128
 436.666666667 544.5 433.666666667 526 431 508 c 1
 445.666666667 510 460.833333333 511.5 476.5 512.5 c 128
 492.166666667 513.5 507.333333333 514 522 514 c 0
 542 514 561.5 511.166666667 580.5 505.5 c 128
 599.5 499.833333333 615.166666667 490.333333333 627.5 477 c 128
 639.833333333 463.666666667 646 445 646 421 c 0
 646 391.666666667 637.333333333 367.833333333 620 349.5 c 128
 602.666666667 331.166666667 581 317 555 307 c 128
 529 297 502 289.666666667 474 285 c 128
 446 280.333333333 421 277 399 275 c 1
 387 192 l 1
 397 192 407 192.166666667 417 192.5 c 128
 427 192.833333333 437 193.333333333 447 194 c 0
 457.666666667 194.666666667 468 195.666666667 478 197 c 128
 488 198.333333333 498.333333333 199 509 199 c 0
 534.333333333 199 554 193 568 181 c 128
 582 169 589 150 589 124 c 0
 589 96.6666666667 580.333333333 72.8333333333 563 52.5 c 128
 545.666666667 32.1666666667 523 21.3333333333 495 20 c 0
 481 19.3333333333 467.333333333 18.6666666667 454 18 c 128
 440.666666667 17.3333333333 427 16.6666666667 413 16 c 0
 400.333333333 16 387.666666667 15 375 13 c 128
 356 10 356 10 337 7 c 0
 327.666666667 5.66666666667 318.333333333 4.16666666667 309 2.5 c 128
 299.666666667 0.833333333333 290.333333333 0 281 0 c 0
 264.333333333 0 251.666666667 2.5 243 7.5 c 128
 234.333333333 12.5 230 25 230 45 c 0
 230 54.3333333333 230.666666667 64.3333333333 232 75 c 128
 233.333333333 85.6666666667 234.666666667 95.6666666667 236 105 c 2
 261 259 l 1
 243.666666667 257 224.333333333 254.666666667 203 252 c 128
 181.666666667 249.333333333 165 248 153 248 c 0
 123.666666667 248 98.1666666667 254.5 76.5 267.5 c 128
 54.8333333333 280.5 44 303.333333333 44 336 c 0
 44 364 53 387.333333333 71 406 c 128
 89 424.666666667 111.5 439.833333333 138.5 451.5 c 128
 165.5 463.166666667 193.166666667 472 221.5 478 c 128
 249.833333333 484 274.333333333 488 295 490 c 1
 297.666666667 508.666666667 300.666666667 528 304 548 c 128
 307.333333333 568 309 587.666666667 309 607 c 0
 309 626.333333333 304 638.666666667 294 644 c 1
 238 638 l 1
 237.333333333 624.666666667 229.833333333 612.833333333 215.5 602.5 c 128
 201.166666667 592.166666667 185.333333333 584 168 578 c 128
 150.666666667 572 136.333333333 569 125 569 c 0
 113 569 113 569 94.5 569 c 128
 82.1666666667 569 72.6666666667 571.666666667 66 577 c 1
 75.3333333333 587.666666667 82 599 86 611 c 128
 90 623 92 636 92 650 c 0
 92 661.333333333 89.3333333333 672.833333333 84 684.5 c 128
 78.6666666667 696.166666667 72.3333333333 706.333333333 65 715 c 1
 80.3333333333 719 94.6666666667 722.666666667 108 726 c 128
 121.333333333 729.333333333 136 731 152 731 c 0
 171.333333333 731 190.333333333 727.166666667 209 719.5 c 128
 227.666666667 711.833333333 238 696.666666667 240 674 c 1
 476 698 l 1
 480 720.666666667 488.5 737.666666667 501.5 749 c 128
 514.5 760.333333333 530.333333333 767.833333333 549 771.5 c 128
 567.666666667 775.166666667 586.666666667 777 606 777 c 0
 614 777 622 776.333333333 630 775 c 128
 638 773.666666667 645.666666667 772.333333333 653 771 c 1
 647 761.666666667 642 753.166666667 638 745.5 c 128
 634 737.833333333 632 728.333333333 632 717 c 0
 632 701.666666667 634 688 638 676 c 128
 642 664 650.666666667 653.333333333 664 644 c 1
506 406 m 0
 506 424.666666667 500.5 440.333333333 489.5 453 c 128
 478.5 465.666666667 463.333333333 472 444 472 c 0
 440 472 440 472 435 472 c 128
 431.666666667 472 428.666666667 471.666666667 426 471 c 1
 404 312 l 1
 408.666666667 311.333333333 412.333333333 311 415 311 c 0
 429 311 442.833333333 314 456.5 320 c 128
 470.166666667 326 481.833333333 336 491.5 350 c 128
 501.166666667 364 506 382.666666667 506 406 c 0
289 452 m 1
 258.333333333 450.666666667 232.833333333 442 212.5 426 c 128
 192.166666667 410 182 385.666666667 182 353 c 0
 182 313 201.333333333 293 240 293 c 0
 248.666666667 293 257.333333333 294 266 296 c 1
 289 452 l 1
456 107 m 256
 456 123 452.666666667 135.833333333 446 145.5 c 128
 439.333333333 155.166666667 427.333333333 160 410 160 c 0
 405.333333333 160 400.666666667 159.833333333 396 159.5 c 128
 391.333333333 159.166666667 386.666666667 159 382 159 c 1
 380 144.333333333 377.666666667 127.5 375 108.5 c 128
 372.333333333 89.5 371 75.6666666667 371 67 c 0
 371 59.6666666667 373 54.3333333333 377 51 c 128
 381 47.6666666667 390 46 404 46 c 0
 422 46 435.166666667 52.1666666667 443.5 64.5 c 128
 451.833333333 76.8333333333 456 91 456 107 c 256
EndSplineSet
EndChar
StartChar: uni1258
Encoding: 4696 4696 6407
Width: 720
Flags: HW
AnchorPoint: "Ethiopic Mark" 328 761 basechar 0
LayerCount: 2
Fore
SplineSet
688 153 m 0
 688 123.666666667 678.333333333 101.666666667 659 87 c 128
 639.666666667 72.3333333333 616.333333333 65 589 65 c 0
 577.666666667 65 566.333333333 66.5 555 69.5 c 128
 543.666666667 72.5 532.333333333 74 521 74 c 0
 508.333333333 74 496.333333333 71 485 65 c 128
 473.666666667 59 462.833333333 53 452.5 47 c 128
 442.166666667 41 432 38 422 38 c 0
 402 38 388.833333333 46 382.5 62 c 128
 376.166666667 78 373 94 373 110 c 0
 373 124 373.833333333 137.5 375.5 150.5 c 128
 377.166666667 163.5 380 173 384 179 c 1
 343 164 l 1
 341.666666667 151.333333333 340.166666667 138.5 338.5 125.5 c 128
 336.833333333 112.5 336 99.6666666667 336 87 c 0
 336 78.3333333333 336.833333333 70.6666666667 338.5 64 c 128
 340.166666667 57.3333333333 344.666666667 51 352 45 c 1
 352 30 l 1
 269 15 l 2
 263.666666667 14.3333333333 258 13.5 252 12.5 c 128
 246 11.5 240.666666667 11 236 11 c 0
 219.333333333 11 207.833333333 15.5 201.5 24.5 c 128
 195.166666667 33.5 192 46 192 62 c 0
 192 72 192.333333333 81.8333333333 193 91.5 c 128
 193.666666667 101.166666667 194.666666667 110.666666667 196 120 c 2
 214 271 l 1
 200 268.333333333 184.666666667 265.333333333 168 262 c 128
 151.333333333 258.666666667 137.666666667 257 127 257 c 0
 95.6666666667 257 72.5 266.5 57.5 285.5 c 128
 42.5 304.5 35 329 35 359 c 0
 35 401.666666667 44.3333333333 435.333333333 63 460 c 128
 81.6666666667 484.666666667 106.833333333 502.666666667 138.5 514 c 128
 170.166666667 525.333333333 205 532.666666667 243 536 c 1
 255 644 l 1
 207 637 l 1
 203.666666667 616.333333333 195 600.333333333 181 589 c 128
 167 577.666666667 150.666666667 570 132 566 c 128
 113.333333333 562 95 560 77 560 c 0
 71 560 63 560.5 53 561.5 c 128
 43 562.5 35 564.333333333 29 567 c 1
 39 575.666666667 45.8333333333 585.166666667 49.5 595.5 c 128
 53.1666666667 605.833333333 55 617.666666667 55 631 c 0
 55 646.333333333 52.6666666667 658.666666667 48 668 c 128
 43.3333333333 677.333333333 35.6666666667 687.333333333 25 698 c 1
 36.3333333333 705.333333333 51.3333333333 710.833333333 70 714.5 c 128
 88.6666666667 718.166666667 104.333333333 720 117 720 c 0
 135 720 151.5 716.166666667 166.5 708.5 c 128
 181.5 700.833333333 193.333333333 689 202 673 c 1
 444 708 l 1
 449.333333333 738.666666667 463.5 759.166666667 486.5 769.5 c 128
 509.5 779.833333333 535 785 563 785 c 0
 568.333333333 785 574.666666667 784.166666667 582 782.5 c 128
 589.333333333 780.833333333 595.666666667 779.333333333 601 778 c 1
 597 768.666666667 593.666666667 759.333333333 591 750 c 128
 588.333333333 740.666666667 587 731 587 721 c 0
 587 705.666666667 590.666666667 692.833333333 598 682.5 c 128
 605.333333333 672.166666667 614.333333333 662 625 652 c 1
 611 644 596.333333333 636.5 581 629.5 c 128
 565.666666667 622.5 549.333333333 619 532 619 c 0
 516 619 499.833333333 624.166666667 483.5 634.5 c 128
 467.166666667 644.833333333 456.333333333 657.666666667 451 673 c 1
 396 665 l 1
 383 545 l 1
 399 547 414.833333333 548.666666667 430.5 550 c 128
 446.166666667 551.333333333 462 552 478 552 c 0
 510 552 534 542.166666667 550 522.5 c 128
 566 502.833333333 574 477.666666667 574 447 c 0
 574 417.666666667 567.5 392.333333333 554.5 371 c 128
 541.5 349.666666667 524.166666667 332.5 502.5 319.5 c 128
 480.833333333 306.5 457.166666667 296.666666667 431.5 290 c 128
 405.833333333 283.333333333 380.333333333 279.333333333 355 278 c 1
 347 202 l 1
 366.333333333 208.666666667 388 215.5 412 222.5 c 128
 436 229.5 460 235.333333333 484 240 c 128
 508 244.666666667 530.333333333 247 551 247 c 256
 571.666666667 247 592.5 244.333333333 613.5 239 c 128
 634.5 233.666666667 652.166666667 224.333333333 666.5 211 c 128
 680.833333333 197.666666667 688 178.333333333 688 153 c 0
440 443 m 0
 440 451.666666667 438.5 461.5 435.5 472.5 c 128
 432.5 483.5 427.666666667 493 421 501 c 128
 414.333333333 509 405.666666667 513 395 513 c 0
 393 513 390.666666667 512.833333333 388 512.5 c 128
 385.333333333 512.166666667 382.666666667 511.666666667 380 511 c 1
 359 313 l 2
 360.333333333 313 361.5 312.833333333 362.5 312.5 c 128
 363.5 312.166666667 364.666666667 312 366 312 c 0
 380 312 391.666666667 316.666666667 401 326 c 128
 410.333333333 335.333333333 417.833333333 347.166666667 423.5 361.5 c 128
 429.166666667 375.833333333 433.333333333 390.333333333 436 405 c 128
 438.666666667 419.666666667 440 432.333333333 440 443 c 0
560 169 m 256
 560 177 558.333333333 186.166666667 555 196.5 c 128
 551.666666667 206.833333333 544.666666667 212 534 212 c 0
 521.333333333 212 512.166666667 208.166666667 506.5 200.5 c 128
 500.833333333 192.833333333 497.166666667 183.833333333 495.5 173.5 c 128
 493.833333333 163.166666667 493 153 493 143 c 0
 493 127 495.166666667 116.5 499.5 111.5 c 128
 503.833333333 106.5 510.666666667 104 520 104 c 0
 530.666666667 104 539 107.666666667 545 115 c 128
 551 122.333333333 555 131.166666667 557 141.5 c 128
 559 151.833333333 560 161 560 169 c 256
239 501 m 1
 210.333333333 495.666666667 189.666666667 480.666666667 177 456 c 128
 164.333333333 431.333333333 158 405.666666667 158 379 c 0
 158 359.666666667 161.666666667 342.833333333 169 328.5 c 128
 176.333333333 314.166666667 191 307 213 307 c 2
 218 307 l 1
 239 501 l 1
EndSplineSet
EndChar
StartChar: uni125C
Encoding: 4700 4700 6410
Width: 712
Flags: HW
AnchorPoint: "Ethiopic Mark" 429 775 basechar 0
LayerCount: 2
Fore
SplineSet
712 654 m 1
 697.333333333 643.333333333 683.666666667 635.5 671 630.5 c 128
 658.333333333 625.5 643 623 625 623 c 0
 609.666666667 623 592.666666667 627.833333333 574 637.5 c 128
 555.333333333 647.166666667 543.333333333 659.666666667 538 675 c 1
 481 667 l 1
 467 552 l 1
 496.333333333 556 526.666666667 558 558 558 c 0
 576.666666667 558 594.833333333 555.166666667 612.5 549.5 c 128
 630.166666667 543.833333333 644.5 534.5 655.5 521.5 c 128
 666.5 508.5 672 491 672 469 c 0
 672 441 664.166666667 417.833333333 648.5 399.5 c 128
 632.833333333 381.166666667 612.833333333 366.833333333 588.5 356.5 c 128
 564.166666667 346.166666667 538.833333333 338.666666667 512.5 334 c 128
 486.166666667 329.333333333 462 326.666666667 440 326 c 1
 438.666666667 314.666666667 437.333333333 303.5 436 292.5 c 128
 434.666666667 281.5 433.666666667 270.333333333 433 259 c 1
 453 259 472.833333333 259.166666667 492.5 259.5 c 128
 512.166666667 259.833333333 532 260 552 260 c 0
 575.333333333 260 593.333333333 256.5 606 249.5 c 128
 618.666666667 242.5 625 225.333333333 625 198 c 0
 625 161.333333333 613.166666667 134.833333333 589.5 118.5 c 128
 565.833333333 102.166666667 537.333333333 94 504 94 c 2
 447 94 l 2
 435 94 418.833333333 92.3333333333 398.5 89 c 128
 378.166666667 85.6666666667 356.5 81.5 333.5 76.5 c 128
 310.5 71.5 288.833333333 66.5 268.5 61.5 c 128
 248.166666667 56.5 231.666666667 52 219 48 c 1
 217.666666667 9.33333333333 205.833333333 -20.6666666667 183.5 -42 c 128
 161.166666667 -63.3333333333 130.666666667 -74 92 -74 c 0
 78 -74 63.6666666667 -72 49 -68 c 1
 53 -60.6666666667 56.8333333333 -50.8333333333 60.5 -38.5 c 128
 64.1666666667 -26.1666666667 67.3333333333 -13.5 70 -0.5 c 128
 72.6666666667 12.5 74 23 74 31 c 0
 74 37.6666666667 73.1666666667 44.8333333333 71.5 52.5 c 128
 69.8333333333 60.1666666667 68 67 66 73 c 1
 104.666666667 73.6666666667 140.833333333 75.6666666667 174.5 79 c 128
 208.166666667 82.3333333333 243.333333333 90.3333333333 280 103 c 1
 305 297 l 1
 291 295 276.833333333 292.666666667 262.5 290 c 128
 248.166666667 287.333333333 234 286 220 286 c 0
 202 286 184.333333333 289 167 295 c 128
 149.666666667 301 135.333333333 310.333333333 124 323 c 128
 112.666666667 335.666666667 107 352.333333333 107 373 c 0
 107 405.666666667 113.666666667 432.166666667 127 452.5 c 128
 140.333333333 472.833333333 158 488.333333333 180 499 c 128
 202 509.666666667 226.5 517.166666667 253.5 521.5 c 128
 280.5 525.833333333 307.333333333 528.666666667 334 530 c 1
 349 648 l 1
 280 638 l 1
 276.666666667 617.333333333 268.5 601.333333333 255.5 590 c 128
 242.5 578.666666667 227.333333333 571 210 567 c 128
 192.666666667 563 174.666666667 561 156 561 c 0
 150 561 142.333333333 561.166666667 133 561.5 c 128
 123.666666667 561.833333333 116 563 110 565 c 1
 120 574.333333333 126.5 584.5 129.5 595.5 c 128
 132.5 606.5 134 618.666666667 134 632 c 0
 134 648 132.333333333 660.333333333 129 669 c 128
 125.666666667 677.666666667 119.333333333 688.333333333 110 701 c 1
 121.333333333 708.333333333 135.166666667 713.5 151.5 716.5 c 128
 167.833333333 719.5 182.666666667 721 196 721 c 0
 232 721 258.333333333 705 275 673 c 1
 531 710 l 1
 531.666666667 732 538.166666667 748.5 550.5 759.5 c 128
 562.833333333 770.5 578 777.833333333 596 781.5 c 128
 614 785.166666667 632 787 650 787 c 0
 656 787 662.333333333 786.333333333 669 785 c 128
 675.666666667 783.666666667 682 782 688 780 c 1
 684 770.666666667 680.666666667 761.333333333 678 752 c 128
 675.333333333 742.666666667 674 733 674 723 c 0
 674 707.666666667 677.666666667 695 685 685 c 128
 692.333333333 675 701.333333333 664.666666667 712 654 c 1
532 457 m 0
 532 475 528.166666667 489.833333333 520.5 501.5 c 128
 512.833333333 513.166666667 499.333333333 519 480 519 c 0
 478.666666667 519 475.833333333 518.833333333 471.5 518.5 c 128
 467.166666667 518.166666667 464.333333333 517.666666667 463 517 c 1
 458 477 458 477 453 437 c 128
 449.666666667 410.333333333 446.666666667 383.666666667 444 357 c 1
 472 357.666666667 493.666666667 367.833333333 509 387.5 c 128
 524.333333333 407.166666667 532 430.333333333 532 457 c 0
330 497 m 1
 295.333333333 495 270.666666667 485.333333333 256 468 c 128
 241.333333333 450.666666667 234 425 234 391 c 0
 234 353 253.666666667 334 293 334 c 0
 297 334 297 334 301 334 c 128
 303.666666667 334 306.333333333 334.333333333 309 335 c 1
 330 497 l 1
498 182 m 0
 498 198.666666667 492.666666667 210.5 482 217.5 c 128
 471.333333333 224.5 458.333333333 228 443 228 c 0
 440 228 440 228 436.5 228 c 128
 433 228 433 228 429 228 c 1
 427.666666667 212 425.833333333 195.5 423.5 178.5 c 128
 421.166666667 161.5 419.333333333 145 418 129 c 1
 421.333333333 127.666666667 425.833333333 126.666666667 431.5 126 c 128
 437.166666667 125.333333333 442 125 446 125 c 0
 460 125 472.166666667 131.166666667 482.5 143.5 c 128
 492.833333333 155.833333333 498 168.666666667 498 182 c 0
EndSplineSet
EndChar
StartChar: uni125D
Encoding: 4701 4701 6411
Width: 985
Flags: HW
AnchorPoint: "Ethiopic Mark" 326 746 basechar 0
LayerCount: 2
Fore
SplineSet
949 320 m 1
 941 316.666666667 931.666666667 313.5 921 310.5 c 128
 910.333333333 307.5 900.666666667 306 892 306 c 0
 870.666666667 306 850.833333333 310.833333333 832.5 320.5 c 128
 814.166666667 330.166666667 799.833333333 343.666666667 789.5 361 c 128
 779.166666667 378.333333333 775.333333333 398.333333333 778 421 c 1
 572 408 l 1
 562 378 545.333333333 353.833333333 522 335.5 c 128
 498.666666667 317.166666667 472.166666667 303.5 442.5 294.5 c 128
 412.833333333 285.5 383.666666667 280.333333333 355 279 c 1
 339 130 l 2
 338.333333333 122.666666667 337.666666667 115.5 337 108.5 c 128
 336.333333333 101.5 336 94.3333333333 336 87 c 0
 336 77.6666666667 336.833333333 69.8333333333 338.5 63.5 c 128
 340.166666667 57.1666666667 344.666666667 51 352 45 c 1
 352 30 l 1
 267 15 l 2
 261.666666667 14.3333333333 256.5 13.5 251.5 12.5 c 128
 246.5 11.5 241.333333333 11 236 11 c 0
 219.333333333 11 207.833333333 15.5 201.5 24.5 c 128
 195.166666667 33.5 192 46 192 62 c 0
 192 72 192.333333333 82.1666666667 193 92.5 c 128
 193.666666667 102.833333333 194.666666667 112.666666667 196 122 c 2
 214 271 l 1
 200 268.333333333 185 265.333333333 169 262 c 128
 153 258.666666667 139 257 127 257 c 0
 95.6666666667 257 72.5 266.5 57.5 285.5 c 128
 42.5 304.5 35 329 35 359 c 0
 35 401.666666667 44.3333333333 435.333333333 63 460 c 128
 81.6666666667 484.666666667 106.833333333 502.666666667 138.5 514 c 128
 170.166666667 525.333333333 205 532.666666667 243 536 c 1
 255 646 l 1
 206 639 l 1
 202.666666667 618.333333333 194 602.333333333 180 591 c 128
 166 579.666666667 149.833333333 572 131.5 568 c 128
 113.166666667 564 94.6666666667 562 76 562 c 0
 70 562 62 562.5 52 563.5 c 128
 42 564.5 34 566.333333333 28 569 c 1
 38 577.666666667 44.8333333333 587.166666667 48.5 597.5 c 128
 52.1666666667 607.833333333 54 619.666666667 54 633 c 0
 54 648.333333333 51.6666666667 660.666666667 47 670 c 128
 42.3333333333 679.333333333 34.6666666667 689.333333333 24 700 c 1
 35.3333333333 707.333333333 50.3333333333 712.833333333 69 716.5 c 128
 87.6666666667 720.166666667 103.333333333 722 116 722 c 0
 134 722 150.5 718.166666667 165.5 710.5 c 128
 180.5 702.833333333 192.333333333 691 201 675 c 1
 443 710 l 1
 448.333333333 740.666666667 462.666666667 761.166666667 486 771.5 c 128
 509.333333333 781.833333333 534.666666667 787 562 787 c 0
 567.333333333 787 573.666666667 786.166666667 581 784.5 c 128
 588.333333333 782.833333333 594.666666667 781.333333333 600 780 c 1
 596 770.666666667 592.666666667 761.333333333 590 752 c 128
 587.333333333 742.666666667 586 733 586 723 c 0
 586 707 589.666666667 694 597 684 c 128
 604.333333333 674 613.333333333 664 624 654 c 1
 610 646 595.166666667 638.5 579.5 631.5 c 128
 563.833333333 624.5 547.666666667 621 531 621 c 0
 515.666666667 621 499.666666667 626.166666667 483 636.5 c 128
 466.333333333 646.833333333 455.333333333 659.666666667 450 675 c 1
 397 667 l 1
 383 545 l 1
 399 547 414.833333333 548.666666667 430.5 550 c 128
 446.166666667 551.333333333 462 552 478 552 c 0
 509.333333333 552 534.166666667 544.333333333 552.5 529 c 128
 570.833333333 513.666666667 580 489.333333333 580 456 c 0
 580 453 580 453 580 449.5 c 128
 580 447.166666667 579.666666667 444.666666667 579 442 c 1
 644 445 l 1
 644.666666667 454.333333333 646.166666667 465.833333333 648.5 479.5 c 128
 650.833333333 493.166666667 653 506 655 518 c 0
 655.666666667 525.333333333 654.166666667 530.833333333 650.5 534.5 c 128
 646.833333333 538.166666667 641.666666667 540.666666667 635 542 c 1
 635 556 l 1
 736 579 l 2
 741 580 741 580 746 581 c 128
 749.333333333 581.666666667 753 582 757 582 c 0
 777 582 787 572 787 552 c 0
 787 541.333333333 785.666666667 526.5 783 507.5 c 128
 780.333333333 488.5 778.333333333 471.666666667 777 457 c 1
 927 463 l 1
 925 451 923 438.833333333 921 426.5 c 128
 919 414.166666667 918 402 918 390 c 0
 918 378.666666667 920.333333333 365.5 925 350.5 c 128
 929.666666667 335.5 937.666666667 325.333333333 949 320 c 1
440 443 m 0
 440 451.666666667 438.5 461.5 435.5 472.5 c 128
 432.5 483.5 427.666666667 493 421 501 c 128
 414.333333333 509 405.666666667 513 395 513 c 0
 393 513 390.666666667 512.833333333 388 512.5 c 128
 385.333333333 512.166666667 382.666666667 511.666666667 380 511 c 1
 359 313 l 2
 360.333333333 313 361.5 312.833333333 362.5 312.5 c 128
 363.5 312.166666667 364.666666667 312 366 312 c 0
 380 312 391.666666667 316.666666667 401 326 c 128
 410.333333333 335.333333333 417.833333333 347.166666667 423.5 361.5 c 128
 429.166666667 375.833333333 433.333333333 390.333333333 436 405 c 128
 438.666666667 419.666666667 440 432.333333333 440 443 c 0
239 501 m 1
 210.333333333 495.666666667 189.666666667 480.666666667 177 456 c 128
 164.333333333 431.333333333 158 405.666666667 158 379 c 0
 158 359 161.333333333 342 168 328 c 128
 174.666666667 314 191.333333333 307 218 307 c 1
 239 501 l 1
EndSplineSet
EndChar
StartChar: uni1260
Encoding: 4704 4704 6412
Width: 533
Flags: HW
AnchorPoint: "Ethiopic Mark" 271 651 basechar 0
LayerCount: 2
Fore
SplineSet
492 17 m 1
 388 2 l 2
 379 1 379 1 370 0 c 0
 352 0 340.666666667 5.16666666667 336 15.5 c 128
 331.333333333 25.8333333333 329 38.6666666667 329 54 c 0
 329 74 329.666666667 98.3333333333 331 127 c 128
 332.333333333 155.666666667 333.833333333 186.166666667 335.5 218.5 c 128
 337.166666667 250.833333333 338.833333333 282.833333333 340.5 314.5 c 128
 342.166666667 346.166666667 343.5 375.333333333 344.5 402 c 128
 345.5 428.666666667 346 450.333333333 346 467 c 0
 346 507.666666667 339.833333333 539 327.5 561 c 128
 315.166666667 583 296.666666667 594 272 594 c 0
 264 594 256.333333333 592.833333333 249 590.5 c 128
 241.666666667 588.166666667 235 584 229 578 c 0
 225 574 220.166666667 566.5 214.5 555.5 c 128
 208.833333333 544.5 203.166666667 525.833333333 197.5 499.5 c 128
 191.833333333 473.166666667 187.333333333 435.5 184 386.5 c 128
 180.666666667 337.5 179 273 179 193 c 2
 179 144 l 2
 179 133 179 133 179 119 c 128
 179 109.666666667 179.333333333 101.333333333 180 94 c 0
 180.666666667 76.6666666667 182.833333333 62.8333333333 186.5 52.5 c 128
 190.166666667 42.1666666667 201 34.6666666667 219 30 c 1
 219 17 l 1
 118 2 l 2
 112 1.33333333333 106.333333333 0.666666666667 101 0 c 0
 88.3333333333 0 78.3333333333 4.66666666667 71 14 c 0
 65 22 60.3333333333 33.6666666667 57 49 c 128
 53.6666666667 64.3333333333 51.1666666667 81 49.5 99 c 128
 47.8333333333 117 47 134 47 150 c 128
 47 174 47 174 47 189 c 0
 47 223 47 223 47 257 c 128
 47 279.666666667 47.3333333333 302.333333333 48 325 c 0
 49.3333333333 362.333333333 52.1666666667 395.166666667 56.5 423.5 c 128
 60.8333333333 451.833333333 71.3333333333 482.666666667 88 516 c 0
 102.666666667 544.666666667 122.333333333 567.666666667 147 585 c 128
 171.666666667 602.333333333 198.833333333 614.666666667 228.5 622 c 128
 258.166666667 629.333333333 288.333333333 633 319 633 c 0
 360.333333333 633 392 624.833333333 414 608.5 c 128
 436 592.166666667 451.166666667 570 459.5 542 c 128
 467.833333333 514 472 482 472 446 c 0
 472 386 469.833333333 325.833333333 465.5 265.5 c 128
 461.166666667 205.166666667 459 145 459 85 c 0
 459 65 460.833333333 52.1666666667 464.5 46.5 c 128
 468.166666667 40.8333333333 477.333333333 36.3333333333 492 33 c 1
 492 17 l 1
EndSplineSet
EndChar
StartChar: uni1261
Encoding: 4705 4705 6413
Width: 759
Flags: HW
AnchorPoint: "Ethiopic Mark" 275 650 basechar 0
LayerCount: 2
Fore
SplineSet
731 314 m 1
 717 304 704.5 297.666666667 693.5 295 c 128
 682.5 292.333333333 669 291 653 291 c 0
 627 291 606.5 296.666666667 591.5 308 c 128
 576.5 319.333333333 564.666666667 337.333333333 556 362 c 1
 470 362 l 1
 468 316 465.666666667 269.833333333 463 223.5 c 128
 460.333333333 177.166666667 459 131 459 85 c 0
 459 69 460 57.3333333333 462 50 c 128
 464 42.6666666667 474 37 492 33 c 1
 492 17 l 1
 388 2 l 2
 379 1 379 1 370 0 c 0
 352 0 340.666666667 5.16666666667 336 15.5 c 128
 331.333333333 25.8333333333 329 38.6666666667 329 54 c 0
 329 82 329.833333333 115.333333333 331.5 154 c 128
 333.166666667 192.666666667 335.166666667 232.333333333 337.5 273 c 128
 339.833333333 313.666666667 341.833333333 351.333333333 343.5 386 c 128
 345.166666667 420.666666667 346 447.666666667 346 467 c 0
 346 483 344.333333333 501 341 521 c 128
 337.666666667 541 330.666666667 558.166666667 320 572.5 c 128
 309.333333333 586.833333333 293.333333333 594 272 594 c 0
 264 594 256.333333333 593 249 591 c 128
 241.666666667 589 235 584.666666667 229 578 c 0
 218.333333333 566.666666667 209.666666667 548.666666667 203 524 c 128
 196.333333333 499.333333333 191.333333333 471.166666667 188 439.5 c 128
 184.666666667 407.833333333 182.5 375.666666667 181.5 343 c 128
 180.5 310.333333333 179.833333333 280.666666667 179.5 254 c 128
 179.166666667 227.333333333 179 207 179 193 c 2
 179 144 l 2
 179 135.333333333 179.166666667 126.666666667 179.5 118 c 128
 179.833333333 109.333333333 180 100.666666667 180 92 c 0
 180.666666667 74.6666666667 182.833333333 61.3333333333 186.5 52 c 128
 190.166666667 42.6666666667 201 35.3333333333 219 30 c 1
 219 17 l 1
 118 2 l 2
 112 1.33333333333 106.333333333 0.666666666667 101 0 c 0
 89.6666666667 0 80.6666666667 3.66666666667 74 11 c 0
 66.6666666667 18.3333333333 60.3333333333 34.6666666667 55 60 c 128
 49.6666666667 85.3333333333 47 128.333333333 47 189 c 0
 47 231 47.3333333333 272.666666667 48 314 c 0
 49.3333333333 353.333333333 52 388 56 418 c 128
 60 448 70.6666666667 480.666666667 88 516 c 0
 102.666666667 544.666666667 122.333333333 567.666666667 147 585 c 128
 171.666666667 602.333333333 198.833333333 614.666666667 228.5 622 c 128
 258.166666667 629.333333333 288.333333333 633 319 633 c 0
 360.333333333 633 392 624.833333333 414 608.5 c 128
 436 592.166666667 451.166666667 570 459.5 542 c 128
 467.833333333 514 472 482 472 446 c 0
 472 434 472 434 472 422 c 128
 472 414 471.666666667 406 471 398 c 1
 563 398 l 1
 577.666666667 415.333333333 592.166666667 428 606.5 436 c 128
 620.833333333 444 639.666666667 448 663 448 c 0
 674.333333333 448 684.333333333 447 693 445 c 128
 701.666666667 443 711 440 721 436 c 1
 715 424 710.666666667 414.166666667 708 406.5 c 128
 705.333333333 398.833333333 704 388.333333333 704 375 c 0
 704 363 706 351.666666667 710 341 c 128
 714 330.333333333 721 321.333333333 731 314 c 1
EndSplineSet
EndChar
StartChar: uni1263
Encoding: 4707 4707 6415
Width: 533
Flags: HW
AnchorPoint: "Ethiopic Mark" 282 643 basechar 0
LayerCount: 2
Fore
SplineSet
492 17 m 1
 388 2 l 2
 379 1 379 1 370 0 c 0
 352 0 340.666666667 5.16666666667 336 15.5 c 128
 331.333333333 25.8333333333 329 38.6666666667 329 54 c 0
 329 71.3333333333 329.666666667 93.8333333333 331 121.5 c 128
 332.333333333 149.166666667 333.833333333 179.166666667 335.5 211.5 c 128
 338 260 338 260 340.5 308.5 c 128
 342.166666667 340.833333333 343.5 370.833333333 344.5 398.5 c 128
 345.5 426.166666667 346 449 346 467 c 0
 346 483 344.333333333 501 341 521 c 128
 337.666666667 541 330.666666667 558.166666667 320 572.5 c 128
 309.333333333 586.833333333 293.333333333 594 272 594 c 0
 246 594 226.333333333 581.166666667 213 555.5 c 128
 199.666666667 529.833333333 190.666666667 496.333333333 186 455 c 128
 181.333333333 413.666666667 179 369 179 321 c 2
 179 283 l 2
 179 263 179.666666667 247.833333333 181 237.5 c 128
 182.333333333 227.166666667 185.666666667 219.5 191 214.5 c 128
 196.333333333 209.5 205.666666667 205.333333333 219 202 c 1
 219 189 l 1
 118 170 l 2
 114 169.333333333 109.666666667 168.666666667 105 168 c 128
 100.333333333 167.333333333 95.6666666667 167 91 167 c 0
 87.6666666667 167 84 167.166666667 80 167.5 c 128
 76 167.833333333 72.6666666667 169.666666667 70 173 c 0
 67.3333333333 177 64.1666666667 181.833333333 60.5 187.5 c 128
 56.8333333333 193.166666667 53.6666666667 204.166666667 51 220.5 c 128
 48.3333333333 236.833333333 47 262.333333333 47 297 c 0
 47 345 51 389.5 59 430.5 c 128
 67 471.5 80.8333333333 507.166666667 100.5 537.5 c 128
 120.166666667 567.833333333 147.833333333 591.333333333 183.5 608 c 128
 219.166666667 624.666666667 264.333333333 633 319 633 c 0
 360.333333333 633 392 624.833333333 414 608.5 c 128
 436 592.166666667 451.166666667 570 459.5 542 c 128
 467.833333333 514 472 482 472 446 c 0
 472 424.666666667 471.333333333 398 470 366 c 128
 468.666666667 334 467.166666667 300.5 465.5 265.5 c 128
 463.833333333 230.5 462.333333333 197.166666667 461 165.5 c 128
 459.666666667 133.833333333 459 107 459 85 c 0
 459 69.6666666667 460 58 462 50 c 128
 464 42 474 36.3333333333 492 33 c 1
 492 17 l 1
EndSplineSet
EndChar
StartChar: uni1264
Encoding: 4708 4708 6416
Width: 726
Flags: HW
AnchorPoint: "Ethiopic Mark" 271 643 basechar 0
LayerCount: 2
Fore
SplineSet
677 99 m 0
 677 69.6666666667 667.166666667 44.6666666667 647.5 24 c 128
 627.833333333 3.33333333333 603 -7 573 -7 c 0
 560.333333333 -7 547.833333333 -5.83333333333 535.5 -3.5 c 128
 523.166666667 -1.16666666667 510.666666667 0 498 0 c 0
 477.333333333 0 457 -2.33333333333 437 -7 c 128
 417 -11.6666666667 396.666666667 -14 376 -14 c 0
 354 -14 340.666666667 -7.16666666667 336 6.5 c 128
 331.333333333 20.1666666667 329 36 329 54 c 0
 329 68 329.666666667 88.8333333333 331 116.5 c 128
 332.333333333 144.166666667 333.833333333 174.833333333 335.5 208.5 c 128
 337.166666667 242.166666667 338.833333333 276 340.5 310 c 128
 342.166666667 344 343.5 375 344.5 403 c 128
 345.5 431 346 452.333333333 346 467 c 0
 346 483 344.333333333 501 341 521 c 128
 337.666666667 541 330.666666667 558.166666667 320 572.5 c 128
 309.333333333 586.833333333 293.333333333 594 272 594 c 0
 264 594 256.333333333 592.833333333 249 590.5 c 128
 241.666666667 588.166666667 235 584 229 578 c 0
 224.333333333 573.333333333 219 564.833333333 213 552.5 c 128
 207 540.166666667 201.5 520.666666667 196.5 494 c 128
 191.5 467.333333333 187.333333333 429.833333333 184 381.5 c 128
 180.666666667 333.166666667 179 270.333333333 179 193 c 2
 179 144 l 2
 179 112 180.166666667 88.3333333333 182.5 73 c 128
 184.833333333 57.6666666667 188.833333333 47.3333333333 194.5 42 c 128
 200.166666667 36.6666666667 208.333333333 32.6666666667 219 30 c 1
 219 17 l 1
 118 2 l 2
 112 1.33333333333 106.333333333 0.666666666667 101 0 c 0
 91.6666666667 0 83.3333333333 3 76 9 c 0
 72 12.3333333333 67.8333333333 19.1666666667 63.5 29.5 c 128
 59.1666666667 39.8333333333 55.3333333333 57.5 52 82.5 c 128
 48.6666666667 107.5 47 143 47 189 c 0
 47 222 47 222 47 255 c 128
 47 277 47.3333333333 299 48 321 c 0
 49.3333333333 359 52.1666666667 392.5 56.5 421.5 c 128
 60.8333333333 450.5 71.3333333333 482 88 516 c 0
 102.666666667 544.666666667 122.333333333 567.666666667 147 585 c 128
 171.666666667 602.333333333 198.833333333 614.666666667 228.5 622 c 128
 258.166666667 629.333333333 288.333333333 633 319 633 c 0
 360.333333333 633 392 624.833333333 414 608.5 c 128
 436 592.166666667 451.166666667 570 459.5 542 c 128
 467.833333333 514 472 482 472 446 c 0
 472 400.666666667 470.666666667 355.333333333 468 310 c 128
 465.333333333 264.666666667 464 219.333333333 464 174 c 1
 468 175.333333333 472.333333333 176.5 477 177.5 c 128
 481.666666667 178.5 486 179 490 179 c 0
 496 179 502.166666667 177.833333333 508.5 175.5 c 128
 514.833333333 173.166666667 521 172 527 172 c 0
 532.333333333 172 537.333333333 172.666666667 542 174 c 128
 546.666666667 175.333333333 551.666666667 176.333333333 557 177 c 0
 563.666666667 177.666666667 569.5 178.333333333 574.5 179 c 128
 579.5 179.666666667 585 180 591 180 c 0
 614.333333333 180 634.5 172.5 651.5 157.5 c 128
 668.5 142.5 677 123 677 99 c 0
550 89 m 0
 550 104.333333333 546.333333333 117.5 539 128.5 c 128
 531.666666667 139.5 519.666666667 145 503 145 c 0
 478.333333333 145 463.833333333 138.666666667 459.5 126 c 128
 455.166666667 113.333333333 453 96.3333333333 453 75 c 0
 453 61 457.166666667 49.3333333333 465.5 40 c 128
 473.833333333 30.6666666667 485.333333333 26 500 26 c 0
 516.666666667 26 529.166666667 32.8333333333 537.5 46.5 c 128
 545.833333333 60.1666666667 550 74.3333333333 550 89 c 0
EndSplineSet
EndChar
StartChar: uni1267
Encoding: 4711 4711 6419
Width: 720
Flags: HW
AnchorPoint: "Ethiopic Mark" 294 628 basechar 0
LayerCount: 2
Fore
SplineSet
686 -51 m 1
 679.333333333 -56.3333333333 670.833333333 -60 660.5 -62 c 128
 650.166666667 -64 641 -65 633 -65 c 0
 601.666666667 -65 574.666666667 -57.8333333333 552 -43.5 c 128
 529.333333333 -29.1666666667 516 -5.33333333333 512 28 c 1
 254 0 l 1
 258.666666667 -23.3333333333 254.166666667 -44.1666666667 240.5 -62.5 c 128
 226.833333333 -80.8333333333 209 -95.1666666667 187 -105.5 c 128
 165 -115.833333333 144 -121 124 -121 c 0
 118 -121 111.833333333 -120.833333333 105.5 -120.5 c 128
 99.1666666667 -120.166666667 92.6666666667 -119.666666667 86 -119 c 1
 96.6666666667 -107 104 -90.1666666667 108 -68.5 c 128
 112 -46.8333333333 114 -28.3333333333 114 -13 c 0
 114 -3 112 7.33333333333 108 18 c 1
 333 44 l 1
 333 445 l 2
 333 461 331.666666667 478.5 329 497.5 c 128
 326.333333333 516.5 319.833333333 532.833333333 309.5 546.5 c 128
 299.166666667 560.166666667 283.333333333 567 262 567 c 0
 253.333333333 567 245 566 237 564 c 128
 229 562 221.666666667 558 215 552 c 0
 211.666666667 548.666666667 207.666666667 543.166666667 203 535.5 c 128
 198.333333333 527.833333333 194 515.5 190 498.5 c 128
 186 481.5 182.666666667 457 180 425 c 128
 177.333333333 393 176 351 176 299 c 0
 176 262.333333333 177.5 235.666666667 180.5 219 c 128
 183.5 202.333333333 187.666666667 191.333333333 193 186 c 0
 197.666666667 181.333333333 202.833333333 177.5 208.5 174.5 c 128
 214.166666667 171.5 220 169.333333333 226 168 c 1
 226 155 l 1
 125 136 l 2
 117 134.666666667 109.666666667 134 103 134 c 0
 82.3333333333 134 67.3333333333 144.833333333 58 166.5 c 128
 48.6666666667 188.166666667 44 224.333333333 44 275 c 0
 44 337 47.5 384.166666667 54.5 416.5 c 128
 61.5 448.833333333 71.6666666667 474.666666667 85 494 c 0
 113.666666667 535.333333333 147.833333333 566.166666667 187.5 586.5 c 128
 227.166666667 606.833333333 271 617 319 617 c 0
 352.333333333 617 378.5 612.166666667 397.5 602.5 c 128
 416.5 592.833333333 430.333333333 579.333333333 439 562 c 128
 447.666666667 544.666666667 453.166666667 524.166666667 455.5 500.5 c 128
 457.833333333 476.833333333 459 451.333333333 459 424 c 2
 459 58 l 1
 663 82 l 1
 661.666666667 74 660.666666667 65.8333333333 660 57.5 c 128
 659.333333333 49.1666666667 659 41 659 33 c 0
 659 21 661 6.16666666667 665 -11.5 c 128
 669 -29.1666666667 676 -42.3333333333 686 -51 c 1
EndSplineSet
EndChar
StartChar: uni126B
Encoding: 4715 4715 6423
Width: 632
Flags: HW
AnchorPoint: "Ethiopic Mark" 311 688 basechar 0
LayerCount: 2
Fore
SplineSet
615 595 m 1
 600.333333333 587 584.833333333 580 568.5 574 c 128
 552.166666667 568 535.333333333 565 518 565 c 0
 502 565 485.833333333 570.166666667 469.5 580.5 c 128
 453.166666667 590.833333333 442.333333333 603.666666667 437 619 c 1
 190 587 l 1
 186.666666667 566.333333333 177.666666667 550.333333333 163 539 c 128
 148.333333333 527.666666667 131.333333333 520 112 516 c 128
 92.6666666667 512 74 510 56 510 c 0
 50 510 42 510.5 32 511.5 c 128
 22 512.5 14 514.333333333 8 517 c 1
 28 535.666666667 38 558.333333333 38 585 c 0
 38 600.333333333 35.6666666667 612.666666667 31 622 c 128
 26.3333333333 631.333333333 18.6666666667 641.333333333 8 652 c 1
 19.3333333333 659.333333333 34.3333333333 664.833333333 53 668.5 c 128
 71.6666666667 672.166666667 87.3333333333 674 100 674 c 0
 118 674 134.5 669.666666667 149.5 661 c 128
 164.5 652.333333333 176.333333333 640 185 624 c 1
 430 654 l 1
 434 676 443.5 692.5 458.5 703.5 c 128
 473.5 714.5 491 721.833333333 511 725.5 c 128
 531 729.166666667 550.333333333 731 569 731 c 0
 578.333333333 731 587.666666667 728.666666667 597 724 c 1
 593 714.666666667 589.166666667 704.5 585.5 693.5 c 128
 581.833333333 682.5 580 672 580 662 c 0
 580 646 583.166666667 633.5 589.5 624.5 c 128
 595.833333333 615.5 604.333333333 605.666666667 615 595 c 1
532 15 m 1
 434 2 l 2
 430 2 425.833333333 1.66666666667 421.5 1 c 128
 417.166666667 0.333333333333 412.666666667 0 408 0 c 0
 392.666666667 0 382 4.16666666667 376 12.5 c 128
 370 20.8333333333 367 38.3333333333 367 65 c 0
 367 79 367.666666667 98.1666666667 369 122.5 c 128
 370.333333333 146.833333333 371.833333333 172.833333333 373.5 200.5 c 128
 375.166666667 228.166666667 376.666666667 254.833333333 378 280.5 c 128
 379.333333333 306.166666667 380 328 380 346 c 0
 380 361.333333333 378.5 378.5 375.5 397.5 c 128
 372.5 416.5 366 432.833333333 356 446.5 c 128
 346 460.166666667 330.666666667 467 310 467 c 0
 285.333333333 467 266.5 456.666666667 253.5 436 c 128
 240.5 415.333333333 231.5 387.833333333 226.5 353.5 c 128
 221.5 319.166666667 219 281 219 239 c 0
 219 225.666666667 219.666666667 211.833333333 221 197.5 c 128
 222.333333333 183.166666667 230.666666667 173.333333333 246 168 c 1
 246 155 l 1
 150 141 l 2
 144.666666667 140.333333333 139.333333333 140 134 140 c 0
 114.666666667 140 102.166666667 147.666666667 96.5 163 c 128
 90.8333333333 178.333333333 88 199.333333333 88 226 c 256
 88 253.333333333 90.3333333333 281.166666667 95 309.5 c 128
 99.6666666667 337.833333333 108.166666667 364.5 120.5 389.5 c 128
 132.833333333 414.5 150.333333333 435.666666667 173 453 c 0
 197.666666667 471.666666667 227.833333333 486.166666667 263.5 496.5 c 128
 299.166666667 506.833333333 332.333333333 512 363 512 c 0
 399.666666667 512 428.333333333 504.333333333 449 489 c 128
 469.666666667 473.666666667 484.5 452.666666667 493.5 426 c 128
 502.5 399.333333333 507 369.333333333 507 336 c 0
 507 313.333333333 506.333333333 286.166666667 505 254.5 c 128
 503.666666667 222.833333333 502.333333333 192.333333333 501 163 c 128
 499.666666667 133.666666667 499 110.333333333 499 93 c 0
 499 68.3333333333 501 52.3333333333 505 45 c 128
 509 37.6666666667 518 33 532 31 c 1
 532 15 l 1
EndSplineSet
EndChar
StartChar: uni126C
Encoding: 4716 4716 6424
Width: 753
Flags: HW
AnchorPoint: "Ethiopic Mark" 312 704 basechar 0
LayerCount: 2
Fore
SplineSet
615 595 m 1
 600.333333333 587 584.833333333 580 568.5 574 c 128
 552.166666667 568 535.333333333 565 518 565 c 0
 502 565 485.833333333 570.166666667 469.5 580.5 c 128
 453.166666667 590.833333333 442.333333333 603.666666667 437 619 c 1
 190 587 l 1
 186.666666667 566.333333333 177.666666667 550.333333333 163 539 c 128
 148.333333333 527.666666667 131.333333333 520 112 516 c 128
 92.6666666667 512 74 510 56 510 c 0
 50 510 42 510.5 32 511.5 c 128
 22 512.5 14 514.333333333 8 517 c 1
 28 535.666666667 38 558.333333333 38 585 c 0
 38 600.333333333 35.6666666667 612.666666667 31 622 c 128
 26.3333333333 631.333333333 18.6666666667 641.333333333 8 652 c 1
 19.3333333333 659.333333333 34.3333333333 664.833333333 53 668.5 c 128
 71.6666666667 672.166666667 87.3333333333 674 100 674 c 0
 118 674 134.5 669.666666667 149.5 661 c 128
 164.5 652.333333333 176.333333333 640 185 624 c 1
 430 654 l 1
 434 676 443.5 692.5 458.5 703.5 c 128
 473.5 714.5 491 721.833333333 511 725.5 c 128
 531 729.166666667 550.333333333 731 569 731 c 0
 578.333333333 731 587.666666667 728.666666667 597 724 c 1
 593 714.666666667 589.166666667 704.5 585.5 693.5 c 128
 581.833333333 682.5 580 672 580 662 c 0
 580 646 583.166666667 633.5 589.5 624.5 c 128
 595.833333333 615.5 604.333333333 605.666666667 615 595 c 1
716 112 m 0
 716 82.6666666667 706 57.6666666667 686 37 c 128
 666 16.3333333333 641.333333333 6 612 6 c 0
 599.333333333 6 586.833333333 7.16666666667 574.5 9.5 c 128
 562.166666667 11.8333333333 549.666666667 13 537 13 c 0
 516.333333333 13 496 10.6666666667 476 6 c 128
 456 1.33333333333 435.666666667 -1 415 -1 c 0
 393 -1 379.666666667 5.83333333333 375 19.5 c 128
 370.333333333 33.1666666667 368 49 368 67 c 0
 368 83.6666666667 368.833333333 105.5 370.5 132.5 c 128
 372.166666667 159.5 373.666666667 187.5 375 216.5 c 128
 376.333333333 245.5 377.5 271.833333333 378.5 295.5 c 128
 379.5 319.166666667 380 336 380 346 c 0
 380 361.333333333 378.5 378.5 375.5 397.5 c 128
 372.5 416.5 366 432.666666667 356 446 c 128
 346 459.333333333 330.666666667 466.333333333 310 467 c 0
 280.666666667 467.666666667 259.833333333 453.833333333 247.5 425.5 c 128
 235.166666667 397.166666667 227.333333333 358.666666667 224 310 c 0
 222.666666667 290.666666667 221.666666667 271.166666667 221 251.5 c 128
 220.333333333 231.833333333 220 212.333333333 220 193 c 0
 219.333333333 109.666666667 224.333333333 60 235 44 c 0
 237.666666667 39.3333333333 241 35.6666666667 245 33 c 128
 249 30.3333333333 253.666666667 28.3333333333 259 27 c 1
 259 14 l 1
 158 2 l 2
 155.333333333 2 152.5 1.66666666667 149.5 1 c 128
 146.5 0.333333333333 143.666666667 0 141 0 c 0
 135.666666667 0 130.666666667 0.666666666667 126 2 c 128
 121.333333333 3.33333333333 117 6 113 10 c 0
 105.666666667 16.6666666667 99.1666666667 31.3333333333 93.5 54 c 128
 87.8333333333 76.6666666667 85.3333333333 112.666666667 86 162 c 0
 86 240 92 301.833333333 104 347.5 c 128
 116 393.166666667 139 428.666666667 173 454 c 0
 199.666666667 474 229.833333333 488.666666667 263.5 498 c 128
 297.166666667 507.333333333 330.333333333 512 363 512 c 0
 399.666666667 512 428 504 448 488 c 128
 468 472 482.166666667 450.833333333 490.5 424.5 c 128
 498.833333333 398.166666667 503 368.666666667 503 336 c 0
 503 324.666666667 502.666666667 309.166666667 502 289.5 c 128
 501.333333333 269.833333333 500.666666667 250.333333333 500 231 c 128
 499.333333333 211.666666667 499 197 499 187 c 1
 509.666666667 190.333333333 519.666666667 192 529 192 c 0
 535.666666667 192 542 190.833333333 548 188.5 c 128
 554 186.166666667 560 185 566 185 c 0
 570 185 574 185.5 578 186.5 c 128
 582 187.5 586 188.333333333 590 189 c 0
 604 191.666666667 617.333333333 193 630 193 c 0
 653.333333333 193 673.5 185.5 690.5 170.5 c 128
 707.5 155.5 716 136 716 112 c 0
589 102 m 256
 589 116.666666667 585.333333333 129.666666667 578 141 c 128
 570.666666667 152.333333333 558.666666667 158 542 158 c 0
 517.333333333 158 502.833333333 151.666666667 498.5 139 c 128
 494.166666667 126.333333333 492 109.333333333 492 88 c 0
 492 73.3333333333 496.166666667 61.5 504.5 52.5 c 128
 512.833333333 43.5 524.333333333 39 539 39 c 0
 555.666666667 39 568.166666667 45.8333333333 576.5 59.5 c 128
 584.833333333 73.1666666667 589 87.3333333333 589 102 c 256
EndSplineSet
EndChar
StartChar: uni126E
Encoding: 4718 4718 6426
Width: 632
Flags: HW
AnchorPoint: "Ethiopic Mark" 300 706 basechar 0
LayerCount: 2
Fore
SplineSet
615 595 m 1
 600.333333333 587 584.833333333 580 568.5 574 c 128
 552.166666667 568 535.333333333 565 518 565 c 0
 502 565 485.833333333 570.166666667 469.5 580.5 c 128
 453.166666667 590.833333333 442.333333333 603.666666667 437 619 c 1
 190 587 l 1
 186.666666667 566.333333333 177.666666667 550.333333333 163 539 c 128
 148.333333333 527.666666667 131.333333333 520 112 516 c 128
 92.6666666667 512 74 510 56 510 c 0
 50 510 42 510.5 32 511.5 c 128
 22 512.5 14 514.333333333 8 517 c 1
 28 535.666666667 38 558.333333333 38 585 c 0
 38 600.333333333 35.6666666667 612.666666667 31 622 c 128
 26.3333333333 631.333333333 18.6666666667 641.333333333 8 652 c 1
 19.3333333333 659.333333333 34.3333333333 664.833333333 53 668.5 c 128
 71.6666666667 672.166666667 87.3333333333 674 100 674 c 0
 118 674 134.5 669.666666667 149.5 661 c 128
 164.5 652.333333333 176.333333333 640 185 624 c 1
 430 654 l 1
 434 676 443.5 692.5 458.5 703.5 c 128
 473.5 714.5 491 721.833333333 511 725.5 c 128
 531 729.166666667 550.333333333 731 569 731 c 0
 578.333333333 731 587.666666667 728.666666667 597 724 c 1
 593 714.666666667 589.166666667 704.5 585.5 693.5 c 128
 581.833333333 682.5 580 672 580 662 c 0
 580 646 583.166666667 633.5 589.5 624.5 c 128
 595.833333333 615.5 604.333333333 605.666666667 615 595 c 1
538 166 m 1
 440 153 l 2
 430 152 430 152 420 151 c 0
 400.666666667 151 388.833333333 156.666666667 384.5 168 c 128
 380.166666667 179.333333333 378 193 378 209 c 0
 378 232.333333333 378.333333333 255.333333333 379 278 c 128
 379.666666667 300.666666667 380 323.333333333 380 346 c 0
 380 361.333333333 378.5 378.5 375.5 397.5 c 128
 372.5 416.5 366 432.833333333 356 446.5 c 128
 346 460.166666667 330.666666667 467 310 467 c 0
 283.333333333 467 263.666666667 455.5 251 432.5 c 128
 238.333333333 409.5 229.333333333 368.666666667 224 310 c 0
 222 290.666666667 220.833333333 271.166666667 220.5 251.5 c 128
 220.166666667 231.833333333 220 212.333333333 220 193 c 0
 220 143.666666667 221.5 108.166666667 224.5 86.5 c 128
 227.5 64.8333333333 231 50.6666666667 235 44 c 0
 241 36 249 30.3333333333 259 27 c 1
 259 14 l 1
 158 2 l 2
 155.333333333 2 152.5 1.66666666667 149.5 1 c 128
 146.5 0.333333333333 143.666666667 0 141 0 c 0
 135.666666667 0 130.333333333 0.833333333333 125 2.5 c 128
 119.666666667 4.16666666667 115.333333333 7 112 11 c 0
 108 15.6666666667 104 23.1666666667 100 33.5 c 128
 96 43.8333333333 92.6666666667 59 90 79 c 128
 87.3333333333 99 86 126.666666667 86 162 c 0
 86 219.333333333 89 266.833333333 95 304.5 c 128
 101 342.166666667 110.5 372.833333333 123.5 396.5 c 128
 136.5 420.166666667 153 439.333333333 173 454 c 0
 199.666666667 473.333333333 229.833333333 487.833333333 263.5 497.5 c 128
 297.166666667 507.166666667 330.333333333 512 363 512 c 0
 399.666666667 512 428.333333333 504.333333333 449 489 c 128
 469.666666667 473.666666667 484.5 452.666666667 493.5 426 c 128
 502.5 399.333333333 507 369.333333333 507 336 c 0
 507 320.666666667 506.666666667 305.333333333 506 290 c 128
 505.333333333 274.666666667 505 259.333333333 505 244 c 0
 505 226.666666667 505.833333333 213.333333333 507.5 204 c 128
 509.166666667 194.666666667 519.333333333 187.333333333 538 182 c 1
 538 166 l 1
EndSplineSet
EndChar
StartChar: uni126F
Encoding: 4719 4719 6427
Width: 769
Flags: HW
AnchorPoint: "Ethiopic Mark" 307 719 basechar 0
LayerCount: 2
Fore
SplineSet
615 595 m 1
 600.333333333 587 584.833333333 580 568.5 574 c 128
 552.166666667 568 535.333333333 565 518 565 c 0
 502 565 485.833333333 570.166666667 469.5 580.5 c 128
 453.166666667 590.833333333 442.333333333 603.666666667 437 619 c 1
 190 587 l 1
 186.666666667 566.333333333 177.666666667 550.333333333 163 539 c 128
 148.333333333 527.666666667 131.333333333 520 112 516 c 128
 92.6666666667 512 74 510 56 510 c 0
 50 510 42 510.5 32 511.5 c 128
 22 512.5 14 514.333333333 8 517 c 1
 28 535.666666667 38 558.333333333 38 585 c 0
 38 600.333333333 35.6666666667 612.666666667 31 622 c 128
 26.3333333333 631.333333333 18.6666666667 641.333333333 8 652 c 1
 19.3333333333 659.333333333 34.3333333333 664.833333333 53 668.5 c 128
 71.6666666667 672.166666667 87.3333333333 674 100 674 c 0
 118 674 134.5 669.666666667 149.5 661 c 128
 164.5 652.333333333 176.333333333 640 185 624 c 1
 430 654 l 1
 434 676 443.5 692.5 458.5 703.5 c 128
 473.5 714.5 491 721.833333333 511 725.5 c 128
 531 729.166666667 550.333333333 731 569 731 c 0
 578.333333333 731 587.666666667 728.666666667 597 724 c 1
 593 714.666666667 589.166666667 704.5 585.5 693.5 c 128
 581.833333333 682.5 580 672 580 662 c 0
 580 646 583.166666667 633.5 589.5 624.5 c 128
 595.833333333 615.5 604.333333333 605.666666667 615 595 c 1
735 -51 m 1
 729 -56.3333333333 720.666666667 -60 710 -62 c 128
 699.333333333 -64 690 -65 682 -65 c 0
 650.666666667 -65 623.666666667 -57.8333333333 601 -43.5 c 128
 578.333333333 -29.1666666667 565 -5.33333333333 561 28 c 1
 303 0 l 1
 307.666666667 -22.6666666667 303.166666667 -43.1666666667 289.5 -61.5 c 128
 275.833333333 -79.8333333333 258 -94.3333333333 236 -105 c 128
 214 -115.666666667 193 -121 173 -121 c 0
 167 -121 160.833333333 -120.833333333 154.5 -120.5 c 128
 148.166666667 -120.166666667 141.666666667 -119.666666667 135 -119 c 1
 145.666666667 -107 153 -90.1666666667 157 -68.5 c 128
 161 -46.8333333333 163 -28.3333333333 163 -13 c 0
 163 -3 161 7.33333333333 157 18 c 1
 368 42 l 1
 370.666666667 90.6666666667 373.333333333 140.833333333 376 192.5 c 128
 378.666666667 244.166666667 380 295.333333333 380 346 c 0
 380 361.333333333 378.5 378.5 375.5 397.5 c 128
 372.5 416.5 366 432.833333333 356 446.5 c 128
 346 460.166666667 330.666666667 467 310 467 c 0
 284.666666667 467 265.5 455.833333333 252.5 433.5 c 128
 239.5 411.166666667 230.666666667 382.666666667 226 348 c 128
 221.333333333 313.333333333 219 277 219 239 c 0
 219 217 220.5 200.666666667 223.5 190 c 128
 226.5 179.333333333 234 172 246 168 c 1
 246 155 l 1
 150 141 l 2
 144.666666667 140.333333333 139.333333333 140 134 140 c 0
 117.333333333 140 105.5 146.666666667 98.5 160 c 128
 91.5 173.333333333 88 195.333333333 88 226 c 0
 88 253.333333333 90.3333333333 281.166666667 95 309.5 c 128
 99.6666666667 337.833333333 108.166666667 364.5 120.5 389.5 c 128
 132.833333333 414.5 150.333333333 435.666666667 173 453 c 0
 197.666666667 471.666666667 227.833333333 486.166666667 263.5 496.5 c 128
 299.166666667 506.833333333 332.333333333 512 363 512 c 0
 399.666666667 512 428.333333333 504.333333333 449 489 c 128
 469.666666667 473.666666667 484.5 452.666666667 493.5 426 c 128
 502.5 399.333333333 507 369.333333333 507 336 c 0
 507 316.666666667 506.333333333 294.5 505 269.5 c 128
 503.666666667 244.5 502.5 219 501.5 193 c 128
 500.5 167 499.833333333 142.166666667 499.5 118.5 c 128
 499.166666667 94.8333333333 499.666666667 74.6666666667 501 58 c 1
 712 82 l 1
 710.666666667 74 709.666666667 65.8333333333 709 57.5 c 128
 708.333333333 49.1666666667 708 41 708 33 c 0
 708 21 710 6.16666666667 714 -11.5 c 128
 718 -29.1666666667 725 -42.3333333333 735 -51 c 1
EndSplineSet
EndChar
StartChar: uni1270
Encoding: 4720 4720 6428
Width: 725
Flags: HW
AnchorPoint: "Ethiopic Mark" 404 652 basechar 0
LayerCount: 2
Fore
SplineSet
701 323 m 1
 693 315.666666667 683.166666667 310 671.5 306 c 128
 659.833333333 302 648.666666667 300 638 300 c 0
 601.333333333 300 576.5 310 563.5 330 c 128
 550.5 350 545 375.333333333 547 406 c 1
 448 399 l 1
 413 158 l 2
 411.666666667 148 410.166666667 137 408.5 125 c 128
 406.833333333 113 406 102.333333333 406 93 c 0
 406 81.6666666667 407.833333333 70.6666666667 411.5 60 c 128
 415.166666667 49.3333333333 422.333333333 41.6666666667 433 37 c 1
 433 21 l 1
 342 4 l 2
 336.666666667 3.33333333333 331.5 2.5 326.5 1.5 c 128
 321.5 0.5 316.333333333 0 311 0 c 0
 292.333333333 0 280.333333333 5.16666666667 275 15.5 c 128
 269.666666667 25.8333333333 267 39.3333333333 267 56 c 0
 267 63.3333333333 267.666666667 72.5 269 83.5 c 128
 270.333333333 94.5 271.333333333 103.666666667 272 111 c 2
 312 388 l 1
 204 380 l 1
 204 357.333333333 198.833333333 336.166666667 188.5 316.5 c 128
 178.166666667 296.833333333 164 280.833333333 146 268.5 c 128
 128 256.166666667 107 250 83 250 c 0
 77 250 69.5 251 60.5 253 c 128
 51.5 255 44.6666666667 258.333333333 40 263 c 1
 49.3333333333 272.333333333 56 285.666666667 60 303 c 128
 64 320.333333333 66 335 66 347 c 0
 66 356.333333333 65.8333333333 366 65.5 376 c 128
 65.1666666667 386 63.6666666667 395.333333333 61 404 c 1
 317 423 l 1
 319 437 321.333333333 453.166666667 324 471.5 c 128
 326.666666667 489.833333333 329 507.333333333 331 524 c 128
 333 540.666666667 334 552.666666667 334 560 c 0
 334 571.333333333 331.5 582.833333333 326.5 594.5 c 128
 321.5 606.166666667 313 614 301 618 c 1
 301 626 l 1
 315 626.666666667 330.5 627.666666667 347.5 629 c 128
 364.5 630.333333333 380.333333333 631.333333333 395 632 c 128
 409.666666667 632.666666667 420.333333333 633 427 633 c 0
 443.666666667 633 455.5 629 462.5 621 c 128
 469.5 613 473 601 473 585 c 0
 473 578.333333333 471.666666667 565.5 469 546.5 c 128
 466.333333333 527.5 463.5 507.5 460.5 486.5 c 128
 456 455 456 455 453 434 c 1
 686 451 l 1
 683.333333333 443 681.5 434 680.5 424 c 128
 679.5 414 679 404.666666667 679 396 c 0
 679 390 679.666666667 381.833333333 681 371.5 c 128
 682.333333333 361.166666667 684.5 351.333333333 687.5 342 c 128
 690.5 332.666666667 695 326.333333333 701 323 c 1
EndSplineSet
EndChar
StartChar: uni1276
Encoding: 4726 4726 6434
Width: 707
Flags: HW
AnchorPoint: "Ethiopic Mark" 412 672 basechar 0
LayerCount: 2
Fore
SplineSet
682 257 m 1
 672 251.666666667 660.5 247.5 647.5 244.5 c 128
 634.5 241.5 622.666666667 240 612 240 c 0
 575.333333333 240 550 251.166666667 536 273.5 c 128
 522 295.833333333 515.666666667 322 517 352 c 1
 421 343 l 1
 403 158 l 2
 402.333333333 146.666666667 401.166666667 134 399.5 120 c 128
 397.833333333 106 397.333333333 94.6666666667 398 86 c 0
 398 74.6666666667 399.833333333 64 403.5 54 c 128
 407.166666667 44 414.666666667 36.3333333333 426 31 c 1
 426 15 l 1
 339 3 l 2
 333.666666667 2.33333333333 327.833333333 1.66666666667 321.5 1 c 128
 315.166666667 0.333333333333 309 0 303 0 c 0
 284.333333333 0 272.333333333 5.16666666667 267 15.5 c 128
 261.666666667 25.8333333333 259 39.3333333333 259 56 c 0
 259 63.3333333333 259.5 71.6666666667 260.5 81 c 128
 261.5 90.3333333333 262.333333333 98.6666666667 263 106 c 2
 294 334 l 2
 294.666666667 340.666666667 295.166666667 347.166666667 295.5 353.5 c 128
 295.833333333 359.833333333 296.333333333 366 297 372 c 1
 282.333333333 368.666666667 267.166666667 365.333333333 251.5 362 c 128
 235.833333333 358.666666667 220.333333333 356 205 354 c 1
 206.333333333 348.666666667 207 342.333333333 207 335 c 0
 207 315 201 296.666666667 189 280 c 128
 177 263.333333333 161.833333333 250 143.5 240 c 128
 125.166666667 230 106.333333333 225 87 225 c 0
 79.6666666667 225 71.5 225.833333333 62.5 227.5 c 128
 53.5 229.166666667 45.6666666667 232.333333333 39 237 c 1
 51.6666666667 245 60.5 257.166666667 65.5 273.5 c 128
 70.5 289.833333333 73 304.666666667 73 318 c 0
 73 327.333333333 72.1666666667 337.5 70.5 348.5 c 128
 68.8333333333 359.5 66 369.333333333 62 378 c 1
 100.666666667 379.333333333 139.333333333 381.833333333 178 385.5 c 128
 216.666666667 389.166666667 254.666666667 396 292 406 c 1
 285.333333333 416.666666667 277.333333333 428.333333333 268 441 c 128
 258.666666667 453.666666667 250.5 466.666666667 243.5 480 c 128
 236.5 493.333333333 233 506.666666667 233 520 c 0
 233 544 239.5 564.833333333 252.5 582.5 c 128
 265.5 600.166666667 282.166666667 614.666666667 302.5 626 c 128
 322.833333333 637.333333333 344.5 645.833333333 367.5 651.5 c 128
 390.5 657.166666667 412 660 432 660 c 0
 451.333333333 660 470.166666667 657.666666667 488.5 653 c 128
 506.833333333 648.333333333 522 639.833333333 534 627.5 c 128
 546 615.166666667 552 597.333333333 552 574 c 0
 552 550 544.666666667 527.833333333 530 507.5 c 128
 515.333333333 487.166666667 497.666666667 469.333333333 477 454 c 128
 456.333333333 438.666666667 436.333333333 426 417 416 c 1
 421 404 423 391.666666667 423 379 c 1
 665 405 l 1
 659.666666667 383.666666667 657 361 657 337 c 0
 657 325.666666667 658.833333333 311.5 662.5 294.5 c 128
 666.166666667 277.5 672.666666667 265 682 257 c 1
432 558 m 0
 432 572 429.666666667 585.833333333 425 599.5 c 128
 420.333333333 613.166666667 409.333333333 620 392 620 c 0
 378 620 367.833333333 613.166666667 361.5 599.5 c 128
 355.166666667 585.833333333 352 573.333333333 352 562 c 0
 352 543.333333333 357 525.666666667 367 509 c 128
 377 492.333333333 386.666666667 476.333333333 396 461 c 1
 408.666666667 475 417.833333333 490 423.5 506 c 128
 429.166666667 522 432 539.333333333 432 558 c 0
EndSplineSet
EndChar
StartChar: uni1277
Encoding: 4727 4727 6435
Width: 766
Flags: HW
AnchorPoint: "Ethiopic Mark" 425 625 basechar 0
LayerCount: 2
Fore
SplineSet
743 345 m 1
 733.666666667 341 723.166666667 337.833333333 711.5 335.5 c 128
 699.833333333 333.166666667 689 332 679 332 c 0
 660.333333333 332 642.5 335.666666667 625.5 343 c 128
 608.5 350.333333333 594.5 361 583.5 375 c 128
 572.5 389 567 406 567 426 c 1
 470 418 l 1
 426 65 l 1
 649 82 l 1
 647 66 646 48.6666666667 646 30 c 0
 646 15.3333333333 648 1 652 -13 c 128
 656 -27 661.666666667 -40.6666666667 669 -54 c 1
 662.333333333 -56 654 -57.3333333333 644 -58 c 128
 634 -58.6666666667 625.666666667 -59 619 -59 c 0
 588.333333333 -59 562.5 -51.3333333333 541.5 -36 c 128
 520.5 -20.6666666667 509.333333333 3.33333333333 508 36 c 1
 228 12 l 1
 228 -12 220 -33 204 -51 c 128
 188 -69 168.333333333 -83 145 -93 c 128
 121.666666667 -103 99.3333333333 -108 78 -108 c 0
 74.6666666667 -108 69.6666666667 -107.5 63 -106.5 c 128
 56.3333333333 -105.5 51.6666666667 -103.666666667 49 -101 c 1
 59.6666666667 -88.3333333333 67.3333333333 -72.1666666667 72 -52.5 c 128
 76.6666666667 -32.8333333333 79 -15.3333333333 79 0 c 0
 79 14 77 26.3333333333 73 37 c 1
 290 54 l 1
 333 407 l 1
 226 398 l 1
 225.333333333 374 217.833333333 353.666666667 203.5 337 c 128
 189.166666667 320.333333333 171.666666667 307.666666667 151 299 c 128
 130.333333333 290.333333333 109 286 87 286 c 0
 84.3333333333 286 78.5 286.333333333 69.5 287 c 128
 60.5 287.666666667 54.6666666667 289 52 291 c 1
 60.6666666667 300.333333333 67.6666666667 312.166666667 73 326.5 c 128
 78.3333333333 340.833333333 81 354.333333333 81 367 c 0
 81 376.333333333 80.8333333333 386 80.5 396 c 128
 80.1666666667 406 78.6666666667 415.333333333 76 424 c 1
 338 444 l 1
 340 459.333333333 342.166666667 476.333333333 344.5 495 c 128
 346.833333333 513.666666667 348 528.333333333 348 539 c 0
 348 561.666666667 338.333333333 578 319 588 c 1
 319 599 l 1
 396 608 l 2
 404 608.666666667 412 609.5 420 610.5 c 128
 428 611.5 435 612 441 612 c 0
 457.666666667 612 469.5 608 476.5 600 c 128
 483.5 592 487 580 487 564 c 0
 487 558 486.166666667 548.5 484.5 535.5 c 128
 482.833333333 522.5 481.166666667 508.666666667 479.5 494 c 128
 477.833333333 479.333333333 476 466 474 454 c 1
 728 473 l 1
 724 461 722 448.333333333 722 435 c 0
 722 427.666666667 722.666666667 418 724 406 c 128
 725.333333333 394 727.5 382.333333333 730.5 371 c 128
 733.5 359.666666667 737.666666667 351 743 345 c 1
EndSplineSet
EndChar
StartChar: uni127A
Encoding: 4730 4730 6438
Width: 712
Flags: HW
AnchorPoint: "Ethiopic Mark" 387 700 basechar 0
LayerCount: 2
Fore
SplineSet
689 314 m 1
 665.666666667 304.666666667 641.333333333 300 616 300 c 0
 579.333333333 300 553.5 309 538.5 327 c 128
 523.5 345 517.666666667 371.666666667 521 407 c 1
 423 399 l 1
 386 151 l 2
 384.666666667 141 383.333333333 130.833333333 382 120.5 c 128
 380.666666667 110.166666667 380 100.333333333 380 91 c 0
 380 82.3333333333 381.333333333 73.5 384 64.5 c 128
 386.666666667 55.5 393.666666667 51 405 51 c 0
 414.333333333 51 426.666666667 52.1666666667 442 54.5 c 128
 457.333333333 56.8333333333 471.666666667 58.6666666667 485 60 c 1
 491.666666667 75.3333333333 502.333333333 87.5 517 96.5 c 128
 531.666666667 105.5 547.666666667 111.833333333 565 115.5 c 128
 582.333333333 119.166666667 598.666666667 121 614 121 c 0
 620 121 626.5 120.666666667 633.5 120 c 128
 640.5 119.333333333 646.666666667 117.666666667 652 115 c 1
 644.666666667 109 639.166666667 101 635.5 91 c 128
 631.833333333 81 630 71.3333333333 630 62 c 0
 630 48 632.833333333 33.1666666667 638.5 17.5 c 128
 644.166666667 1.83333333333 653.333333333 -10 666 -18 c 1
 651.333333333 -27.3333333333 634.5 -33.5 615.5 -36.5 c 128
 596.5 -39.5 578.333333333 -41 561 -41 c 0
 538.333333333 -41 519.833333333 -36.1666666667 505.5 -26.5 c 128
 491.166666667 -16.8333333333 483 0 481 24 c 1
 312 4 l 2
 306 3.33333333333 299 2.5 291 1.5 c 128
 283 0.5 275.666666667 0 269 0 c 0
 259 0 252 3.16666666667 248 9.5 c 128
 244 15.8333333333 241.5 23.3333333333 240.5 32 c 128
 239.5 40.6666666667 239 48.6666666667 239 56 c 0
 239 63.3333333333 239.333333333 71.6666666667 240 81 c 128
 240.666666667 90.3333333333 241.666666667 98.6666666667 243 106 c 2
 286 389 l 1
 211 383 l 1
 207.666666667 343.666666667 194.666666667 314.166666667 172 294.5 c 128
 149.333333333 274.833333333 118.666666667 265 80 265 c 0
 74 265 66.5 265.5 57.5 266.5 c 128
 48.5 267.5 41.3333333333 269.666666667 36 273 c 1
 46.6666666667 281.666666667 54.3333333333 294.333333333 59 311 c 128
 63.6666666667 327.666666667 66 342.333333333 66 355 c 0
 66 361.666666667 65.3333333333 371 64 383 c 128
 62.6666666667 395 60 404 56 410 c 1
 292 426 l 1
 315 587 l 1
 257 581 l 1
 241.666666667 553 224.333333333 535.833333333 205 529.5 c 128
 185.666666667 523.166666667 160.666666667 520 130 520 c 0
 115.333333333 520 99.6666666667 521.333333333 83 524 c 1
 92.3333333333 531.333333333 99.3333333333 542 104 556 c 128
 108.666666667 570 111 582.666666667 111 594 c 256
 111 605.333333333 108.666666667 617.333333333 104 630 c 128
 99.3333333333 642.666666667 92.3333333333 652.666666667 83 660 c 1
 88.3333333333 665.333333333 96.3333333333 669.5 107 672.5 c 128
 117.666666667 675.5 128.666666667 677.5 140 678.5 c 128
 151.333333333 679.5 160.333333333 680 167 680 c 0
 187 680 206.5 675.333333333 225.5 666 c 128
 244.5 656.666666667 256 641 260 619 c 1
 497 644 l 1
 499.666666667 665.333333333 507.833333333 681.833333333 521.5 693.5 c 128
 535.166666667 705.166666667 551.666666667 713.5 571 718.5 c 128
 590.333333333 723.5 609 726 627 726 c 0
 633.666666667 726 641.833333333 725.333333333 651.5 724 c 128
 661.166666667 722.666666667 668.666666667 720.333333333 674 717 c 1
 668.666666667 709 665 698.333333333 663 685 c 128
 661 671.666666667 660 660.333333333 660 651 c 256
 660 641.666666667 662.166666667 631.333333333 666.5 620 c 128
 670.833333333 608.666666667 678.333333333 601.333333333 689 598 c 1
 679 586.666666667 664.833333333 578.666666667 646.5 574 c 128
 628.166666667 569.333333333 611.666666667 567 597 567 c 0
 578.333333333 567 560.5 569.666666667 543.5 575 c 128
 526.5 580.333333333 512.666666667 591.333333333 502 608 c 1
 452 602 l 1
 428 436 l 1
 662 452 l 1
 660 443.333333333 658.666666667 434.333333333 658 425 c 128
 657.333333333 415.666666667 657 406.333333333 657 397 c 0
 657 390.333333333 657.833333333 380.833333333 659.5 368.5 c 128
 661.166666667 356.166666667 664.333333333 344.666666667 669 334 c 128
 673.666666667 323.333333333 680.333333333 316.666666667 689 314 c 1
EndSplineSet
EndChar
StartChar: uni127B
Encoding: 4731 4731 6439
Width: 746
Flags: HW
AnchorPoint: "Ethiopic Mark" 433 693 basechar 0
LayerCount: 2
Fore
SplineSet
738 301 m 1
 726.666666667 297 714.5 293.666666667 701.5 291 c 128
 688.5 288.333333333 676.333333333 287 665 287 c 0
 628.333333333 287 602.333333333 295.833333333 587 313.5 c 128
 571.666666667 331.166666667 566 358 570 394 c 1
 474 387 l 1
 456 254 l 2
 452 222 441.5 195 424.5 173 c 128
 407.5 151 387 132.666666667 363 118 c 128
 339 103.333333333 312.833333333 91.5 284.5 82.5 c 128
 256.166666667 73.5 228.333333333 66.3333333333 201 61 c 1
 201.666666667 52.3333333333 202.333333333 43.3333333333 203 34 c 0
 203 0 193.833333333 -27.6666666667 175.5 -49 c 128
 157.166666667 -70.3333333333 130.333333333 -81 95 -81 c 0
 87 -81 78.1666666667 -79.6666666667 68.5 -77 c 128
 58.8333333333 -74.3333333333 50.3333333333 -70.6666666667 43 -66 c 1
 49.6666666667 -64 54.6666666667 -58.6666666667 58 -50 c 128
 61.3333333333 -41.3333333333 63.6666666667 -32 65 -22 c 128
 66.3333333333 -12 67 -4.66666666667 67 0 c 0
 67 10 66.6666666667 19.6666666667 66 29 c 128
 65.3333333333 38.3333333333 64.6666666667 48 64 58 c 1
 92.6666666667 63.3333333333 122.166666667 70.5 152.5 79.5 c 128
 182.833333333 88.5 210.333333333 99.5 235 112.5 c 128
 259.666666667 125.5 278 141.333333333 290 160 c 0
 298 173.333333333 304.166666667 187.166666667 308.5 201.5 c 128
 312.833333333 215.833333333 316 230.333333333 318 245 c 2
 336 376 l 1
 260 370 l 1
 256.666666667 330.666666667 243.666666667 301.166666667 221 281.5 c 128
 198.333333333 261.833333333 167.666666667 252 129 252 c 0
 123 252 115.5 252.5 106.5 253.5 c 128
 97.5 254.5 90.3333333333 256.666666667 85 260 c 1
 96.3333333333 268.666666667 104.166666667 281.333333333 108.5 298 c 128
 112.833333333 314.666666667 115 329.333333333 115 342 c 0
 115 348.666666667 114.333333333 358 113 370 c 128
 111.666666667 382 109 391 105 397 c 1
 342 413 l 1
 365 574 l 1
 306 568 l 1
 290.666666667 540 273.5 522.833333333 254.5 516.5 c 128
 235.5 510.166666667 210.333333333 507 179 507 c 0
 163 507 147.333333333 508.333333333 132 511 c 1
 142 518.333333333 149.166666667 529 153.5 543 c 128
 157.833333333 557 160 569.666666667 160 581 c 256
 160 592.333333333 157.666666667 604.333333333 153 617 c 128
 148.333333333 629.666666667 141.333333333 639.666666667 132 647 c 1
 137.333333333 652.333333333 145.333333333 656.5 156 659.5 c 128
 166.666666667 662.5 177.666666667 664.5 189 665.5 c 128
 200.333333333 666.5 209.333333333 667 216 667 c 0
 236 667 255.5 662.333333333 274.5 653 c 128
 293.5 643.666666667 305 628 309 606 c 1
 546 631 l 1
 548.666666667 652.333333333 556.833333333 668.833333333 570.5 680.5 c 128
 584.166666667 692.166666667 600.666666667 700.5 620 705.5 c 128
 639.333333333 710.5 658 713 676 713 c 0
 682.666666667 713 690.666666667 712.333333333 700 711 c 128
 709.333333333 709.666666667 717 707.333333333 723 704 c 1
 717.666666667 696 714 685.333333333 712 672 c 128
 710 658.666666667 709 647.333333333 709 638 c 256
 709 628.666666667 711.166666667 618.166666667 715.5 606.5 c 128
 719.833333333 594.833333333 727.333333333 587.666666667 738 585 c 1
 728 573.666666667 713.666666667 565.666666667 695 561 c 128
 676.333333333 556.333333333 660 554 646 554 c 0
 628 554 610.166666667 556.666666667 592.5 562 c 128
 574.833333333 567.333333333 561 578.333333333 551 595 c 1
 502 590 l 1
 479 423 l 1
 711 439 l 1
 709 430.333333333 707.666666667 421.166666667 707 411.5 c 128
 706.333333333 401.833333333 706 392.666666667 706 384 c 0
 706 377.333333333 706.833333333 367.833333333 708.5 355.5 c 128
 710.166666667 343.166666667 713.333333333 331.666666667 718 321 c 128
 722.666666667 310.333333333 729.333333333 303.666666667 738 301 c 1
EndSplineSet
EndChar
StartChar: uni127C
Encoding: 4732 4732 6440
Width: 712
Flags: HW
AnchorPoint: "Ethiopic Mark" 394 704 basechar 0
LayerCount: 2
Fore
SplineSet
689 314 m 1
 665.666666667 304.666666667 641.333333333 300 616 300 c 0
 579.333333333 300 553.5 309 538.5 327 c 128
 523.5 345 517.666666667 371.666666667 521 407 c 1
 423 399 l 1
 395 199 l 1
 405.666666667 199 416.166666667 199.333333333 426.5 200 c 128
 436.833333333 200.666666667 447.333333333 202 458 204 c 0
 469.333333333 205.333333333 479.333333333 207.166666667 488 209.5 c 128
 496.666666667 211.833333333 506.666666667 213 518 213 c 0
 542.666666667 213 562.333333333 207.5 577 196.5 c 128
 591.666666667 185.5 599 167 599 141 c 0
 599 123.666666667 595.333333333 106.333333333 588 89 c 128
 580.666666667 71.6666666667 570.166666667 57.3333333333 556.5 46 c 128
 542.833333333 34.6666666667 526.333333333 28.6666666667 507 28 c 2
 425 24 l 2
 409 23.3333333333 393.166666667 21.5 377.5 18.5 c 128
 361.833333333 15.5 346 12.3333333333 330 9 c 0
 316 6 316 6 302 3 c 128
 292.666666667 1 283.333333333 0 274 0 c 0
 256.666666667 0 246.5 5.83333333333 243.5 17.5 c 128
 240.5 29.1666666667 239 42 239 56 c 0
 239 63.3333333333 239.5 71.6666666667 240.5 81 c 128
 241.5 90.3333333333 242.666666667 98.6666666667 244 106 c 2
 285 389 l 1
 211 383 l 1
 207.666666667 343.666666667 194.666666667 314.166666667 172 294.5 c 128
 149.333333333 274.833333333 118.666666667 265 80 265 c 0
 74 265 66.5 265.666666667 57.5 267 c 128
 48.5 268.333333333 41.3333333333 270.333333333 36 273 c 1
 46.6666666667 281.666666667 54.3333333333 294.333333333 59 311 c 128
 63.6666666667 327.666666667 66 342.333333333 66 355 c 0
 66 361.666666667 65.3333333333 371 64 383 c 128
 62.6666666667 395 60 404 56 410 c 1
 291 426 l 1
 314 587 l 1
 257 581 l 1
 241.666666667 553 224.333333333 535.833333333 205 529.5 c 128
 185.666666667 523.166666667 160.666666667 520 130 520 c 0
 115.333333333 520 99.6666666667 521.333333333 83 524 c 1
 92.3333333333 531.333333333 99.3333333333 542 104 556 c 128
 108.666666667 570 111 582.666666667 111 594 c 256
 111 605.333333333 108.666666667 617.333333333 104 630 c 128
 99.3333333333 642.666666667 92.3333333333 652.666666667 83 660 c 1
 88.3333333333 665.333333333 96.3333333333 669.5 107 672.5 c 128
 117.666666667 675.5 128.666666667 677.5 140 678.5 c 128
 151.333333333 679.5 160.333333333 680 167 680 c 0
 187 680 206.5 675.333333333 225.5 666 c 128
 244.5 656.666666667 256 641 260 619 c 1
 497 644 l 1
 499.666666667 665.333333333 507.833333333 681.833333333 521.5 693.5 c 128
 535.166666667 705.166666667 551.666666667 713.5 571 718.5 c 128
 590.333333333 723.5 609 726 627 726 c 0
 633.666666667 726 641.833333333 725.333333333 651.5 724 c 128
 661.166666667 722.666666667 668.666666667 720.333333333 674 717 c 1
 668.666666667 709 665 698.333333333 663 685 c 128
 661 671.666666667 660 660.333333333 660 651 c 256
 660 641.666666667 662.166666667 631.333333333 666.5 620 c 128
 670.833333333 608.666666667 678.333333333 601.333333333 689 598 c 1
 679 586.666666667 664.833333333 578.666666667 646.5 574 c 128
 628.166666667 569.333333333 611.666666667 567 597 567 c 0
 578.333333333 567 560.5 569.666666667 543.5 575 c 128
 526.5 580.333333333 512.666666667 591.333333333 502 608 c 1
 451 602 l 1
 428 436 l 1
 662 452 l 1
 660 443.333333333 658.666666667 434.333333333 658 425 c 128
 657.333333333 415.666666667 657 406.333333333 657 397 c 0
 657 390.333333333 657.833333333 380.833333333 659.5 368.5 c 128
 661.166666667 356.166666667 664.333333333 344.666666667 669 334 c 128
 673.666666667 323.333333333 680.333333333 316.666666667 689 314 c 1
470 114 m 0
 470 131.333333333 465 144.5 455 153.5 c 128
 445 162.5 431.666666667 167 415 167 c 0
 411 167 406.833333333 166.833333333 402.5 166.5 c 128
 398.166666667 166.166666667 394 165.666666667 390 165 c 1
 388.666666667 155 387 143.833333333 385 131.5 c 128
 383 119.166666667 382 109 382 101 c 0
 382 71.6666666667 395.666666667 57 423 57 c 0
 440.333333333 57 452.5 62.5 459.5 73.5 c 128
 466.5 84.5 470 98 470 114 c 0
EndSplineSet
EndChar
StartChar: uni1282
Encoding: 4738 4738 6446
Width: 772
Flags: HW
AnchorPoint: "Ethiopic Mark" 399 666 basechar 0
LayerCount: 2
Fore
SplineSet
735 -32 m 1
 720.333333333 -41.3333333333 706 -47.3333333333 692 -50 c 128
 678 -52.6666666667 662.333333333 -54 645 -54 c 0
 622.333333333 -54 602 -48.5 584 -37.5 c 128
 566 -26.5 556 -8.66666666667 554 16 c 1
 415 2 l 2
 409.666666667 2 404.5 1.66666666667 399.5 1 c 128
 394.5 0.333333333333 389.333333333 0 384 0 c 0
 370 0 360.333333333 2.66666666667 355 8 c 128
 349.666666667 13.3333333333 347 23 347 37 c 0
 347 44.3333333333 347.833333333 52 349.5 60 c 128
 351.166666667 68 353 75.3333333333 355 82 c 2
 451 374 l 2
 453.666666667 381.333333333 455.833333333 388.333333333 457.5 395 c 128
 459.166666667 401.666666667 460 409 460 417 c 1
 441 432 l 1
 427.666666667 430 413.666666667 427.333333333 399 424 c 128
 384.333333333 420.666666667 370.333333333 419 357 419 c 0
 349.666666667 419 343.666666667 420.5 339 423.5 c 128
 334.333333333 426.5 332 432 332 440 c 0
 332 445.333333333 332.333333333 451.166666667 333 457.5 c 128
 333.666666667 463.833333333 334.333333333 469.666666667 335 475 c 1
 245 465 l 1
 237.666666667 432.333333333 228.333333333 407 217 389 c 128
 205.666666667 371 190 358.333333333 170 351 c 128
 150 343.666666667 123.333333333 340 90 340 c 0
 87.3333333333 340 82.1666666667 340.166666667 74.5 340.5 c 128
 66.8333333333 340.833333333 59.5 341.833333333 52.5 343.5 c 128
 45.5 345.166666667 41 347.666666667 39 351 c 1
 55.6666666667 360.333333333 67.8333333333 375.166666667 75.5 395.5 c 128
 83.1666666667 415.833333333 87 434.666666667 87 452 c 0
 87 457.333333333 86.8333333333 462.666666667 86.5 468 c 128
 86.1666666667 473.333333333 86 478.666666667 86 484 c 1
 341 509 l 1
 342.333333333 517.666666667 343.833333333 526.666666667 345.5 536 c 128
 347.166666667 545.333333333 348 554.333333333 348 563 c 0
 348 585 336.333333333 597.666666667 313 601 c 1
 313 615 l 1
 423 631 l 2
 425.666666667 631 428.166666667 631.166666667 430.5 631.5 c 128
 432.833333333 631.833333333 435.333333333 632 438 632 c 0
 452.666666667 632 463 628.166666667 469 620.5 c 128
 475 612.833333333 478 602 478 588 c 0
 478 585 478 585 478 581 c 128
 478 578.333333333 477.666666667 575.666666667 477 573 c 2
 464 458 l 1
 485 437 l 1
 501 439.666666667 518.5 442.666666667 537.5 446 c 128
 556.5 449.333333333 571.666666667 451 583 451 c 0
 592.333333333 451 598.5 447 601.5 439 c 128
 604.5 431 606 423.333333333 606 416 c 0
 606 412 604.666666667 405.666666667 602 397 c 128
 599.333333333 388.333333333 596.5 379.5 593.5 370.5 c 128
 590.5 361.5 588.333333333 354.666666667 587 350 c 2
 505 101 l 2
 503.666666667 96.3333333333 501.333333333 89.3333333333 498 80 c 128
 494.666666667 70.6666666667 493 63.6666666667 493 59 c 0
 493 53.6666666667 494.333333333 50.3333333333 497 49 c 128
 499.666666667 47.6666666667 503.333333333 47 508 47 c 0
 516 47 523.833333333 47.3333333333 531.5 48 c 128
 539.166666667 48.6666666667 547 49.6666666667 555 51 c 1
 561.666666667 66.3333333333 572.333333333 78.1666666667 587 86.5 c 128
 601.666666667 94.8333333333 617.833333333 100.666666667 635.5 104 c 128
 653.166666667 107.333333333 669.333333333 109 684 109 c 0
 696 109 707 105.666666667 717 99 c 1
 711 94.3333333333 706.5 86.5 703.5 75.5 c 128
 700.5 64.5 699 55.3333333333 699 48 c 0
 699 32 702.166666667 17.6666666667 708.5 5 c 128
 714.833333333 -7.66666666667 723.666666667 -20 735 -32 c 1
EndSplineSet
EndChar
StartChar: uni1288
Encoding: 4744 4744 6452
Width: 973
Flags: HW
AnchorPoint: "Ethiopic Mark" 383 628 basechar 0
LayerCount: 2
Fore
SplineSet
937 273 m 0
 937 236.333333333 927 208.833333333 907 190.5 c 128
 887 172.166666667 859 163 823 163 c 0
 812.333333333 163 802 164.666666667 792 168 c 128
 782 171.333333333 771.666666667 173 761 173 c 0
 755.666666667 173 750 172.166666667 744 170.5 c 128
 738 168.833333333 732.333333333 167.666666667 727 167 c 0
 717 165 707.166666667 163.333333333 697.5 162 c 128
 687.833333333 160.666666667 678 160 668 160 c 0
 642 160 625.166666667 168.333333333 617.5 185 c 128
 609.833333333 201.666666667 606 221 606 243 c 0
 606 253.666666667 606.666666667 264.5 608 275.5 c 128
 609.333333333 286.5 611.666666667 297 615 307 c 1
 552 307 l 1
 494 94 l 2
 492.666666667 88.6666666667 491.333333333 82.8333333333 490 76.5 c 128
 488.666666667 70.1666666667 488 64 488 58 c 0
 488 43.3333333333 495.333333333 33 510 27 c 1
 510 15 l 1
 418 2 l 2
 408 1 408 1 398 0 c 0
 363.333333333 0 346 17.6666666667 346 53 c 0
 346 59.6666666667 348.833333333 74.1666666667 354.5 96.5 c 128
 360.166666667 118.833333333 367.333333333 145 376 175 c 128
 384.666666667 205 393.666666667 235.166666667 403 265.5 c 128
 412.333333333 295.833333333 420.5 322.5 427.5 345.5 c 128
 434.5 368.5 439.333333333 384.333333333 442 393 c 1
 330 393 l 2
 316 393 306.166666667 394.666666667 300.5 398 c 128
 294.833333333 401.333333333 292 407.333333333 292 416 c 0
 292 422 292.5 428.166666667 293.5 434.5 c 128
 294.5 440.833333333 295.666666667 447 297 453 c 1
 240 453 l 1
 237.333333333 429 228.833333333 408.5 214.5 391.5 c 128
 200.166666667 374.5 182.5 361.5 161.5 352.5 c 128
 140.5 343.5 118.666666667 339 96 339 c 0
 86 339 74.8333333333 340.833333333 62.5 344.5 c 128
 50.1666666667 348.166666667 39.3333333333 352.333333333 30 357 c 1
 47.3333333333 364.333333333 60 377.833333333 68 397.5 c 128
 76 417.166666667 80 435.666666667 80 453 c 0
 80 461 80 461 80 469.5 c 128
 80 475.166666667 79.6666666667 480.666666667 79 486 c 1
 303 486 l 1
 304.333333333 495.333333333 306.166666667 505.833333333 308.5 517.5 c 128
 310.833333333 529.166666667 312 538.333333333 312 545 c 0
 312 552.333333333 310.666666667 560.833333333 308 570.5 c 128
 305.333333333 580.166666667 299.333333333 585.666666667 290 587 c 1
 290 603 l 1
 308.666666667 604.333333333 329.166666667 606.166666667 351.5 608.5 c 128
 373.833333333 610.833333333 391.333333333 612 404 612 c 0
 420.666666667 612 433 608.666666667 441 602 c 128
 449 595.333333333 453 583.333333333 453 566 c 0
 453 554.666666667 452 544 450 534 c 2
 433 426 l 1
 542 426 l 2
 550.666666667 426 558 423.166666667 564 417.5 c 128
 570 411.833333333 573 404.666666667 573 396 c 0
 573 388 571.5 378.666666667 568.5 368 c 128
 565.5 357.333333333 563 347.666666667 561 339 c 1
 636 339 l 1
 646.666666667 348.333333333 659 354.166666667 673 356.5 c 128
 687 358.833333333 700.666666667 360 714 360 c 0
 723.333333333 360 732.333333333 359.333333333 741 358 c 128
 749.666666667 356.666666667 758.666666667 356 768 356 c 0
 782 356 796 356.5 810 357.5 c 128
 824 358.5 838 359 852 359 c 0
 875.333333333 359 895.333333333 350.5 912 333.5 c 128
 928.666666667 316.5 937 296.333333333 937 273 c 0
808 286 m 0
 808 295.333333333 806.166666667 304.5 802.5 313.5 c 128
 798.833333333 322.5 791.333333333 327 780 327 c 0
 768.666666667 327 759.833333333 321.833333333 753.5 311.5 c 128
 747.166666667 301.166666667 742.666666667 289.333333333 740 276 c 128
 737.333333333 262.666666667 736 252 736 244 c 0
 736 234.666666667 738 226 742 218 c 128
 746 210 753.333333333 206 764 206 c 0
 778 206 788.166666667 210.5 794.5 219.5 c 128
 800.833333333 228.5 804.666666667 239.166666667 806 251.5 c 128
 807.333333333 263.833333333 808 275.333333333 808 286 c 0
EndSplineSet
EndChar
StartChar: uni128B
Encoding: 4747 4747 6454
Width: 640
Flags: HW
AnchorPoint: "Ethiopic Mark" 332 713 basechar 0
LayerCount: 2
Fore
SplineSet
601 15 m 1
 514 0 l 2
 509.333333333 -0.666697184245 504.333333333 -1.00003051758 499 -1 c 0
 489 -1 479.666666667 1.33333333333 471 6 c 128
 462.333333333 10.6666666667 458 19 458 31 c 0
 458 53 460.333333333 75.6666666667 465 99 c 128
 469.666666667 122.333333333 472 145 472 167 c 0
 472 179.666666667 469.5 189.666666667 464.5 197 c 128
 459.5 204.333333333 450.666666667 209 438 211 c 0
 427.333333333 213 416.5 214.666666667 405.5 216 c 128
 394.5 217.333333333 384 218.666666667 374 220 c 0
 366 220.666666667 357.5 221.666666667 348.5 223 c 128
 339.5 224.333333333 331 225 323 225 c 0
 314.333333333 225 303.166666667 223.333333333 289.5 220 c 128
 275.833333333 216.666666667 262.166666667 213 248.5 209 c 128
 234.833333333 205 223.666666667 201.666666667 215 199 c 1
 215 190 l 2
 215 152.666666667 203.5 123.666666667 180.5 103 c 128
 157.5 82.3333333333 127.666666667 72 91 72 c 0
 77 72 63 73.6666666667 49 77 c 1
 59.6666666667 85.6666666667 66.3333333333 97 69 111 c 128
 71.6666666667 125 73 138.333333333 73 151 c 0
 73 158.333333333 72.5 167.666666667 71.5 179 c 128
 70.5 190.333333333 68.3333333333 199.333333333 65 206 c 1
 111.666666667 210 158 218 204 230 c 128
 250 242 295.333333333 254.666666667 340 268 c 1
 341.333333333 273.333333333 343.666666667 283.666666667 347 299 c 128
 350.333333333 314.333333333 354.166666667 331.833333333 358.5 351.5 c 128
 362.833333333 371.166666667 367 390.5 371 409.5 c 128
 375 428.5 378.333333333 444.833333333 381 458.5 c 128
 383.666666667 472.166666667 385 480.333333333 385 483 c 1
 368.333333333 483 351.666666667 482.333333333 335 481 c 128
 318.333333333 479.666666667 301.666666667 479 285 479 c 0
 270.333333333 479 260.833333333 481.5 256.5 486.5 c 128
 252.166666667 491.5 250 497.666666667 250 505 c 0
 250 511.666666667 250.5 518.333333333 251.5 525 c 128
 252.5 531.666666667 253.333333333 538.333333333 254 545 c 1
 200 541 l 1
 194.666666667 501.666666667 182.166666667 471.666666667 162.5 451 c 128
 142.833333333 430.333333333 112.666666667 420 72 420 c 0
 61.3333333333 420 50.3333333333 421.333333333 39 424 c 1
 51.6666666667 437.333333333 60.5 455.5 65.5 478.5 c 128
 70.5 501.5 73 521.666666667 73 539 c 0
 73 543.666666667 72.8333333333 548.666666667 72.5 554 c 128
 72.1666666667 559.333333333 71.6666666667 564.333333333 71 569 c 1
 258 581 l 1
 258.666666667 590.333333333 259.833333333 600.5 261.5 611.5 c 128
 263.166666667 622.5 264 631 264 637 c 0
 264 645 262.333333333 652.833333333 259 660.5 c 128
 255.666666667 668.166666667 249.333333333 672.666666667 240 674 c 1
 240 690 l 1
 352 700 l 2
 366 701.333333333 378.666666667 697.833333333 390 689.5 c 128
 401.333333333 681.166666667 406.333333333 669.666666667 405 655 c 2
 390 519 l 1
 408 519 426 519.166666667 444 519.5 c 128
 462 519.833333333 480 520 498 520 c 0
 517.333333333 520 527 510.666666667 527 492 c 0
 527 484 526.166666667 475.5 524.5 466.5 c 128
 522.833333333 457.5 521 449 519 441 c 2
 471 239 l 1
 555 231 l 2
 575 229 587.5 223 592.5 213 c 128
 597.5 203 600 188.666666667 600 170 c 0
 600 150.666666667 598.166666667 131.333333333 594.5 112 c 128
 590.833333333 92.6666666667 589 73.3333333333 589 54 c 0
 589 50 590 45.6666666667 592 41 c 128
 594 36.3333333333 597 33 601 31 c 1
 601 15 l 1
EndSplineSet
EndChar
StartChar: uni1291
Encoding: 4753 4753 6458
Width: 565
Flags: HW
AnchorPoint: "Ethiopic Mark" 113 669 basechar 0
LayerCount: 2
Fore
SplineSet
517 345 m 2
 519 345 519 345 522 345 c 128
 525 345 525 345 527 345 c 1
 522.333333333 337 518.666666667 327.666666667 516 317 c 128
 513.333333333 306.333333333 512 296.333333333 512 287 c 0
 512 276.333333333 514.666666667 264.5 520 251.5 c 128
 525.333333333 238.5 532.666666667 229 542 223 c 1
 522 203 498.333333333 193 471 193 c 0
 438.333333333 193 414.166666667 203.333333333 398.5 224 c 128
 382.833333333 244.666666667 375 270 375 300 c 1
 330 296 l 1
 328.666666667 290 325.5 278.5 320.5 261.5 c 128
 315.5 244.5 309.833333333 225.166666667 303.5 203.5 c 128
 297.166666667 181.833333333 291.166666667 160.5 285.5 139.5 c 128
 279.833333333 118.5 275 100.333333333 271 85 c 128
 267 69.6666666667 265 60 265 56 c 0
 265 48.6666666667 267.166666667 43.3333333333 271.5 40 c 128
 275.833333333 36.6666666667 281 33.6666666667 287 31 c 1
 287 13 l 1
 185 2 l 2
 181.666666667 2 178.5 1.83333333333 175.5 1.5 c 128
 172.5 1.16666666667 169.666666667 1 167 1 c 0
 153 1 140.333333333 4.83333333333 129 12.5 c 128
 117.666666667 20.1666666667 112 31.6666666667 112 47 c 0
 112 53.6666666667 114.166666667 65.6666666667 118.5 83 c 128
 122.833333333 100.333333333 127.666666667 118.333333333 133 137 c 128
 138.333333333 155.666666667 142.666666667 171 146 183 c 0
 157.333333333 223 168.833333333 263 180.5 303 c 128
 192.166666667 343 204 383 216 423 c 1
 101 407 l 2
 99 407 96.8333333333 406.833333333 94.5 406.5 c 128
 92.1666666667 406.166666667 89.6666666667 406 87 406 c 0
 60.3333333333 406 47 420.333333333 47 449 c 0
 47 457.666666667 48.1666666667 471 50.5 489 c 128
 52.8333333333 507 55.1666666667 524.833333333 57.5 542.5 c 128
 59.8333333333 560.166666667 61 573 61 581 c 0
 61 591.666666667 57.5 599.166666667 50.5 603.5 c 128
 43.5 607.833333333 35.3333333333 610.666666667 26 612 c 1
 26 628 l 1
 150 644 l 2
 152 644 154.166666667 644.166666667 156.5 644.5 c 128
 158.833333333 644.833333333 161.333333333 645 164 645 c 0
 172.666666667 645 181 643.166666667 189 639.5 c 128
 197 635.833333333 200.666666667 629 200 619 c 2
 192 454 l 1
 211.333333333 456.666666667 232.833333333 459.333333333 256.5 462 c 128
 280.166666667 464.666666667 297.666666667 466 309 466 c 0
 323 466 335 462.333333333 345 455 c 128
 355 447.666666667 360 436.333333333 360 421 c 0
 360 415.666666667 358.666666667 406.833333333 356 394.5 c 128
 353.333333333 382.166666667 350.166666667 370 346.5 358 c 128
 342.833333333 346 340.333333333 337 339 331 c 1
 517 345 l 2
EndSplineSet
EndChar
StartChar: uni1294
Encoding: 4756 4756 6461
Width: 500
Flags: HW
AnchorPoint: "Ethiopic Mark" 142 646 basechar 0
LayerCount: 2
Fore
SplineSet
460 136 m 0
 460 108.666666667 452.833333333 86.1666666667 438.5 68.5 c 128
 424.166666667 50.8333333333 406 37.5 384 28.5 c 128
 362 19.5 338.333333333 15 313 15 c 0
 285 15 257 13.6666666667 229 11 c 128
 201 8.33333333333 173 5.33333333333 145 2 c 0
 137 1.33333333333 129.333333333 0.666666666667 122 0 c 0
 101.333333333 0 83.5 4.33333333333 68.5 13 c 128
 53.5 21.6666666667 46 37.3333333333 46 60 c 0
 46 65.3333333333 48 72.5 52 81.5 c 128
 56 90.5 59.3333333333 97.6666666667 62 103 c 0
 90 156.333333333 117 207.833333333 143 257.5 c 128
 169 307.166666667 195 357.333333333 221 408 c 1
 132 397 l 2
 124 396 124 396 116 395 c 128
 110.666666667 394.333333333 105.666666667 394 101 394 c 0
 77.6666666667 394 66.3333333333 405 67 427 c 2
 73 584 l 2
 73 586.666666667 72.6666666667 590 72 594 c 128
 71.3333333333 598 69 600 65 600 c 1
 65 612 l 1
 160 625 l 2
 166 625.666666667 170.666666667 626 174 626 c 0
 202.666666667 626 217 611.333333333 217 582 c 0
 217 576 216.333333333 564.666666667 215 548 c 128
 213.666666667 531.333333333 212.333333333 513.166666667 211 493.5 c 128
 209.666666667 473.833333333 208.333333333 456 207 440 c 1
 220.333333333 441.333333333 233.833333333 443 247.5 445 c 128
 261.166666667 447 274.666666667 448.666666667 288 450 c 0
 296 450.666666667 305.166666667 451.666666667 315.5 453 c 128
 325.833333333 454.333333333 334 455 340 455 c 0
 354 455 363.666666667 453.666666667 369 451 c 128
 374.333333333 448.333333333 377 441.333333333 377 430 c 0
 377 425.333333333 373.333333333 415.333333333 366 400 c 128
 358.666666667 384.666666667 349.666666667 366.666666667 339 346 c 128
 328.333333333 325.333333333 317.166666667 304.5 305.5 283.5 c 128
 293.833333333 262.5 283.333333333 243.666666667 274 227 c 128
 264.666666667 210.333333333 258.333333333 198.666666667 255 192 c 1
 279 193.333333333 304.833333333 195 332.5 197 c 128
 360.166666667 199 382.333333333 200 399 200 c 0
 419 200 434.166666667 194.166666667 444.5 182.5 c 128
 454.833333333 170.833333333 460 155.333333333 460 136 c 0
320 117 m 0
 320 131.666666667 314.333333333 142.666666667 303 150 c 128
 291.666666667 157.333333333 279.333333333 161 266 161 c 0
 261.333333333 161 256.5 160.833333333 251.5 160.5 c 128
 246.5 160.166666667 241.666666667 160 237 160 c 1
 235.666666667 158 232.666666667 152.666666667 228 144 c 128
 223.333333333 135.333333333 218.333333333 126 213 116 c 128
 207.666666667 106 203 96.8333333333 199 88.5 c 128
 195 80.1666666667 193 75 193 73 c 0
 193 61 198 53.5 208 50.5 c 128
 218 47.5 227.666666667 46 237 46 c 0
 258.333333333 46 277.5 52 294.5 64 c 128
 311.5 76 320 93.6666666667 320 117 c 0
EndSplineSet
EndChar
